{"glyphs":{"0":{"ha":682,"x_min":63,"x_max":619,"o":"m 342 -12 q 133 78 203 -12 q 63 319 63 168 l 63 804 q 131 1047 63 958 q 342 1135 200 1135 q 551 1047 482 1135 q 619 804 619 958 l 619 319 q 550 77 619 167 q 342 -12 481 -12 m 342 110 q 469 318 469 110 l 469 806 q 442 958 469 901 q 342 1014 415 1014 q 240 958 268 1014 q 213 806 213 901 l 213 318 q 342 110 213 110 z "},"1":{"ha":649,"x_min":113,"x_max":457,"o":"m 308 931 q 224 911 306 926 q 113 890 143 896 l 113 1003 q 344 1125 282 1043 l 457 1125 l 457 0 l 308 0 l 308 931 z "},"2":{"ha":664,"x_min":57,"x_max":614,"o":"m 57 106 l 343 551 q 371 593 364 585 q 442 722 419 671 q 464 846 464 774 q 438 969 464 926 q 351 1013 411 1013 q 218 806 218 1013 l 218 768 l 69 768 l 69 807 q 135 1050 69 965 q 344 1135 200 1135 q 546 1059 478 1135 q 614 844 614 983 q 598 723 614 776 q 560 631 582 669 q 490 519 538 592 l 232 125 l 588 125 l 588 0 l 57 0 l 57 106 z "},"3":{"ha":649,"x_min":56,"x_max":608,"o":"m 331 -12 q 126 63 196 -12 q 56 276 56 139 l 56 314 l 203 314 l 203 289 q 233 157 206 203 q 331 111 260 111 q 433 163 406 111 q 460 318 460 215 q 425 466 460 413 q 313 525 390 519 q 292 526 307 526 l 292 675 l 311 675 q 425 717 390 678 q 460 846 460 756 q 432 972 460 929 q 332 1014 404 1014 q 233 968 260 1014 q 203 833 206 922 l 203 810 l 56 810 l 56 847 q 126 1060 56 985 q 332 1135 196 1135 q 538 1059 468 1135 q 608 846 608 983 q 565 685 608 747 q 447 600 522 622 q 566 504 524 576 q 608 318 608 432 q 541 74 608 161 q 331 -12 474 -12 z "},"4":{"ha":682,"x_min":56,"x_max":654,"o":"m 379 296 l 56 296 l 56 461 l 344 1125 l 529 1125 l 529 436 l 654 436 l 654 296 l 529 296 l 529 0 l 379 0 l 379 296 m 379 436 l 379 936 l 206 436 l 379 436 z "},"5":{"ha":661,"x_min":65,"x_max":617,"o":"m 338 -11 q 128 72 192 -11 q 65 315 65 154 l 214 315 q 240 164 214 221 q 340 107 265 107 q 425 140 397 107 q 460 228 453 174 q 468 375 468 283 q 459 510 468 460 q 423 588 450 561 q 342 615 396 615 q 266 589 299 615 q 217 522 233 563 l 90 522 l 90 1125 l 575 1125 l 575 976 l 225 976 l 215 665 q 378 728 275 728 q 562 640 507 728 q 617 394 617 551 q 554 96 617 203 q 338 -11 492 -11 z "},"6":{"ha":679,"x_min":75,"x_max":631,"o":"m 351 -12 q 144 90 213 -12 q 75 357 75 192 l 75 736 q 139 1026 75 918 q 351 1135 203 1135 q 553 1064 482 1135 q 626 861 624 993 l 628 844 l 478 844 q 450 972 478 931 q 351 1013 422 1013 q 224 772 224 1013 l 224 601 q 288 658 246 638 q 388 679 331 679 q 575 595 519 679 q 631 354 631 511 q 563 88 631 189 q 351 -12 494 -12 m 351 111 q 451 168 421 111 q 481 318 481 225 q 474 453 481 403 q 439 535 467 503 q 351 567 411 567 q 276 544 308 567 q 224 490 243 522 l 224 322 q 253 169 224 226 q 351 111 283 111 z "},"7":{"ha":535,"x_min":38,"x_max":488,"o":"m 339 1008 l 38 1008 l 38 1125 l 488 1125 l 488 1053 l 279 0 l 136 0 l 339 1008 z "},"8":{"ha":664,"x_min":56,"x_max":610,"o":"m 333 -12 q 121 72 186 -12 q 56 317 56 157 q 91 488 56 424 q 194 593 126 551 q 69 844 69 676 q 135 1058 69 982 q 333 1135 200 1135 q 530 1058 465 1135 q 594 844 594 982 q 563 694 594 754 q 469 593 531 633 q 574 486 538 550 q 610 317 610 422 q 544 73 610 158 q 333 -12 479 -12 m 333 661 q 449 853 449 663 q 422 974 449 928 q 333 1019 394 1019 q 244 974 272 1019 q 215 853 215 928 q 242 716 215 769 q 333 661 268 663 m 333 106 q 438 160 408 106 q 467 314 467 215 q 435 461 467 404 q 333 519 404 518 q 229 461 261 518 q 197 314 197 404 q 227 160 197 215 q 333 106 257 106 z "},"9":{"ha":679,"x_min":61,"x_max":617,"o":"m 340 -12 q 138 60 208 -12 q 64 267 67 132 l 64 279 l 213 279 q 241 152 213 193 q 342 111 269 111 q 467 351 467 111 l 467 522 q 403 465 444 486 q 303 444 363 444 q 116 528 171 444 q 61 769 61 613 q 129 1035 61 935 q 340 1135 197 1135 q 548 1033 479 1135 q 617 767 617 931 l 617 389 q 553 97 617 207 q 340 -12 489 -12 m 340 557 q 467 635 422 557 l 467 801 q 340 1013 467 1013 q 241 955 271 1013 q 211 806 211 897 q 218 671 211 721 q 253 589 225 621 q 340 557 281 557 z "},"\u0000":{"ha":0,"x_min":0,"x_max":0,"o":""},"\r":{"ha":318,"x_min":0,"x_max":0,"o":""}," ":{"ha":318,"x_min":0,"x_max":0,"o":""},"A":{"ha":683,"x_min":26,"x_max":657,"o":"m 265 1125 l 417 1125 l 657 0 l 508 0 l 457 283 l 228 283 l 174 0 l 26 0 l 265 1125 m 436 396 l 342 903 l 249 396 l 436 396 z "},"Á":{"ha":683,"x_min":26,"x_max":657,"o":"m 265 1125 l 417 1125 l 657 0 l 508 0 l 457 283 l 228 283 l 174 0 l 26 0 l 265 1125 m 436 396 l 342 903 l 249 396 l 436 396 m 385 1467 l 533 1467 l 378 1192 l 303 1192 l 385 1467 z "},"Ă":{"ha":683,"x_min":26,"x_max":657,"o":"m 265 1125 l 417 1125 l 657 0 l 508 0 l 457 283 l 228 283 l 174 0 l 26 0 l 265 1125 m 436 396 l 342 903 l 249 396 l 436 396 m 342 1213 q 203 1264 247 1213 q 160 1401 160 1315 l 246 1401 q 269 1323 247 1349 q 342 1297 292 1297 q 438 1401 438 1297 l 525 1401 q 481 1264 525 1315 q 342 1213 438 1213 z "},"Ắ":{"ha":683,"x_min":26,"x_max":657,"o":"m 265 1125 l 417 1125 l 657 0 l 508 0 l 457 283 l 228 283 l 174 0 l 26 0 l 265 1125 m 436 396 l 342 903 l 249 396 l 436 396 m 360 1607 l 508 1607 l 360 1443 l 271 1443 l 360 1607 m 342 1186 q 203 1238 247 1186 q 160 1375 160 1289 l 246 1375 q 269 1297 247 1322 q 342 1271 292 1271 q 438 1375 438 1271 l 525 1375 q 481 1238 525 1289 q 342 1186 438 1186 z "},"Ặ":{"ha":683,"x_min":26,"x_max":657,"o":"m 265 1125 l 417 1125 l 657 0 l 508 0 l 457 283 l 228 283 l 174 0 l 26 0 l 265 1125 m 436 396 l 342 903 l 249 396 l 436 396 m 267 -87 l 417 -87 l 417 -244 l 267 -244 l 267 -87 m 342 1213 q 203 1264 247 1213 q 160 1401 160 1315 l 246 1401 q 269 1323 247 1349 q 342 1297 292 1297 q 438 1401 438 1297 l 525 1401 q 481 1264 525 1315 q 342 1213 438 1213 z "},"Ằ":{"ha":683,"x_min":26,"x_max":657,"o":"m 265 1125 l 417 1125 l 657 0 l 508 0 l 457 283 l 228 283 l 174 0 l 26 0 l 265 1125 m 436 396 l 342 903 l 249 396 l 436 396 m 169 1607 l 318 1607 l 407 1443 l 318 1443 l 169 1607 m 342 1186 q 203 1238 247 1186 q 160 1375 160 1289 l 246 1375 q 269 1297 247 1322 q 342 1271 292 1271 q 438 1375 438 1271 l 525 1375 q 481 1238 525 1289 q 342 1186 438 1186 z "},"Ẳ":{"ha":683,"x_min":26,"x_max":657,"o":"m 265 1125 l 417 1125 l 657 0 l 508 0 l 457 283 l 228 283 l 174 0 l 26 0 l 265 1125 m 436 396 l 342 903 l 249 396 l 436 396 m 300 1458 q 351 1496 335 1478 q 367 1539 367 1514 q 348 1580 367 1567 q 299 1593 329 1593 q 235 1583 264 1593 l 235 1658 q 336 1672 282 1672 q 438 1642 399 1672 q 478 1551 478 1611 q 347 1403 478 1456 l 300 1458 m 342 1213 q 203 1264 247 1213 q 160 1401 160 1315 l 246 1401 q 269 1323 247 1349 q 342 1297 292 1297 q 438 1401 438 1297 l 525 1401 q 481 1264 525 1315 q 342 1213 438 1213 z "},"Ẵ":{"ha":683,"x_min":26,"x_max":657,"o":"m 265 1125 l 417 1125 l 657 0 l 508 0 l 457 283 l 228 283 l 174 0 l 26 0 l 265 1125 m 436 396 l 342 903 l 249 396 l 436 396 m 340 1213 q 202 1264 246 1213 q 158 1401 158 1315 l 244 1401 q 268 1323 246 1349 q 340 1297 290 1297 q 436 1401 436 1297 l 524 1401 q 480 1264 524 1315 q 340 1213 436 1213 m 447 1469 q 397 1479 419 1469 q 344 1507 374 1489 q 300 1530 317 1522 q 265 1538 283 1538 q 229 1524 240 1538 q 218 1481 218 1511 l 133 1481 q 244 1631 133 1631 q 290 1622 268 1631 q 339 1596 311 1613 q 384 1572 367 1579 q 421 1564 401 1564 q 456 1577 446 1564 q 467 1622 467 1590 l 550 1622 q 527 1510 550 1551 q 447 1469 504 1469 z "},"Â":{"ha":683,"x_min":26,"x_max":657,"o":"m 265 1125 l 417 1125 l 657 0 l 508 0 l 457 283 l 228 283 l 174 0 l 26 0 l 265 1125 m 436 396 l 342 903 l 249 396 l 436 396 m 265 1447 l 417 1447 l 538 1204 l 425 1204 l 340 1372 l 257 1204 l 146 1204 l 265 1447 z "},"Ấ":{"ha":683,"x_min":26,"x_max":721,"o":"m 265 1125 l 417 1125 l 657 0 l 508 0 l 457 283 l 228 283 l 174 0 l 26 0 l 265 1125 m 436 396 l 342 903 l 249 396 l 436 396 m 592 1508 l 721 1508 l 610 1349 l 518 1349 l 592 1508 m 265 1419 l 417 1419 l 538 1204 l 425 1204 l 340 1344 l 257 1204 l 146 1204 l 265 1419 z "},"Ậ":{"ha":683,"x_min":26,"x_max":657,"o":"m 265 1125 l 417 1125 l 657 0 l 508 0 l 457 283 l 228 283 l 174 0 l 26 0 l 265 1125 m 436 396 l 342 903 l 249 396 l 436 396 m 265 1419 l 417 1419 l 538 1204 l 425 1204 l 340 1344 l 257 1204 l 146 1204 l 265 1419 m 267 -87 l 417 -87 l 417 -244 l 267 -244 l 267 -87 z "},"Ầ":{"ha":683,"x_min":26,"x_max":657,"o":"m 265 1125 l 417 1125 l 657 0 l 508 0 l 457 283 l 228 283 l 174 0 l 26 0 l 265 1125 m 436 396 l 342 903 l 249 396 l 436 396 m 442 1508 l 571 1508 l 644 1349 l 553 1349 l 442 1508 m 265 1419 l 417 1419 l 538 1204 l 425 1204 l 340 1344 l 257 1204 l 146 1204 l 265 1419 z "},"Ẩ":{"ha":683,"x_min":26,"x_max":682,"o":"m 265 1125 l 417 1125 l 657 0 l 508 0 l 457 283 l 228 283 l 174 0 l 26 0 l 265 1125 m 436 396 l 342 903 l 249 396 l 436 396 m 504 1374 q 555 1411 539 1393 q 571 1454 571 1429 q 552 1495 571 1482 q 503 1508 533 1508 q 439 1499 468 1508 l 439 1574 q 540 1588 486 1588 q 642 1557 603 1588 q 682 1467 682 1526 q 649 1377 682 1410 q 551 1318 615 1344 l 504 1374 m 265 1419 l 417 1419 l 538 1204 l 425 1204 l 340 1344 l 257 1204 l 146 1204 l 265 1419 z "},"Ẫ":{"ha":683,"x_min":26,"x_max":657,"o":"m 265 1125 l 417 1125 l 657 0 l 508 0 l 457 283 l 228 283 l 174 0 l 26 0 l 265 1125 m 436 396 l 342 903 l 249 396 l 436 396 m 265 1419 l 417 1419 l 538 1204 l 425 1204 l 340 1344 l 257 1204 l 146 1204 l 265 1419 m 447 1483 q 397 1493 419 1483 q 344 1521 374 1503 q 300 1544 317 1536 q 265 1551 283 1551 q 229 1538 240 1551 q 218 1494 218 1525 l 133 1494 q 244 1644 133 1644 q 290 1635 268 1644 q 339 1610 311 1626 q 384 1585 367 1593 q 421 1578 401 1578 q 456 1591 446 1578 q 467 1636 467 1604 l 550 1636 q 527 1524 550 1565 q 447 1483 504 1483 z "},"Ȁ":{"ha":683,"x_min":26,"x_max":657,"o":"m 265 1125 l 417 1125 l 657 0 l 508 0 l 457 283 l 228 283 l 174 0 l 26 0 l 265 1125 m 436 396 l 342 903 l 249 396 l 436 396 m 68 1447 l 218 1447 l 299 1211 l 224 1211 l 68 1447 m 299 1447 l 421 1447 l 476 1211 l 401 1211 l 299 1447 z "},"Ä":{"ha":683,"x_min":26,"x_max":657,"o":"m 265 1125 l 417 1125 l 657 0 l 508 0 l 457 283 l 228 283 l 174 0 l 26 0 l 265 1125 m 436 396 l 342 903 l 249 396 l 436 396 m 147 1447 l 297 1447 l 297 1293 l 147 1293 l 147 1447 m 386 1447 l 536 1447 l 536 1293 l 386 1293 l 386 1447 z "},"Ạ":{"ha":683,"x_min":26,"x_max":657,"o":"m 265 1125 l 417 1125 l 657 0 l 508 0 l 457 283 l 228 283 l 174 0 l 26 0 l 265 1125 m 436 396 l 342 903 l 249 396 l 436 396 m 267 -87 l 417 -87 l 417 -244 l 267 -244 l 267 -87 z "},"À":{"ha":683,"x_min":26,"x_max":657,"o":"m 265 1125 l 417 1125 l 657 0 l 508 0 l 457 283 l 228 283 l 174 0 l 26 0 l 265 1125 m 436 396 l 342 903 l 249 396 l 436 396 m 153 1467 l 301 1467 l 381 1192 l 307 1192 l 153 1467 z "},"Ả":{"ha":683,"x_min":26,"x_max":657,"o":"m 265 1125 l 417 1125 l 657 0 l 508 0 l 457 283 l 228 283 l 174 0 l 26 0 l 265 1125 m 436 396 l 342 903 l 249 396 l 436 396 m 296 1261 q 364 1299 342 1281 q 386 1342 386 1317 q 363 1383 386 1369 q 301 1396 339 1396 q 231 1386 264 1396 l 231 1461 q 343 1475 285 1475 q 454 1444 411 1475 q 497 1354 497 1414 q 458 1265 497 1297 q 343 1206 419 1232 l 296 1261 z "},"Ȃ":{"ha":683,"x_min":26,"x_max":657,"o":"m 265 1125 l 417 1125 l 657 0 l 508 0 l 457 283 l 228 283 l 174 0 l 26 0 l 265 1125 m 436 396 l 342 903 l 249 396 l 436 396 m 158 1240 q 199 1393 160 1339 q 342 1447 239 1447 q 485 1392 444 1447 q 525 1240 525 1338 l 438 1240 q 416 1335 438 1307 q 342 1363 394 1363 q 269 1334 290 1363 q 246 1240 247 1306 l 158 1240 z "},"Ā":{"ha":683,"x_min":26,"x_max":657,"o":"m 265 1125 l 417 1125 l 657 0 l 508 0 l 457 283 l 228 283 l 174 0 l 26 0 l 265 1125 m 436 396 l 342 903 l 249 396 l 436 396 m 208 1364 l 475 1364 l 475 1274 l 208 1274 l 208 1364 z "},"Ą":{"ha":683,"x_min":26,"x_max":675,"o":"m 265 1125 l 417 1125 l 657 0 l 508 0 l 457 283 l 228 283 l 174 0 l 26 0 l 265 1125 m 436 396 l 342 903 l 249 396 l 436 396 m 600 -321 q 458 -297 510 -321 q 407 -201 407 -272 q 430 -116 407 -158 q 489 -42 453 -74 q 561 0 525 -11 l 636 0 q 554 -88 589 -40 q 519 -179 519 -136 q 631 -246 519 -246 q 675 -243 650 -246 l 650 -317 q 600 -321 626 -321 z "},"Å":{"ha":683,"x_min":26,"x_max":657,"o":"m 265 1125 l 417 1125 l 657 0 l 508 0 l 457 283 l 228 283 l 174 0 l 26 0 l 265 1125 m 436 396 l 342 903 l 249 396 l 436 396 m 342 1150 q 229 1192 272 1150 q 186 1306 186 1235 q 228 1418 186 1376 q 342 1460 271 1460 q 455 1418 413 1460 q 497 1306 497 1376 q 454 1192 497 1235 q 342 1150 411 1150 m 342 1225 q 400 1247 378 1225 q 422 1306 422 1268 q 401 1365 422 1343 q 342 1386 379 1386 q 283 1365 304 1386 q 261 1306 261 1344 q 283 1247 261 1268 q 342 1225 304 1225 z "},"Ǻ":{"ha":683,"x_min":26,"x_max":657,"o":"m 265 1125 l 417 1125 l 657 0 l 508 0 l 457 283 l 228 283 l 174 0 l 26 0 l 265 1125 m 436 396 l 342 903 l 249 396 l 436 396 m 342 1150 q 229 1192 272 1150 q 186 1306 186 1235 q 228 1418 186 1376 q 342 1460 271 1460 q 455 1418 413 1460 q 497 1306 497 1376 q 454 1192 497 1235 q 342 1150 411 1150 m 342 1225 q 400 1247 378 1225 q 422 1306 422 1268 q 401 1365 422 1343 q 342 1386 379 1386 q 283 1365 304 1386 q 261 1306 261 1344 q 283 1247 261 1268 q 342 1225 304 1225 m 385 1801 l 533 1801 l 378 1526 l 303 1526 l 385 1801 z "},"Ã":{"ha":683,"x_min":26,"x_max":657,"o":"m 265 1125 l 417 1125 l 657 0 l 508 0 l 457 283 l 228 283 l 174 0 l 26 0 l 265 1125 m 436 396 l 342 903 l 249 396 l 436 396 m 447 1294 q 397 1304 419 1294 q 344 1332 374 1314 q 300 1355 317 1347 q 265 1363 283 1363 q 229 1349 240 1363 q 218 1306 218 1336 l 133 1306 q 244 1456 133 1456 q 290 1447 268 1456 q 339 1421 311 1438 q 384 1397 367 1404 q 421 1389 401 1389 q 456 1402 446 1389 q 467 1447 467 1415 l 550 1447 q 527 1335 550 1376 q 447 1294 504 1294 z "},"Æ":{"ha":882,"x_min":-71,"x_max":840,"o":"m 403 1125 l 840 1125 l 840 1011 l 556 1011 l 556 639 l 760 639 l 760 526 l 556 526 l 556 114 l 840 114 l 840 0 l 406 0 l 406 285 l 199 285 l 79 0 l -71 0 l 403 1125 m 406 397 l 406 840 l 240 397 l 406 397 z "},"Ǽ":{"ha":882,"x_min":-71,"x_max":840,"o":"m 403 1125 l 840 1125 l 840 1011 l 556 1011 l 556 639 l 760 639 l 760 526 l 556 526 l 556 114 l 840 114 l 840 0 l 406 0 l 406 285 l 199 285 l 79 0 l -71 0 l 403 1125 m 406 397 l 406 840 l 240 397 l 406 397 m 524 1467 l 672 1467 l 517 1192 l 442 1192 l 524 1467 z "},"B":{"ha":728,"x_min":88,"x_max":676,"o":"m 88 1125 l 346 1125 q 572 1056 499 1125 q 646 843 646 988 q 485 606 646 628 q 631 512 585 582 q 676 321 676 442 q 605 85 676 169 q 388 0 533 0 l 88 0 l 88 1125 m 338 656 q 472 698 435 656 q 510 843 510 740 q 487 953 510 918 q 418 999 464 989 q 282 1008 372 1008 l 244 1008 l 244 656 l 338 656 m 350 113 q 458 134 419 113 q 511 200 496 156 q 526 321 526 244 q 482 483 526 429 q 338 536 438 536 l 244 536 l 244 113 l 350 113 z "},"Ḃ":{"ha":728,"x_min":88,"x_max":676,"o":"m 88 1125 l 346 1125 q 572 1056 499 1125 q 646 843 646 988 q 485 606 646 628 q 631 512 585 582 q 676 321 676 442 q 605 85 676 169 q 388 0 533 0 l 88 0 l 88 1125 m 338 656 q 472 698 435 656 q 510 843 510 740 q 487 953 510 918 q 418 999 464 989 q 282 1008 372 1008 l 244 1008 l 244 656 l 338 656 m 350 113 q 458 134 419 113 q 511 200 496 156 q 526 321 526 244 q 482 483 526 429 q 338 536 438 536 l 244 536 l 244 113 l 350 113 m 289 1419 l 439 1419 l 439 1254 l 289 1254 l 289 1419 z "},"C":{"ha":715,"x_min":67,"x_max":653,"o":"m 369 -12 q 135 87 203 -12 q 67 361 67 186 l 67 758 q 133 1039 67 943 q 369 1135 200 1135 q 587 1053 521 1135 q 653 811 653 971 l 653 722 l 504 722 l 504 801 q 497 921 504 879 q 462 988 490 963 q 371 1013 433 1013 q 276 985 307 1013 q 235 910 244 958 q 225 782 225 863 l 225 336 q 239 201 225 250 q 284 132 253 153 q 371 111 315 111 q 460 138 431 111 q 497 210 489 164 q 504 335 504 256 l 504 418 l 653 418 l 653 335 q 590 77 653 167 q 369 -12 526 -12 z "},"Ć":{"ha":715,"x_min":67,"x_max":653,"o":"m 369 -12 q 135 87 203 -12 q 67 361 67 186 l 67 758 q 133 1039 67 943 q 369 1135 200 1135 q 587 1053 521 1135 q 653 811 653 971 l 653 722 l 504 722 l 504 801 q 497 921 504 879 q 462 988 490 963 q 371 1013 433 1013 q 276 985 307 1013 q 235 910 244 958 q 225 782 225 863 l 225 336 q 239 201 225 250 q 284 132 253 153 q 371 111 315 111 q 460 138 431 111 q 497 210 489 164 q 504 335 504 256 l 504 418 l 653 418 l 653 335 q 590 77 653 167 q 369 -12 526 -12 m 401 1467 l 550 1467 l 394 1192 l 319 1192 l 401 1467 z "},"Č":{"ha":715,"x_min":67,"x_max":653,"o":"m 369 -12 q 135 87 203 -12 q 67 361 67 186 l 67 758 q 133 1039 67 943 q 369 1135 200 1135 q 587 1053 521 1135 q 653 811 653 971 l 653 722 l 504 722 l 504 801 q 497 921 504 879 q 462 988 490 963 q 371 1013 433 1013 q 276 985 307 1013 q 235 910 244 958 q 225 782 225 863 l 225 336 q 239 201 225 250 q 284 132 253 153 q 371 111 315 111 q 460 138 431 111 q 497 210 489 164 q 504 335 504 256 l 504 418 l 653 418 l 653 335 q 590 77 653 167 q 369 -12 526 -12 m 164 1447 l 278 1447 l 358 1285 l 439 1447 l 553 1447 l 431 1207 l 285 1207 l 164 1447 z "},"Ç":{"ha":715,"x_min":67,"x_max":653,"o":"m 504 722 l 504 801 q 497 921 504 879 q 462 988 490 963 q 371 1013 433 1013 q 276 985 307 1013 q 235 910 244 958 q 225 782 225 863 l 225 336 q 239 201 225 250 q 284 132 253 153 q 371 111 315 111 q 460 138 431 111 q 497 210 489 164 q 504 335 504 256 l 504 418 l 653 418 l 653 335 q 595 85 653 174 q 396 -11 538 -4 l 396 -78 q 508 -110 465 -78 q 550 -197 550 -143 q 502 -294 550 -261 q 376 -326 454 -326 q 283 -312 336 -326 l 283 -237 q 354 -247 317 -247 q 415 -234 392 -247 q 439 -193 439 -221 q 410 -141 439 -158 q 321 -115 382 -124 l 321 -10 q 124 103 182 6 q 67 361 67 200 l 67 758 q 133 1039 67 943 q 369 1135 200 1135 q 587 1053 521 1135 q 653 811 653 971 l 653 722 l 504 722 z "},"Ĉ":{"ha":715,"x_min":67,"x_max":653,"o":"m 369 -12 q 135 87 203 -12 q 67 361 67 186 l 67 758 q 133 1039 67 943 q 369 1135 200 1135 q 587 1053 521 1135 q 653 811 653 971 l 653 722 l 504 722 l 504 801 q 497 921 504 879 q 462 988 490 963 q 371 1013 433 1013 q 276 985 307 1013 q 235 910 244 958 q 225 782 225 863 l 225 336 q 239 201 225 250 q 284 132 253 153 q 371 111 315 111 q 460 138 431 111 q 497 210 489 164 q 504 335 504 256 l 504 418 l 653 418 l 653 335 q 590 77 653 167 q 369 -12 526 -12 m 282 1447 l 433 1447 l 554 1204 l 442 1204 l 357 1372 l 274 1204 l 163 1204 l 282 1447 z "},"Ċ":{"ha":715,"x_min":67,"x_max":653,"o":"m 369 -12 q 135 87 203 -12 q 67 361 67 186 l 67 758 q 133 1039 67 943 q 369 1135 200 1135 q 587 1053 521 1135 q 653 811 653 971 l 653 722 l 504 722 l 504 801 q 497 921 504 879 q 462 988 490 963 q 371 1013 433 1013 q 276 985 307 1013 q 235 910 244 958 q 225 782 225 863 l 225 336 q 239 201 225 250 q 284 132 253 153 q 371 111 315 111 q 460 138 431 111 q 497 210 489 164 q 504 335 504 256 l 504 418 l 653 418 l 653 335 q 590 77 653 167 q 369 -12 526 -12 m 283 1419 l 433 1419 l 433 1254 l 283 1254 l 283 1419 z "},"D":{"ha":732,"x_min":88,"x_max":665,"o":"m 88 1125 l 332 1125 q 590 1042 514 1125 q 665 782 665 958 l 665 368 q 591 91 665 182 q 344 0 517 0 l 88 0 l 88 1125 m 333 113 q 452 144 415 113 q 498 231 489 176 q 507 397 507 286 l 507 763 q 495 909 507 858 q 446 984 483 960 q 329 1008 408 1008 l 244 1008 l 244 113 l 333 113 z "},"Ǳ":{"ha":1311,"x_min":88,"x_max":1282,"o":"m 88 1125 l 332 1125 q 590 1042 514 1125 q 665 782 665 958 l 665 368 q 591 91 665 182 q 344 0 517 0 l 88 0 l 88 1125 m 333 113 q 452 144 415 113 q 498 231 489 176 q 507 397 507 286 l 507 763 q 495 909 507 858 q 446 984 483 960 q 329 1008 408 1008 l 244 1008 l 244 113 l 333 113 m 785 113 l 1115 1013 l 806 1013 l 806 1125 l 1282 1125 l 1282 1057 l 933 113 l 1282 113 l 1282 0 l 785 0 l 785 113 z "},"Ǆ":{"ha":1311,"x_min":88,"x_max":1282,"o":"m 88 1125 l 332 1125 q 590 1042 514 1125 q 665 782 665 958 l 665 368 q 591 91 665 182 q 344 0 517 0 l 88 0 l 88 1125 m 333 113 q 452 144 415 113 q 498 231 489 176 q 507 397 507 286 l 507 763 q 495 909 507 858 q 446 984 483 960 q 329 1008 408 1008 l 244 1008 l 244 113 l 333 113 m 785 113 l 1115 1013 l 806 1013 l 806 1125 l 1282 1125 l 1282 1057 l 933 113 l 1282 113 l 1282 0 l 785 0 l 785 113 m 828 1447 l 942 1447 l 1022 1285 l 1103 1447 l 1217 1447 l 1094 1207 l 949 1207 l 828 1447 z "},"Ð":{"ha":719,"x_min":19,"x_max":665,"o":"m 88 539 l 19 539 l 19 629 l 88 629 l 88 1125 l 332 1125 q 590 1042 514 1125 q 665 782 665 958 l 665 368 q 591 91 665 182 q 344 0 517 0 l 88 0 l 88 539 m 333 113 q 452 144 415 113 q 498 231 489 176 q 507 397 507 286 l 507 763 q 495 909 507 858 q 446 984 483 960 q 329 1008 408 1008 l 244 1008 l 244 629 l 329 629 l 329 539 l 244 539 l 244 113 l 333 113 z "},"Ď":{"ha":732,"x_min":88,"x_max":665,"o":"m 88 1125 l 332 1125 q 590 1042 514 1125 q 665 782 665 958 l 665 368 q 591 91 665 182 q 344 0 517 0 l 88 0 l 88 1125 m 333 113 q 452 144 415 113 q 498 231 489 176 q 507 397 507 286 l 507 763 q 495 909 507 858 q 446 984 483 960 q 329 1008 408 1008 l 244 1008 l 244 113 l 333 113 m 172 1447 l 286 1447 l 367 1285 l 447 1447 l 561 1447 l 439 1207 l 293 1207 l 172 1447 z "},"Đ":{"ha":735,"x_min":24,"x_max":667,"o":"m 90 539 l 24 539 l 24 629 l 90 629 l 90 1125 l 336 1125 q 532 1088 460 1125 q 635 975 604 1050 q 667 782 667 900 l 667 368 q 593 91 667 182 q 347 0 519 0 l 90 0 l 90 539 m 336 113 q 455 144 418 113 q 501 231 492 176 q 510 397 510 286 l 510 763 q 498 909 510 858 q 449 984 486 960 q 332 1008 411 1008 l 249 1008 l 249 629 l 332 629 l 332 539 l 249 539 l 249 113 l 336 113 z "},"Ḋ":{"ha":732,"x_min":88,"x_max":665,"o":"m 88 1125 l 332 1125 q 590 1042 514 1125 q 665 782 665 958 l 665 368 q 591 91 665 182 q 344 0 517 0 l 88 0 l 88 1125 m 333 113 q 452 144 415 113 q 498 231 489 176 q 507 397 507 286 l 507 763 q 495 909 507 858 q 446 984 483 960 q 329 1008 408 1008 l 244 1008 l 244 113 l 333 113 m 292 1419 l 442 1419 l 442 1254 l 292 1254 l 292 1419 z "},"ǲ":{"ha":1214,"x_min":88,"x_max":1182,"o":"m 88 1125 l 332 1125 q 590 1042 514 1125 q 665 782 665 958 l 665 368 q 591 91 665 182 q 344 0 517 0 l 88 0 l 88 1125 m 333 113 q 452 144 415 113 q 498 231 489 176 q 507 397 507 286 l 507 763 q 495 909 507 858 q 446 984 483 960 q 329 1008 408 1008 l 244 1008 l 244 113 l 333 113 m 776 100 l 1022 692 l 801 692 l 801 803 l 1182 803 l 1182 722 l 935 113 l 1176 113 l 1176 0 l 776 0 l 776 100 z "},"ǅ":{"ha":1214,"x_min":88,"x_max":1182,"o":"m 88 1125 l 332 1125 q 590 1042 514 1125 q 665 782 665 958 l 665 368 q 591 91 665 182 q 344 0 517 0 l 88 0 l 88 1125 m 333 113 q 452 144 415 113 q 498 231 489 176 q 507 397 507 286 l 507 763 q 495 909 507 858 q 446 984 483 960 q 329 1008 408 1008 l 244 1008 l 244 113 l 333 113 m 776 100 l 1022 692 l 801 692 l 801 803 l 1182 803 l 1182 722 l 935 113 l 1176 113 l 1176 0 l 776 0 l 776 100 m 779 1125 l 893 1125 l 974 963 l 1054 1125 l 1168 1125 l 1046 885 l 900 885 l 779 1125 z "},"E":{"ha":565,"x_min":88,"x_max":526,"o":"m 88 1125 l 524 1125 l 524 1008 l 244 1008 l 244 636 l 471 636 l 471 525 l 244 525 l 244 113 l 526 113 l 526 0 l 88 0 l 88 1125 z "},"É":{"ha":565,"x_min":88,"x_max":526,"o":"m 88 1125 l 524 1125 l 524 1008 l 244 1008 l 244 636 l 471 636 l 471 525 l 244 525 l 244 113 l 526 113 l 526 0 l 88 0 l 88 1125 m 354 1467 l 503 1467 l 347 1192 l 272 1192 l 354 1467 z "},"Ĕ":{"ha":565,"x_min":88,"x_max":526,"o":"m 88 1125 l 524 1125 l 524 1008 l 244 1008 l 244 636 l 471 636 l 471 525 l 244 525 l 244 113 l 526 113 l 526 0 l 88 0 l 88 1125 m 311 1213 q 173 1264 217 1213 q 129 1401 129 1315 l 215 1401 q 239 1323 217 1349 q 311 1297 261 1297 q 407 1401 407 1297 l 494 1401 q 451 1264 494 1315 q 311 1213 407 1213 z "},"Ě":{"ha":565,"x_min":88,"x_max":526,"o":"m 88 1125 l 524 1125 l 524 1008 l 244 1008 l 244 636 l 471 636 l 471 525 l 244 525 l 244 113 l 526 113 l 526 0 l 88 0 l 88 1125 m 117 1447 l 231 1447 l 311 1285 l 392 1447 l 506 1447 l 383 1207 l 238 1207 l 117 1447 z "},"Ê":{"ha":565,"x_min":88,"x_max":526,"o":"m 88 1125 l 524 1125 l 524 1008 l 244 1008 l 244 636 l 471 636 l 471 525 l 244 525 l 244 113 l 526 113 l 526 0 l 88 0 l 88 1125 m 235 1447 l 386 1447 l 507 1204 l 394 1204 l 310 1372 l 226 1204 l 115 1204 l 235 1447 z "},"Ế":{"ha":565,"x_min":88,"x_max":690,"o":"m 88 1125 l 524 1125 l 524 1008 l 244 1008 l 244 636 l 471 636 l 471 525 l 244 525 l 244 113 l 526 113 l 526 0 l 88 0 l 88 1125 m 561 1508 l 690 1508 l 579 1349 l 488 1349 l 561 1508 m 235 1419 l 386 1419 l 507 1204 l 394 1204 l 310 1344 l 226 1204 l 115 1204 l 235 1419 z "},"Ệ":{"ha":565,"x_min":88,"x_max":526,"o":"m 88 1125 l 524 1125 l 524 1008 l 244 1008 l 244 636 l 471 636 l 471 525 l 244 525 l 244 113 l 526 113 l 526 0 l 88 0 l 88 1125 m 235 1419 l 386 1419 l 507 1204 l 394 1204 l 310 1344 l 226 1204 l 115 1204 l 235 1419 m 208 -87 l 358 -87 l 358 -244 l 208 -244 l 208 -87 z "},"Ề":{"ha":565,"x_min":88,"x_max":614,"o":"m 88 1125 l 524 1125 l 524 1008 l 244 1008 l 244 636 l 471 636 l 471 525 l 244 525 l 244 113 l 526 113 l 526 0 l 88 0 l 88 1125 m 411 1508 l 540 1508 l 614 1349 l 522 1349 l 411 1508 m 235 1419 l 386 1419 l 507 1204 l 394 1204 l 310 1344 l 226 1204 l 115 1204 l 235 1419 z "},"Ể":{"ha":565,"x_min":88,"x_max":651,"o":"m 88 1125 l 524 1125 l 524 1008 l 244 1008 l 244 636 l 471 636 l 471 525 l 244 525 l 244 113 l 526 113 l 526 0 l 88 0 l 88 1125 m 474 1374 q 524 1411 508 1393 q 540 1454 540 1429 q 522 1495 540 1482 q 472 1508 503 1508 q 408 1499 438 1508 l 408 1574 q 510 1588 456 1588 q 612 1557 572 1588 q 651 1467 651 1526 q 618 1377 651 1410 q 521 1318 585 1344 l 474 1374 m 235 1419 l 386 1419 l 507 1204 l 394 1204 l 310 1344 l 226 1204 l 115 1204 l 235 1419 z "},"Ễ":{"ha":565,"x_min":88,"x_max":526,"o":"m 88 1125 l 524 1125 l 524 1008 l 244 1008 l 244 636 l 471 636 l 471 525 l 244 525 l 244 113 l 526 113 l 526 0 l 88 0 l 88 1125 m 235 1419 l 386 1419 l 507 1204 l 394 1204 l 310 1344 l 226 1204 l 115 1204 l 235 1419 m 417 1483 q 366 1493 389 1483 q 314 1521 343 1503 q 269 1544 286 1536 q 235 1551 253 1551 q 199 1538 210 1551 q 188 1494 188 1525 l 103 1494 q 214 1644 103 1644 q 259 1635 238 1644 q 308 1610 281 1626 q 353 1585 336 1593 q 390 1578 371 1578 q 426 1591 415 1578 q 436 1636 436 1604 l 519 1636 q 497 1524 519 1565 q 417 1483 474 1483 z "},"Ȅ":{"ha":565,"x_min":38,"x_max":526,"o":"m 88 1125 l 524 1125 l 524 1008 l 244 1008 l 244 636 l 471 636 l 471 525 l 244 525 l 244 113 l 526 113 l 526 0 l 88 0 l 88 1125 m 38 1447 l 188 1447 l 268 1211 l 193 1211 l 38 1447 m 268 1447 l 390 1447 l 446 1211 l 371 1211 l 268 1447 z "},"Ë":{"ha":565,"x_min":88,"x_max":526,"o":"m 88 1125 l 524 1125 l 524 1008 l 244 1008 l 244 636 l 471 636 l 471 525 l 244 525 l 244 113 l 526 113 l 526 0 l 88 0 l 88 1125 m 117 1447 l 267 1447 l 267 1293 l 117 1293 l 117 1447 m 356 1447 l 506 1447 l 506 1293 l 356 1293 l 356 1447 z "},"Ė":{"ha":565,"x_min":88,"x_max":526,"o":"m 88 1125 l 524 1125 l 524 1008 l 244 1008 l 244 636 l 471 636 l 471 525 l 244 525 l 244 113 l 526 113 l 526 0 l 88 0 l 88 1125 m 236 1419 l 386 1419 l 386 1254 l 236 1254 l 236 1419 z "},"Ẹ":{"ha":565,"x_min":88,"x_max":526,"o":"m 88 1125 l 524 1125 l 524 1008 l 244 1008 l 244 636 l 471 636 l 471 525 l 244 525 l 244 113 l 526 113 l 526 0 l 88 0 l 88 1125 m 208 -87 l 358 -87 l 358 -244 l 208 -244 l 208 -87 z "},"È":{"ha":565,"x_min":88,"x_max":526,"o":"m 88 1125 l 524 1125 l 524 1008 l 244 1008 l 244 636 l 471 636 l 471 525 l 244 525 l 244 113 l 526 113 l 526 0 l 88 0 l 88 1125 m 122 1467 l 271 1467 l 350 1192 l 276 1192 l 122 1467 z "},"Ẻ":{"ha":565,"x_min":88,"x_max":526,"o":"m 88 1125 l 524 1125 l 524 1008 l 244 1008 l 244 636 l 471 636 l 471 525 l 244 525 l 244 113 l 526 113 l 526 0 l 88 0 l 88 1125 m 265 1261 q 333 1299 311 1281 q 356 1342 356 1317 q 332 1383 356 1369 q 271 1396 308 1396 q 200 1386 233 1396 l 200 1461 q 313 1475 254 1475 q 424 1444 381 1475 q 467 1354 467 1414 q 428 1265 467 1297 q 313 1206 389 1232 l 265 1261 z "},"Ȇ":{"ha":565,"x_min":88,"x_max":526,"o":"m 88 1125 l 524 1125 l 524 1008 l 244 1008 l 244 636 l 471 636 l 471 525 l 244 525 l 244 113 l 526 113 l 526 0 l 88 0 l 88 1125 m 128 1240 q 169 1393 129 1339 q 311 1447 208 1447 q 454 1392 414 1447 q 494 1240 494 1338 l 407 1240 q 385 1335 407 1307 q 311 1363 364 1363 q 238 1334 260 1363 q 215 1240 217 1306 l 128 1240 z "},"Ē":{"ha":565,"x_min":88,"x_max":526,"o":"m 88 1125 l 524 1125 l 524 1008 l 244 1008 l 244 636 l 471 636 l 471 525 l 244 525 l 244 113 l 526 113 l 526 0 l 88 0 l 88 1125 m 178 1364 l 444 1364 l 444 1274 l 178 1274 l 178 1364 z "},"Ę":{"ha":565,"x_min":88,"x_max":526,"o":"m 88 1125 l 524 1125 l 524 1008 l 244 1008 l 244 636 l 471 636 l 471 525 l 244 525 l 244 113 l 526 113 l 526 0 l 88 0 l 88 1125 m 442 -321 q 300 -297 351 -321 q 249 -201 249 -272 q 272 -116 249 -158 q 331 -42 294 -74 q 403 0 367 -11 l 478 0 q 396 -88 431 -40 q 361 -179 361 -136 q 472 -246 361 -246 q 517 -243 492 -246 l 492 -317 q 442 -321 468 -321 z "},"Ẽ":{"ha":565,"x_min":88,"x_max":526,"o":"m 88 1125 l 524 1125 l 524 1008 l 244 1008 l 244 636 l 471 636 l 471 525 l 244 525 l 244 113 l 526 113 l 526 0 l 88 0 l 88 1125 m 417 1294 q 366 1304 389 1294 q 314 1332 343 1314 q 269 1355 286 1347 q 235 1363 253 1363 q 199 1349 210 1363 q 188 1306 188 1336 l 103 1306 q 214 1456 103 1456 q 259 1447 238 1456 q 308 1421 281 1438 q 353 1397 336 1404 q 390 1389 371 1389 q 426 1402 415 1389 q 436 1447 436 1415 l 519 1447 q 497 1335 519 1376 q 417 1294 474 1294 z "},"F":{"ha":543,"x_min":88,"x_max":522,"o":"m 88 1125 l 522 1125 l 522 1013 l 244 1013 l 244 638 l 460 638 l 460 526 l 244 526 l 244 0 l 88 0 l 88 1125 z "},"Ḟ":{"ha":543,"x_min":88,"x_max":522,"o":"m 88 1125 l 522 1125 l 522 1013 l 244 1013 l 244 638 l 460 638 l 460 526 l 244 526 l 244 0 l 88 0 l 88 1125 m 197 1419 l 347 1419 l 347 1254 l 197 1254 l 197 1419 z "},"G":{"ha":743,"x_min":67,"x_max":669,"o":"m 356 -14 q 135 83 203 -14 q 67 369 67 179 l 67 746 q 94 960 67 876 q 187 1090 121 1044 q 368 1135 253 1135 q 592 1056 524 1135 q 661 807 661 976 l 661 765 l 514 765 l 514 800 q 504 924 514 881 q 463 990 494 968 q 371 1013 432 1013 q 274 983 306 1013 q 233 903 242 953 q 224 769 224 853 l 224 353 q 255 167 224 224 q 375 111 286 111 q 495 172 463 111 q 528 368 528 233 l 528 446 l 385 446 l 385 557 l 669 557 l 669 0 l 571 0 l 556 129 q 356 -14 503 -14 z "},"Ǵ":{"ha":743,"x_min":67,"x_max":669,"o":"m 356 -14 q 135 83 203 -14 q 67 369 67 179 l 67 746 q 94 960 67 876 q 187 1090 121 1044 q 368 1135 253 1135 q 592 1056 524 1135 q 661 807 661 976 l 661 765 l 514 765 l 514 800 q 504 924 514 881 q 463 990 494 968 q 371 1013 432 1013 q 274 983 306 1013 q 233 903 242 953 q 224 769 224 853 l 224 353 q 255 167 224 224 q 375 111 286 111 q 495 172 463 111 q 528 368 528 233 l 528 446 l 385 446 l 385 557 l 669 557 l 669 0 l 571 0 l 556 129 q 356 -14 503 -14 m 415 1467 l 564 1467 l 408 1192 l 333 1192 l 415 1467 z "},"Ğ":{"ha":743,"x_min":67,"x_max":669,"o":"m 356 -14 q 135 83 203 -14 q 67 369 67 179 l 67 746 q 94 960 67 876 q 187 1090 121 1044 q 368 1135 253 1135 q 592 1056 524 1135 q 661 807 661 976 l 661 765 l 514 765 l 514 800 q 504 924 514 881 q 463 990 494 968 q 371 1013 432 1013 q 274 983 306 1013 q 233 903 242 953 q 224 769 224 853 l 224 353 q 255 167 224 224 q 375 111 286 111 q 495 172 463 111 q 528 368 528 233 l 528 446 l 385 446 l 385 557 l 669 557 l 669 0 l 571 0 l 556 129 q 356 -14 503 -14 m 372 1213 q 234 1264 278 1213 q 190 1401 190 1315 l 276 1401 q 300 1323 278 1349 q 372 1297 322 1297 q 468 1401 468 1297 l 556 1401 q 512 1264 556 1315 q 372 1213 468 1213 z "},"Ǧ":{"ha":743,"x_min":67,"x_max":669,"o":"m 356 -14 q 135 83 203 -14 q 67 369 67 179 l 67 746 q 94 960 67 876 q 187 1090 121 1044 q 368 1135 253 1135 q 592 1056 524 1135 q 661 807 661 976 l 661 765 l 514 765 l 514 800 q 504 924 514 881 q 463 990 494 968 q 371 1013 432 1013 q 274 983 306 1013 q 233 903 242 953 q 224 769 224 853 l 224 353 q 255 167 224 224 q 375 111 286 111 q 495 172 463 111 q 528 368 528 233 l 528 446 l 385 446 l 385 557 l 669 557 l 669 0 l 571 0 l 556 129 q 356 -14 503 -14 m 178 1447 l 292 1447 l 372 1285 l 453 1447 l 567 1447 l 444 1207 l 299 1207 l 178 1447 z "},"Ĝ":{"ha":743,"x_min":67,"x_max":669,"o":"m 356 -14 q 135 83 203 -14 q 67 369 67 179 l 67 746 q 94 960 67 876 q 187 1090 121 1044 q 368 1135 253 1135 q 592 1056 524 1135 q 661 807 661 976 l 661 765 l 514 765 l 514 800 q 504 924 514 881 q 463 990 494 968 q 371 1013 432 1013 q 274 983 306 1013 q 233 903 242 953 q 224 769 224 853 l 224 353 q 255 167 224 224 q 375 111 286 111 q 495 172 463 111 q 528 368 528 233 l 528 446 l 385 446 l 385 557 l 669 557 l 669 0 l 571 0 l 556 129 q 356 -14 503 -14 m 296 1447 l 447 1447 l 568 1204 l 456 1204 l 371 1372 l 288 1204 l 176 1204 l 296 1447 z "},"Ģ":{"ha":743,"x_min":67,"x_max":669,"o":"m 356 -14 q 135 83 203 -14 q 67 369 67 179 l 67 746 q 94 960 67 876 q 187 1090 121 1044 q 368 1135 253 1135 q 592 1056 524 1135 q 661 807 661 976 l 661 765 l 514 765 l 514 800 q 504 924 514 881 q 463 990 494 968 q 371 1013 432 1013 q 274 983 306 1013 q 233 903 242 953 q 224 769 224 853 l 224 353 q 255 167 224 224 q 375 111 286 111 q 495 172 463 111 q 528 368 528 233 l 528 446 l 385 446 l 385 557 l 669 557 l 669 0 l 571 0 l 556 129 q 356 -14 503 -14 m 296 -325 q 356 -301 338 -322 q 374 -239 374 -281 l 297 -239 l 297 -87 l 449 -87 l 447 -231 q 423 -355 446 -314 q 333 -399 400 -396 l 296 -325 z "},"Ġ":{"ha":743,"x_min":67,"x_max":669,"o":"m 356 -14 q 135 83 203 -14 q 67 369 67 179 l 67 746 q 94 960 67 876 q 187 1090 121 1044 q 368 1135 253 1135 q 592 1056 524 1135 q 661 807 661 976 l 661 765 l 514 765 l 514 800 q 504 924 514 881 q 463 990 494 968 q 371 1013 432 1013 q 274 983 306 1013 q 233 903 242 953 q 224 769 224 853 l 224 353 q 255 167 224 224 q 375 111 286 111 q 495 172 463 111 q 528 368 528 233 l 528 446 l 385 446 l 385 557 l 669 557 l 669 0 l 571 0 l 556 129 q 356 -14 503 -14 m 297 1419 l 447 1419 l 447 1254 l 297 1254 l 297 1419 z "},"H":{"ha":779,"x_min":88,"x_max":690,"o":"m 88 1125 l 244 1125 l 244 639 l 533 639 l 533 1125 l 690 1125 l 690 0 l 533 0 l 533 526 l 244 526 l 244 0 l 88 0 l 88 1125 z "},"Ħ":{"ha":779,"x_min":22,"x_max":756,"o":"m 88 860 l 22 860 l 22 940 l 88 940 l 88 1125 l 244 1125 l 244 940 l 533 940 l 533 1125 l 690 1125 l 690 940 l 756 940 l 756 860 l 690 860 l 690 0 l 533 0 l 533 526 l 244 526 l 244 0 l 88 0 l 88 860 m 533 639 l 533 860 l 244 860 l 244 639 l 533 639 z "},"Ĥ":{"ha":779,"x_min":88,"x_max":690,"o":"m 88 1125 l 244 1125 l 244 639 l 533 639 l 533 1125 l 690 1125 l 690 0 l 533 0 l 533 526 l 244 526 l 244 0 l 88 0 l 88 1125 m 314 1447 l 465 1447 l 586 1204 l 474 1204 l 389 1372 l 306 1204 l 194 1204 l 314 1447 z "},"I":{"ha":344,"x_min":96,"x_max":250,"o":"m 96 1125 l 250 1125 l 250 0 l 96 0 l 96 1125 z "},"Ĳ":{"ha":763,"x_min":96,"x_max":674,"o":"m 96 1125 l 250 1125 l 250 0 l 96 0 l 96 1125 m 354 86 q 459 99 425 86 q 506 148 493 113 q 518 257 518 183 l 518 1125 l 674 1125 l 674 254 q 653 92 674 153 q 578 3 632 32 q 429 -26 525 -26 l 354 -26 l 354 86 z "},"Í":{"ha":344,"x_min":96,"x_max":364,"o":"m 96 1125 l 250 1125 l 250 0 l 96 0 l 96 1125 m 215 1467 l 364 1467 l 208 1192 l 133 1192 l 215 1467 z "},"Ĭ":{"ha":344,"x_min":-10,"x_max":356,"o":"m 96 1125 l 250 1125 l 250 0 l 96 0 l 96 1125 m 172 1213 q 34 1264 78 1213 q -10 1401 -10 1315 l 76 1401 q 100 1323 78 1349 q 172 1297 122 1297 q 268 1401 268 1297 l 356 1401 q 312 1264 356 1315 q 172 1213 268 1213 z "},"Î":{"ha":344,"x_min":-24,"x_max":368,"o":"m 96 1125 l 250 1125 l 250 0 l 96 0 l 96 1125 m 96 1447 l 247 1447 l 368 1204 l 256 1204 l 171 1372 l 88 1204 l -24 1204 l 96 1447 z "},"Ȉ":{"ha":344,"x_min":-101,"x_max":307,"o":"m 96 1125 l 250 1125 l 250 0 l 96 0 l 96 1125 m -101 1447 l 49 1447 l 129 1211 l 54 1211 l -101 1447 m 129 1447 l 251 1447 l 307 1211 l 232 1211 l 129 1447 z "},"Ï":{"ha":344,"x_min":-22,"x_max":367,"o":"m 96 1125 l 250 1125 l 250 0 l 96 0 l 96 1125 m -22 1447 l 128 1447 l 128 1293 l -22 1293 l -22 1447 m 217 1447 l 367 1447 l 367 1293 l 217 1293 l 217 1447 z "},"İ":{"ha":344,"x_min":96,"x_max":250,"o":"m 96 1125 l 250 1125 l 250 0 l 96 0 l 96 1125 m 97 1419 l 247 1419 l 247 1254 l 97 1254 l 97 1419 z "},"Ị":{"ha":344,"x_min":96,"x_max":250,"o":"m 96 1125 l 250 1125 l 250 0 l 96 0 l 96 1125 m 97 -87 l 247 -87 l 247 -244 l 97 -244 l 97 -87 z "},"Ì":{"ha":344,"x_min":-17,"x_max":250,"o":"m 96 1125 l 250 1125 l 250 0 l 96 0 l 96 1125 m -17 1467 l 132 1467 l 211 1192 l 138 1192 l -17 1467 z "},"Ỉ":{"ha":344,"x_min":61,"x_max":328,"o":"m 96 1125 l 250 1125 l 250 0 l 96 0 l 96 1125 m 126 1261 q 194 1299 172 1281 q 217 1342 217 1317 q 193 1383 217 1369 q 132 1396 169 1396 q 61 1386 94 1396 l 61 1461 q 174 1475 115 1475 q 285 1444 242 1475 q 328 1354 328 1414 q 289 1265 328 1297 q 174 1206 250 1232 l 126 1261 z "},"Ȋ":{"ha":344,"x_min":-11,"x_max":356,"o":"m 96 1125 l 250 1125 l 250 0 l 96 0 l 96 1125 m -11 1240 q 30 1393 -10 1339 q 172 1447 69 1447 q 315 1392 275 1447 q 356 1240 356 1338 l 268 1240 q 247 1335 268 1307 q 172 1363 225 1363 q 99 1334 121 1363 q 76 1240 78 1306 l -11 1240 z "},"Ī":{"ha":344,"x_min":39,"x_max":306,"o":"m 96 1125 l 250 1125 l 250 0 l 96 0 l 96 1125 m 39 1364 l 306 1364 l 306 1274 l 39 1274 l 39 1364 z "},"Į":{"ha":344,"x_min":-17,"x_max":251,"o":"m 96 1125 l 250 1125 l 250 0 l 96 0 l 96 1125 m 176 -321 q 35 -297 86 -321 q -17 -201 -17 -272 q 6 -116 -17 -158 q 65 -42 29 -74 q 138 0 101 -11 l 213 0 q 131 -88 165 -40 q 96 -179 96 -136 q 207 -246 96 -246 q 251 -243 226 -246 l 226 -317 q 176 -321 203 -321 z "},"Ĩ":{"ha":344,"x_min":-36,"x_max":381,"o":"m 96 1125 l 250 1125 l 250 0 l 96 0 l 96 1125 m 278 1294 q 227 1304 250 1294 q 175 1332 204 1314 q 131 1355 147 1347 q 96 1363 114 1363 q 60 1349 71 1363 q 49 1306 49 1336 l -36 1306 q 75 1456 -36 1456 q 120 1447 99 1456 q 169 1421 142 1438 q 215 1397 197 1404 q 251 1389 232 1389 q 287 1402 276 1389 q 297 1447 297 1415 l 381 1447 q 358 1335 381 1376 q 278 1294 335 1294 z "},"J":{"ha":418,"x_min":10,"x_max":329,"o":"m 10 86 q 115 99 81 86 q 161 148 149 113 q 174 257 174 183 l 174 1125 l 329 1125 l 329 254 q 308 92 329 153 q 234 3 288 32 q 85 -26 181 -26 l 10 -26 l 10 86 z "},"Ĵ":{"ha":418,"x_min":10,"x_max":447,"o":"m 10 86 q 115 99 81 86 q 161 148 149 113 q 174 257 174 183 l 174 1125 l 329 1125 l 329 254 q 308 92 329 153 q 234 3 288 32 q 85 -26 181 -26 l 10 -26 l 10 86 m 175 1447 l 326 1447 l 447 1204 l 335 1204 l 250 1372 l 167 1204 l 56 1204 l 175 1447 z "},"K":{"ha":688,"x_min":88,"x_max":685,"o":"m 88 1125 l 244 1125 l 244 594 l 503 1125 l 649 1125 l 426 629 l 685 0 l 532 0 l 317 528 l 244 397 l 244 0 l 88 0 l 88 1125 z "},"Ķ":{"ha":688,"x_min":88,"x_max":685,"o":"m 88 1125 l 244 1125 l 244 594 l 503 1125 l 649 1125 l 426 629 l 685 0 l 532 0 l 317 528 l 244 397 l 244 0 l 88 0 l 88 1125 m 268 -325 q 328 -301 310 -322 q 346 -239 346 -281 l 269 -239 l 269 -87 l 421 -87 l 419 -231 q 395 -355 418 -314 q 306 -399 372 -396 l 268 -325 z "},"L":{"ha":551,"x_min":88,"x_max":532,"o":"m 88 1125 l 244 1125 l 244 113 l 532 113 l 532 0 l 88 0 l 88 1125 z "},"Ǉ":{"ha":969,"x_min":88,"x_max":881,"o":"m 88 1125 l 244 1125 l 244 113 l 532 113 l 532 0 l 88 0 l 88 1125 m 561 86 q 666 99 632 86 q 713 148 700 113 q 725 257 725 183 l 725 1125 l 881 1125 l 881 254 q 860 92 881 153 q 785 3 839 32 q 636 -26 732 -26 l 561 -26 l 561 86 z "},"Ĺ":{"ha":551,"x_min":88,"x_max":532,"o":"m 88 1125 l 244 1125 l 244 113 l 532 113 l 532 0 l 88 0 l 88 1125 m 210 1467 l 358 1467 l 203 1192 l 128 1192 l 210 1467 z "},"Ľ":{"ha":551,"x_min":88,"x_max":533,"o":"m 88 1125 l 244 1125 l 244 113 l 532 113 l 532 0 l 88 0 l 88 1125 m 379 847 q 438 891 417 860 q 460 965 460 922 l 381 965 l 381 1125 l 533 1125 l 533 968 q 501 851 533 894 q 403 783 469 807 l 379 847 z "},"Ļ":{"ha":551,"x_min":88,"x_max":532,"o":"m 88 1125 l 244 1125 l 244 113 l 532 113 l 532 0 l 88 0 l 88 1125 m 233 -325 q 293 -301 275 -322 q 311 -239 311 -281 l 235 -239 l 235 -87 l 386 -87 l 385 -231 q 360 -355 383 -314 q 271 -399 338 -396 l 233 -325 z "},"Ŀ":{"ha":551,"x_min":88,"x_max":532,"o":"m 88 1125 l 244 1125 l 244 113 l 532 113 l 532 0 l 88 0 l 88 1125 m 388 682 l 496 682 l 496 529 l 388 529 l 388 682 z "},"ǈ":{"ha":871,"x_min":88,"x_max":797,"o":"m 88 1125 l 244 1125 l 244 113 l 532 113 l 532 0 l 88 0 l 88 1125 m 647 1078 l 797 1078 l 797 922 l 647 922 l 647 1078 m 601 -203 q 525 -193 547 -203 l 525 -86 q 564 -90 554 -90 q 628 -65 610 -90 q 647 7 647 -39 l 647 803 l 796 803 l 796 -8 q 744 -153 796 -103 q 601 -203 693 -203 z "},"Ł":{"ha":551,"x_min":-8,"x_max":532,"o":"m 88 524 l -8 471 l -8 592 l 88 644 l 88 1125 l 244 1125 l 244 732 l 390 811 l 390 692 l 244 611 l 244 113 l 532 113 l 532 0 l 88 0 l 88 524 z "},"M":{"ha":917,"x_min":85,"x_max":832,"o":"m 106 1125 l 260 1125 l 458 213 l 658 1125 l 811 1125 l 832 0 l 706 0 l 693 817 l 503 0 l 414 0 l 225 817 l 213 0 l 85 0 l 106 1125 z "},"Ṁ":{"ha":917,"x_min":85,"x_max":832,"o":"m 106 1125 l 260 1125 l 458 213 l 658 1125 l 811 1125 l 832 0 l 706 0 l 693 817 l 503 0 l 414 0 l 225 817 l 213 0 l 85 0 l 106 1125 m 383 1419 l 533 1419 l 533 1254 l 383 1254 l 383 1419 z "},"N":{"ha":733,"x_min":88,"x_max":644,"o":"m 88 1125 l 194 1125 l 514 378 l 514 1125 l 644 1125 l 644 0 l 544 0 l 221 768 l 221 0 l 88 0 l 88 1125 z "},"Ǌ":{"ha":1151,"x_min":88,"x_max":1063,"o":"m 88 1125 l 194 1125 l 514 378 l 514 1125 l 644 1125 l 644 0 l 544 0 l 221 768 l 221 0 l 88 0 l 88 1125 m 743 86 q 848 99 814 86 q 894 148 882 113 q 907 257 907 183 l 907 1125 l 1063 1125 l 1063 254 q 1042 92 1063 153 q 967 3 1021 32 q 818 -26 914 -26 l 743 -26 l 743 86 z "},"Ń":{"ha":733,"x_min":88,"x_max":644,"o":"m 88 1125 l 194 1125 l 514 378 l 514 1125 l 644 1125 l 644 0 l 544 0 l 221 768 l 221 0 l 88 0 l 88 1125 m 410 1467 l 558 1467 l 403 1192 l 328 1192 l 410 1467 z "},"Ň":{"ha":733,"x_min":88,"x_max":644,"o":"m 88 1125 l 194 1125 l 514 378 l 514 1125 l 644 1125 l 644 0 l 544 0 l 221 768 l 221 0 l 88 0 l 88 1125 m 172 1447 l 286 1447 l 367 1285 l 447 1447 l 561 1447 l 439 1207 l 293 1207 l 172 1447 z "},"Ņ":{"ha":733,"x_min":88,"x_max":644,"o":"m 88 1125 l 194 1125 l 514 378 l 514 1125 l 644 1125 l 644 0 l 544 0 l 221 768 l 221 0 l 88 0 l 88 1125 m 290 -325 q 350 -301 332 -322 q 368 -239 368 -281 l 292 -239 l 292 -87 l 443 -87 l 442 -231 q 417 -355 440 -314 q 328 -399 394 -396 l 290 -325 z "},"Ŋ":{"ha":738,"x_min":88,"x_max":644,"o":"m 371 -147 q 472 -133 440 -147 q 512 -87 503 -118 q 521 13 521 -56 l 521 58 l 213 768 l 213 0 l 88 0 l 88 1125 l 194 1125 l 522 378 l 522 1125 l 644 1125 l 644 0 q 626 -144 644 -89 q 559 -226 607 -199 q 424 -254 511 -254 l 371 -254 l 371 -147 z "},"ǋ":{"ha":1053,"x_min":88,"x_max":979,"o":"m 88 1125 l 194 1125 l 514 378 l 514 1125 l 644 1125 l 644 0 l 544 0 l 221 768 l 221 0 l 88 0 l 88 1125 m 829 1078 l 979 1078 l 979 922 l 829 922 l 829 1078 m 783 -203 q 707 -193 729 -203 l 707 -86 q 746 -90 736 -90 q 810 -65 792 -90 q 829 7 829 -39 l 829 803 l 978 803 l 978 -8 q 926 -153 978 -103 q 783 -203 875 -203 z "},"Ñ":{"ha":733,"x_min":88,"x_max":644,"o":"m 88 1125 l 194 1125 l 514 378 l 514 1125 l 644 1125 l 644 0 l 544 0 l 221 768 l 221 0 l 88 0 l 88 1125 m 472 1294 q 422 1304 444 1294 q 369 1332 399 1314 q 325 1355 342 1347 q 290 1363 308 1363 q 254 1349 265 1363 q 243 1306 243 1336 l 158 1306 q 269 1456 158 1456 q 315 1447 293 1456 q 364 1421 336 1438 q 409 1397 392 1404 q 446 1389 426 1389 q 481 1402 471 1389 q 492 1447 492 1415 l 575 1447 q 552 1335 575 1376 q 472 1294 529 1294 z "},"O":{"ha":749,"x_min":67,"x_max":682,"o":"m 375 -12 q 138 81 210 -12 q 67 353 67 175 l 67 779 q 139 1044 67 954 q 375 1135 211 1135 q 610 1044 539 1135 q 682 779 682 953 l 682 351 q 610 82 682 176 q 375 -12 538 -12 m 375 111 q 493 163 463 111 q 524 318 524 214 l 524 811 q 493 963 524 914 q 375 1013 463 1013 q 256 963 286 1013 q 225 811 225 914 l 225 318 q 256 163 225 214 q 375 111 286 111 z "},"Ó":{"ha":749,"x_min":67,"x_max":682,"o":"m 375 -12 q 138 81 210 -12 q 67 353 67 175 l 67 779 q 139 1044 67 954 q 375 1135 211 1135 q 610 1044 539 1135 q 682 779 682 953 l 682 351 q 610 82 682 176 q 375 -12 538 -12 m 375 111 q 493 163 463 111 q 524 318 524 214 l 524 811 q 493 963 524 914 q 375 1013 463 1013 q 256 963 286 1013 q 225 811 225 914 l 225 318 q 256 163 225 214 q 375 111 286 111 m 418 1467 l 567 1467 l 411 1192 l 336 1192 l 418 1467 z "},"Ŏ":{"ha":749,"x_min":67,"x_max":682,"o":"m 375 -12 q 138 81 210 -12 q 67 353 67 175 l 67 779 q 139 1044 67 954 q 375 1135 211 1135 q 610 1044 539 1135 q 682 779 682 953 l 682 351 q 610 82 682 176 q 375 -12 538 -12 m 375 111 q 493 163 463 111 q 524 318 524 214 l 524 811 q 493 963 524 914 q 375 1013 463 1013 q 256 963 286 1013 q 225 811 225 914 l 225 318 q 256 163 225 214 q 375 111 286 111 m 375 1213 q 237 1264 281 1213 q 193 1401 193 1315 l 279 1401 q 303 1323 281 1349 q 375 1297 325 1297 q 471 1401 471 1297 l 558 1401 q 515 1264 558 1315 q 375 1213 471 1213 z "},"Ô":{"ha":749,"x_min":67,"x_max":682,"o":"m 375 -12 q 138 81 210 -12 q 67 353 67 175 l 67 779 q 139 1044 67 954 q 375 1135 211 1135 q 610 1044 539 1135 q 682 779 682 953 l 682 351 q 610 82 682 176 q 375 -12 538 -12 m 375 111 q 493 163 463 111 q 524 318 524 214 l 524 811 q 493 963 524 914 q 375 1013 463 1013 q 256 963 286 1013 q 225 811 225 914 l 225 318 q 256 163 225 214 q 375 111 286 111 m 299 1447 l 450 1447 l 571 1204 l 458 1204 l 374 1372 l 290 1204 l 179 1204 l 299 1447 z "},"Ố":{"ha":749,"x_min":67,"x_max":754,"o":"m 375 -12 q 138 81 210 -12 q 67 353 67 175 l 67 779 q 139 1044 67 954 q 375 1135 211 1135 q 610 1044 539 1135 q 682 779 682 953 l 682 351 q 610 82 682 176 q 375 -12 538 -12 m 375 111 q 493 163 463 111 q 524 318 524 214 l 524 811 q 493 963 524 914 q 375 1013 463 1013 q 256 963 286 1013 q 225 811 225 914 l 225 318 q 256 163 225 214 q 375 111 286 111 m 625 1508 l 754 1508 l 643 1349 l 551 1349 l 625 1508 m 299 1419 l 450 1419 l 571 1204 l 458 1204 l 374 1344 l 290 1204 l 179 1204 l 299 1419 z "},"Ộ":{"ha":749,"x_min":67,"x_max":682,"o":"m 375 -12 q 138 81 210 -12 q 67 353 67 175 l 67 779 q 139 1044 67 954 q 375 1135 211 1135 q 610 1044 539 1135 q 682 779 682 953 l 682 351 q 610 82 682 176 q 375 -12 538 -12 m 375 111 q 493 163 463 111 q 524 318 524 214 l 524 811 q 493 963 524 914 q 375 1013 463 1013 q 256 963 286 1013 q 225 811 225 914 l 225 318 q 256 163 225 214 q 375 111 286 111 m 299 1419 l 450 1419 l 571 1204 l 458 1204 l 374 1344 l 290 1204 l 179 1204 l 299 1419 m 300 -87 l 450 -87 l 450 -244 l 300 -244 l 300 -87 z "},"Ồ":{"ha":749,"x_min":67,"x_max":682,"o":"m 375 -12 q 138 81 210 -12 q 67 353 67 175 l 67 779 q 139 1044 67 954 q 375 1135 211 1135 q 610 1044 539 1135 q 682 779 682 953 l 682 351 q 610 82 682 176 q 375 -12 538 -12 m 375 111 q 493 163 463 111 q 524 318 524 214 l 524 811 q 493 963 524 914 q 375 1013 463 1013 q 256 963 286 1013 q 225 811 225 914 l 225 318 q 256 163 225 214 q 375 111 286 111 m 475 1508 l 604 1508 l 678 1349 l 586 1349 l 475 1508 m 299 1419 l 450 1419 l 571 1204 l 458 1204 l 374 1344 l 290 1204 l 179 1204 l 299 1419 z "},"Ổ":{"ha":749,"x_min":67,"x_max":715,"o":"m 375 -12 q 138 81 210 -12 q 67 353 67 175 l 67 779 q 139 1044 67 954 q 375 1135 211 1135 q 610 1044 539 1135 q 682 779 682 953 l 682 351 q 610 82 682 176 q 375 -12 538 -12 m 375 111 q 493 163 463 111 q 524 318 524 214 l 524 811 q 493 963 524 914 q 375 1013 463 1013 q 256 963 286 1013 q 225 811 225 914 l 225 318 q 256 163 225 214 q 375 111 286 111 m 538 1374 q 588 1411 572 1393 q 604 1454 604 1429 q 585 1495 604 1482 q 536 1508 567 1508 q 472 1499 501 1508 l 472 1574 q 574 1588 519 1588 q 676 1557 636 1588 q 715 1467 715 1526 q 682 1377 715 1410 q 585 1318 649 1344 l 538 1374 m 299 1419 l 450 1419 l 571 1204 l 458 1204 l 374 1344 l 290 1204 l 179 1204 l 299 1419 z "},"Ỗ":{"ha":749,"x_min":67,"x_max":682,"o":"m 375 -12 q 138 81 210 -12 q 67 353 67 175 l 67 779 q 139 1044 67 954 q 375 1135 211 1135 q 610 1044 539 1135 q 682 779 682 953 l 682 351 q 610 82 682 176 q 375 -12 538 -12 m 375 111 q 493 163 463 111 q 524 318 524 214 l 524 811 q 493 963 524 914 q 375 1013 463 1013 q 256 963 286 1013 q 225 811 225 914 l 225 318 q 256 163 225 214 q 375 111 286 111 m 299 1419 l 450 1419 l 571 1204 l 458 1204 l 374 1344 l 290 1204 l 179 1204 l 299 1419 m 481 1483 q 430 1493 453 1483 q 378 1521 407 1503 q 333 1544 350 1536 q 299 1551 317 1551 q 263 1538 274 1551 q 251 1494 251 1525 l 167 1494 q 278 1644 167 1644 q 323 1635 301 1644 q 372 1610 344 1626 q 417 1585 400 1593 q 454 1578 435 1578 q 490 1591 479 1578 q 500 1636 500 1604 l 583 1636 q 560 1524 583 1565 q 481 1483 538 1483 z "},"Ȍ":{"ha":749,"x_min":67,"x_max":682,"o":"m 375 -12 q 138 81 210 -12 q 67 353 67 175 l 67 779 q 139 1044 67 954 q 375 1135 211 1135 q 610 1044 539 1135 q 682 779 682 953 l 682 351 q 610 82 682 176 q 375 -12 538 -12 m 375 111 q 493 163 463 111 q 524 318 524 214 l 524 811 q 493 963 524 914 q 375 1013 463 1013 q 256 963 286 1013 q 225 811 225 914 l 225 318 q 256 163 225 214 q 375 111 286 111 m 101 1447 l 251 1447 l 332 1211 l 257 1211 l 101 1447 m 332 1447 l 454 1447 l 510 1211 l 435 1211 l 332 1447 z "},"Ö":{"ha":749,"x_min":67,"x_max":682,"o":"m 375 -12 q 138 81 210 -12 q 67 353 67 175 l 67 779 q 139 1044 67 954 q 375 1135 211 1135 q 610 1044 539 1135 q 682 779 682 953 l 682 351 q 610 82 682 176 q 375 -12 538 -12 m 375 111 q 493 163 463 111 q 524 318 524 214 l 524 811 q 493 963 524 914 q 375 1013 463 1013 q 256 963 286 1013 q 225 811 225 914 l 225 318 q 256 163 225 214 q 375 111 286 111 m 181 1447 l 331 1447 l 331 1293 l 181 1293 l 181 1447 m 419 1447 l 569 1447 l 569 1293 l 419 1293 l 419 1447 z "},"Ȫ":{"ha":749,"x_min":67,"x_max":682,"o":"m 375 -12 q 138 81 210 -12 q 67 353 67 175 l 67 779 q 139 1044 67 954 q 375 1135 211 1135 q 610 1044 539 1135 q 682 779 682 953 l 682 351 q 610 82 682 176 q 375 -12 538 -12 m 375 111 q 493 163 463 111 q 524 318 524 214 l 524 811 q 493 963 524 914 q 375 1013 463 1013 q 256 963 286 1013 q 225 811 225 914 l 225 318 q 256 163 225 214 q 375 111 286 111 m 181 1447 l 331 1447 l 331 1293 l 181 1293 l 181 1447 m 419 1447 l 569 1447 l 569 1293 l 419 1293 l 419 1447 m 242 1686 l 508 1686 l 508 1596 l 242 1596 l 242 1686 z "},"Ȱ":{"ha":749,"x_min":67,"x_max":682,"o":"m 375 -12 q 138 81 210 -12 q 67 353 67 175 l 67 779 q 139 1044 67 954 q 375 1135 211 1135 q 610 1044 539 1135 q 682 779 682 953 l 682 351 q 610 82 682 176 q 375 -12 538 -12 m 375 111 q 493 163 463 111 q 524 318 524 214 l 524 811 q 493 963 524 914 q 375 1013 463 1013 q 256 963 286 1013 q 225 811 225 914 l 225 318 q 256 163 225 214 q 375 111 286 111 m 300 1419 l 450 1419 l 450 1254 l 300 1254 l 300 1419 m 242 1658 l 508 1658 l 508 1568 l 242 1568 l 242 1658 z "},"Ọ":{"ha":749,"x_min":67,"x_max":682,"o":"m 375 -12 q 138 81 210 -12 q 67 353 67 175 l 67 779 q 139 1044 67 954 q 375 1135 211 1135 q 610 1044 539 1135 q 682 779 682 953 l 682 351 q 610 82 682 176 q 375 -12 538 -12 m 375 111 q 493 163 463 111 q 524 318 524 214 l 524 811 q 493 963 524 914 q 375 1013 463 1013 q 256 963 286 1013 q 225 811 225 914 l 225 318 q 256 163 225 214 q 375 111 286 111 m 300 -87 l 450 -87 l 450 -244 l 300 -244 l 300 -87 z "},"Ò":{"ha":749,"x_min":67,"x_max":682,"o":"m 375 -12 q 138 81 210 -12 q 67 353 67 175 l 67 779 q 139 1044 67 954 q 375 1135 211 1135 q 610 1044 539 1135 q 682 779 682 953 l 682 351 q 610 82 682 176 q 375 -12 538 -12 m 375 111 q 493 163 463 111 q 524 318 524 214 l 524 811 q 493 963 524 914 q 375 1013 463 1013 q 256 963 286 1013 q 225 811 225 914 l 225 318 q 256 163 225 214 q 375 111 286 111 m 186 1467 l 335 1467 l 414 1192 l 340 1192 l 186 1467 z "},"Ỏ":{"ha":749,"x_min":67,"x_max":682,"o":"m 375 -12 q 138 81 210 -12 q 67 353 67 175 l 67 779 q 139 1044 67 954 q 375 1135 211 1135 q 610 1044 539 1135 q 682 779 682 953 l 682 351 q 610 82 682 176 q 375 -12 538 -12 m 375 111 q 493 163 463 111 q 524 318 524 214 l 524 811 q 493 963 524 914 q 375 1013 463 1013 q 256 963 286 1013 q 225 811 225 914 l 225 318 q 256 163 225 214 q 375 111 286 111 m 329 1261 q 397 1299 375 1281 q 419 1342 419 1317 q 396 1383 419 1369 q 335 1396 372 1396 q 264 1386 297 1396 l 264 1461 q 376 1475 318 1475 q 488 1444 444 1475 q 531 1354 531 1414 q 492 1265 531 1297 q 376 1206 453 1232 l 329 1261 z "},"Ơ":{"ha":749,"x_min":67,"x_max":682,"o":"m 581 1074 q 682 779 682 990 l 682 351 q 610 82 682 176 q 375 -12 538 -12 q 138 81 210 -12 q 67 353 67 175 l 67 779 q 139 1044 67 954 q 375 1135 211 1135 q 471 1125 431 1135 q 523 1151 507 1126 q 539 1228 539 1176 l 654 1228 q 581 1074 654 1115 m 524 811 q 493 963 524 914 q 375 1013 463 1013 q 256 963 286 1013 q 225 811 225 914 l 225 318 q 256 163 225 214 q 375 111 286 111 q 493 163 463 111 q 524 318 524 214 l 524 811 z "},"Ớ":{"ha":749,"x_min":67,"x_max":682,"o":"m 581 1074 q 682 779 682 990 l 682 351 q 610 82 682 176 q 375 -12 538 -12 q 138 81 210 -12 q 67 353 67 175 l 67 779 q 139 1044 67 954 q 375 1135 211 1135 q 471 1125 431 1135 q 523 1151 507 1126 q 539 1228 539 1176 l 654 1228 q 581 1074 654 1115 m 524 811 q 493 963 524 914 q 375 1013 463 1013 q 256 963 286 1013 q 225 811 225 914 l 225 318 q 256 163 225 214 q 375 111 286 111 q 493 163 463 111 q 524 318 524 214 l 524 811 m 418 1467 l 567 1467 l 411 1192 l 336 1192 l 418 1467 z "},"Ợ":{"ha":749,"x_min":67,"x_max":682,"o":"m 581 1074 q 682 779 682 990 l 682 351 q 610 82 682 176 q 375 -12 538 -12 q 138 81 210 -12 q 67 353 67 175 l 67 779 q 139 1044 67 954 q 375 1135 211 1135 q 471 1125 431 1135 q 523 1151 507 1126 q 539 1228 539 1176 l 654 1228 q 581 1074 654 1115 m 524 811 q 493 963 524 914 q 375 1013 463 1013 q 256 963 286 1013 q 225 811 225 914 l 225 318 q 256 163 225 214 q 375 111 286 111 q 493 163 463 111 q 524 318 524 214 l 524 811 m 300 -87 l 450 -87 l 450 -244 l 300 -244 l 300 -87 z "},"Ờ":{"ha":749,"x_min":67,"x_max":682,"o":"m 581 1074 q 682 779 682 990 l 682 351 q 610 82 682 176 q 375 -12 538 -12 q 138 81 210 -12 q 67 353 67 175 l 67 779 q 139 1044 67 954 q 375 1135 211 1135 q 471 1125 431 1135 q 523 1151 507 1126 q 539 1228 539 1176 l 654 1228 q 581 1074 654 1115 m 524 811 q 493 963 524 914 q 375 1013 463 1013 q 256 963 286 1013 q 225 811 225 914 l 225 318 q 256 163 225 214 q 375 111 286 111 q 493 163 463 111 q 524 318 524 214 l 524 811 m 186 1467 l 335 1467 l 414 1192 l 340 1192 l 186 1467 z "},"Ở":{"ha":749,"x_min":67,"x_max":682,"o":"m 581 1074 q 682 779 682 990 l 682 351 q 610 82 682 176 q 375 -12 538 -12 q 138 81 210 -12 q 67 353 67 175 l 67 779 q 139 1044 67 954 q 375 1135 211 1135 q 471 1125 431 1135 q 523 1151 507 1126 q 539 1228 539 1176 l 654 1228 q 581 1074 654 1115 m 524 811 q 493 963 524 914 q 375 1013 463 1013 q 256 963 286 1013 q 225 811 225 914 l 225 318 q 256 163 225 214 q 375 111 286 111 q 493 163 463 111 q 524 318 524 214 l 524 811 m 329 1261 q 397 1299 375 1281 q 419 1342 419 1317 q 396 1383 419 1369 q 335 1396 372 1396 q 264 1386 297 1396 l 264 1461 q 376 1475 318 1475 q 488 1444 444 1475 q 531 1354 531 1414 q 492 1265 531 1297 q 376 1206 453 1232 l 329 1261 z "},"Ỡ":{"ha":749,"x_min":67,"x_max":682,"o":"m 581 1074 q 682 779 682 990 l 682 351 q 610 82 682 176 q 375 -12 538 -12 q 138 81 210 -12 q 67 353 67 175 l 67 779 q 139 1044 67 954 q 375 1135 211 1135 q 471 1125 431 1135 q 523 1151 507 1126 q 539 1228 539 1176 l 654 1228 q 581 1074 654 1115 m 524 811 q 493 963 524 914 q 375 1013 463 1013 q 256 963 286 1013 q 225 811 225 914 l 225 318 q 256 163 225 214 q 375 111 286 111 q 493 163 463 111 q 524 318 524 214 l 524 811 m 481 1294 q 430 1304 453 1294 q 378 1332 407 1314 q 333 1355 350 1347 q 299 1363 317 1363 q 263 1349 274 1363 q 251 1306 251 1336 l 167 1306 q 278 1456 167 1456 q 323 1447 301 1456 q 372 1421 344 1438 q 417 1397 400 1404 q 454 1389 435 1389 q 490 1402 479 1389 q 500 1447 500 1415 l 583 1447 q 560 1335 583 1376 q 481 1294 538 1294 z "},"Ő":{"ha":749,"x_min":67,"x_max":682,"o":"m 375 -12 q 138 81 210 -12 q 67 353 67 175 l 67 779 q 139 1044 67 954 q 375 1135 211 1135 q 610 1044 539 1135 q 682 779 682 953 l 682 351 q 610 82 682 176 q 375 -12 538 -12 m 375 111 q 493 163 463 111 q 524 318 524 214 l 524 811 q 493 963 524 914 q 375 1013 463 1013 q 256 963 286 1013 q 225 811 225 914 l 225 318 q 256 163 225 214 q 375 111 286 111 m 310 1449 l 432 1449 l 331 1211 l 256 1211 l 310 1449 m 511 1449 l 661 1449 l 507 1211 l 431 1211 l 511 1449 z "},"Ȏ":{"ha":749,"x_min":67,"x_max":682,"o":"m 375 -12 q 138 81 210 -12 q 67 353 67 175 l 67 779 q 139 1044 67 954 q 375 1135 211 1135 q 610 1044 539 1135 q 682 779 682 953 l 682 351 q 610 82 682 176 q 375 -12 538 -12 m 375 111 q 493 163 463 111 q 524 318 524 214 l 524 811 q 493 963 524 914 q 375 1013 463 1013 q 256 963 286 1013 q 225 811 225 914 l 225 318 q 256 163 225 214 q 375 111 286 111 m 192 1240 q 233 1393 193 1339 q 375 1447 272 1447 q 518 1392 478 1447 q 558 1240 558 1338 l 471 1240 q 449 1335 471 1307 q 375 1363 428 1363 q 302 1334 324 1363 q 279 1240 281 1306 l 192 1240 z "},"Ō":{"ha":749,"x_min":67,"x_max":682,"o":"m 375 -12 q 138 81 210 -12 q 67 353 67 175 l 67 779 q 139 1044 67 954 q 375 1135 211 1135 q 610 1044 539 1135 q 682 779 682 953 l 682 351 q 610 82 682 176 q 375 -12 538 -12 m 375 111 q 493 163 463 111 q 524 318 524 214 l 524 811 q 493 963 524 914 q 375 1013 463 1013 q 256 963 286 1013 q 225 811 225 914 l 225 318 q 256 163 225 214 q 375 111 286 111 m 242 1364 l 508 1364 l 508 1274 l 242 1274 l 242 1364 z "},"Ǫ":{"ha":749,"x_min":67,"x_max":682,"o":"m 375 1135 q 610 1044 539 1135 q 682 779 682 953 l 682 351 q 631 112 682 203 q 465 -3 579 21 q 353 -179 353 -106 q 464 -246 353 -246 q 508 -243 483 -246 l 483 -317 q 433 -321 460 -321 q 292 -297 343 -321 q 240 -201 240 -272 q 278 -92 240 -146 q 365 -12 315 -39 q 136 84 206 -10 q 67 353 67 178 l 67 779 q 139 1044 67 954 q 375 1135 211 1135 m 524 811 q 493 963 524 914 q 375 1013 463 1013 q 256 963 286 1013 q 225 811 225 914 l 225 318 q 256 163 225 214 q 375 111 286 111 q 493 163 463 111 q 524 318 524 214 l 524 811 z "},"Ø":{"ha":750,"x_min":67,"x_max":682,"o":"m 544 1099 q 682 779 682 1024 l 682 351 q 610 82 682 176 q 375 -12 538 -12 q 251 6 301 -12 l 222 -103 l 168 -86 l 199 29 q 98 152 129 71 q 67 353 67 233 l 67 779 q 139 1044 67 954 q 375 1135 211 1135 q 490 1119 438 1135 l 518 1222 l 574 1208 l 544 1099 m 225 318 q 242 190 225 235 l 457 996 q 375 1013 426 1013 q 256 963 286 1013 q 225 811 225 914 l 225 318 m 524 811 q 503 946 524 904 l 286 133 q 375 111 319 111 q 493 163 463 111 q 524 318 524 214 l 524 811 z "},"Ǿ":{"ha":750,"x_min":67,"x_max":682,"o":"m 544 1099 q 682 779 682 1024 l 682 351 q 610 82 682 176 q 375 -12 538 -12 q 251 6 301 -12 l 222 -103 l 168 -86 l 199 29 q 98 152 129 71 q 67 353 67 233 l 67 779 q 139 1044 67 954 q 375 1135 211 1135 q 490 1119 438 1135 l 518 1222 l 574 1208 l 544 1099 m 225 318 q 242 190 225 235 l 457 996 q 375 1013 426 1013 q 256 963 286 1013 q 225 811 225 914 l 225 318 m 524 811 q 503 946 524 904 l 286 133 q 375 111 319 111 q 493 163 463 111 q 524 318 524 214 l 524 811 m 418 1467 l 567 1467 l 411 1192 l 336 1192 l 418 1467 z "},"Õ":{"ha":749,"x_min":67,"x_max":682,"o":"m 375 -12 q 138 81 210 -12 q 67 353 67 175 l 67 779 q 139 1044 67 954 q 375 1135 211 1135 q 610 1044 539 1135 q 682 779 682 953 l 682 351 q 610 82 682 176 q 375 -12 538 -12 m 375 111 q 493 163 463 111 q 524 318 524 214 l 524 811 q 493 963 524 914 q 375 1013 463 1013 q 256 963 286 1013 q 225 811 225 914 l 225 318 q 256 163 225 214 q 375 111 286 111 m 481 1294 q 430 1304 453 1294 q 378 1332 407 1314 q 333 1355 350 1347 q 299 1363 317 1363 q 263 1349 274 1363 q 251 1306 251 1336 l 167 1306 q 278 1456 167 1456 q 323 1447 301 1456 q 372 1421 344 1438 q 417 1397 400 1404 q 454 1389 435 1389 q 490 1402 479 1389 q 500 1447 500 1415 l 583 1447 q 560 1335 583 1376 q 481 1294 538 1294 z "},"Ȭ":{"ha":749,"x_min":67,"x_max":682,"o":"m 375 -12 q 138 81 210 -12 q 67 353 67 175 l 67 779 q 139 1044 67 954 q 375 1135 211 1135 q 610 1044 539 1135 q 682 779 682 953 l 682 351 q 610 82 682 176 q 375 -12 538 -12 m 375 111 q 493 163 463 111 q 524 318 524 214 l 524 811 q 493 963 524 914 q 375 1013 463 1013 q 256 963 286 1013 q 225 811 225 914 l 225 318 q 256 163 225 214 q 375 111 286 111 m 481 1294 q 430 1304 453 1294 q 378 1332 407 1314 q 333 1355 350 1347 q 299 1363 317 1363 q 263 1349 274 1363 q 251 1306 251 1336 l 167 1306 q 278 1456 167 1456 q 323 1447 301 1456 q 372 1421 344 1438 q 417 1397 400 1404 q 454 1389 435 1389 q 490 1402 479 1389 q 500 1447 500 1415 l 583 1447 q 560 1335 583 1376 q 481 1294 538 1294 m 242 1694 l 508 1694 l 508 1604 l 242 1604 l 242 1694 z "},"Œ":{"ha":949,"x_min":67,"x_max":911,"o":"m 400 0 q 203 38 276 0 q 98 150 129 75 q 67 343 67 225 l 67 758 q 142 1034 67 943 q 389 1125 217 1125 l 908 1125 l 908 1008 l 635 1008 l 635 638 l 857 638 l 857 525 l 635 525 l 635 113 l 911 113 l 911 0 l 400 0 m 478 117 l 478 1013 l 400 1013 q 281 981 318 1013 q 234 894 243 950 q 225 729 225 839 l 225 360 q 237 215 225 265 q 286 141 249 165 q 403 117 324 117 l 478 117 z "},"P":{"ha":667,"x_min":88,"x_max":644,"o":"m 88 1125 l 367 1125 q 578 1046 513 1125 q 644 814 644 967 q 574 600 644 676 q 368 524 503 524 l 244 524 l 244 0 l 88 0 l 88 1125 m 317 636 q 424 651 386 636 q 479 704 463 667 q 496 813 496 742 q 483 939 496 899 q 434 996 471 979 q 318 1013 397 1013 l 244 1013 l 244 636 l 317 636 z "},"Ṗ":{"ha":667,"x_min":88,"x_max":644,"o":"m 88 1125 l 367 1125 q 578 1046 513 1125 q 644 814 644 967 q 574 600 644 676 q 368 524 503 524 l 244 524 l 244 0 l 88 0 l 88 1125 m 317 636 q 424 651 386 636 q 479 704 463 667 q 496 813 496 742 q 483 939 496 899 q 434 996 471 979 q 318 1013 397 1013 l 244 1013 l 244 636 l 317 636 m 258 1419 l 408 1419 l 408 1254 l 258 1254 l 258 1419 z "},"Þ":{"ha":699,"x_min":88,"x_max":675,"o":"m 88 1125 l 244 1125 l 244 978 l 407 978 q 609 892 543 978 q 675 651 675 806 q 381 324 675 324 l 244 324 l 244 0 l 88 0 l 88 1125 m 342 450 q 480 494 438 450 q 522 651 522 538 q 485 803 522 758 q 360 847 447 847 l 244 847 l 244 450 l 342 450 z "},"Q":{"ha":751,"x_min":67,"x_max":683,"o":"m 604 -228 q 401 -11 519 -186 l 375 -12 q 138 81 210 -12 q 67 353 67 175 l 67 779 q 139 1044 67 954 q 375 1135 211 1135 q 611 1044 539 1135 q 683 779 683 953 l 683 351 q 518 14 683 83 q 629 -104 588 -76 l 604 -228 m 375 111 q 494 163 464 111 q 525 318 525 214 l 525 811 q 494 963 525 914 q 375 1013 464 1013 q 256 963 286 1013 q 225 811 225 914 l 225 318 q 256 163 225 214 q 375 111 286 111 z "},"R":{"ha":721,"x_min":88,"x_max":665,"o":"m 88 1125 l 314 1125 q 565 1055 485 1125 q 644 826 644 985 q 506 564 644 610 l 665 0 l 514 0 l 367 528 l 244 528 l 244 0 l 88 0 l 88 1125 m 304 640 q 449 681 406 640 q 493 826 493 721 q 478 935 493 896 q 424 994 463 975 q 314 1013 385 1013 l 244 1013 l 244 640 l 304 640 z "},"Ŕ":{"ha":721,"x_min":88,"x_max":665,"o":"m 88 1125 l 314 1125 q 565 1055 485 1125 q 644 826 644 985 q 506 564 644 610 l 665 0 l 514 0 l 367 528 l 244 528 l 244 0 l 88 0 l 88 1125 m 304 640 q 449 681 406 640 q 493 826 493 721 q 478 935 493 896 q 424 994 463 975 q 314 1013 385 1013 l 244 1013 l 244 640 l 304 640 m 404 1467 l 553 1467 l 397 1192 l 322 1192 l 404 1467 z "},"Ř":{"ha":721,"x_min":88,"x_max":665,"o":"m 88 1125 l 314 1125 q 565 1055 485 1125 q 644 826 644 985 q 506 564 644 610 l 665 0 l 514 0 l 367 528 l 244 528 l 244 0 l 88 0 l 88 1125 m 304 640 q 449 681 406 640 q 493 826 493 721 q 478 935 493 896 q 424 994 463 975 q 314 1013 385 1013 l 244 1013 l 244 640 l 304 640 m 167 1447 l 281 1447 l 361 1285 l 442 1447 l 556 1447 l 433 1207 l 288 1207 l 167 1447 z "},"Ŗ":{"ha":721,"x_min":88,"x_max":665,"o":"m 88 1125 l 314 1125 q 565 1055 485 1125 q 644 826 644 985 q 506 564 644 610 l 665 0 l 514 0 l 367 528 l 244 528 l 244 0 l 88 0 l 88 1125 m 304 640 q 449 681 406 640 q 493 826 493 721 q 478 935 493 896 q 424 994 463 975 q 314 1013 385 1013 l 244 1013 l 244 640 l 304 640 m 285 -325 q 344 -301 326 -322 q 363 -239 363 -281 l 286 -239 l 286 -87 l 438 -87 l 436 -231 q 412 -355 435 -314 q 322 -399 389 -396 l 285 -325 z "},"Ȑ":{"ha":721,"x_min":88,"x_max":665,"o":"m 88 1125 l 314 1125 q 565 1055 485 1125 q 644 826 644 985 q 506 564 644 610 l 665 0 l 514 0 l 367 528 l 244 528 l 244 0 l 88 0 l 88 1125 m 304 640 q 449 681 406 640 q 493 826 493 721 q 478 935 493 896 q 424 994 463 975 q 314 1013 385 1013 l 244 1013 l 244 640 l 304 640 m 88 1447 l 238 1447 l 318 1211 l 243 1211 l 88 1447 m 318 1447 l 440 1447 l 496 1211 l 421 1211 l 318 1447 z "},"Ȓ":{"ha":721,"x_min":88,"x_max":665,"o":"m 88 1125 l 314 1125 q 565 1055 485 1125 q 644 826 644 985 q 506 564 644 610 l 665 0 l 514 0 l 367 528 l 244 528 l 244 0 l 88 0 l 88 1125 m 304 640 q 449 681 406 640 q 493 826 493 721 q 478 935 493 896 q 424 994 463 975 q 314 1013 385 1013 l 244 1013 l 244 640 l 304 640 m 178 1240 q 219 1393 179 1339 q 361 1447 258 1447 q 504 1392 464 1447 q 544 1240 544 1338 l 457 1240 q 435 1335 457 1307 q 361 1363 414 1363 q 288 1334 310 1363 q 265 1240 267 1306 l 178 1240 z "},"S":{"ha":657,"x_min":54,"x_max":622,"o":"m 353 -12 q 137 75 211 -12 q 54 315 63 163 l 193 353 q 235 178 200 244 q 353 111 271 111 q 445 145 414 111 q 476 243 476 179 q 447 356 476 311 q 354 460 418 401 l 165 626 q 83 735 108 678 q 57 875 57 793 q 129 1067 57 1000 q 328 1135 201 1135 q 525 1064 460 1135 q 604 844 590 993 l 471 808 q 435 959 464 904 q 332 1014 406 1014 q 197 890 197 1014 q 214 808 197 840 q 271 738 231 775 l 461 571 q 578 427 535 503 q 622 256 622 351 q 547 60 622 132 q 353 -12 472 -12 z "},"Ś":{"ha":657,"x_min":54,"x_max":622,"o":"m 353 -12 q 137 75 211 -12 q 54 315 63 163 l 193 353 q 235 178 200 244 q 353 111 271 111 q 445 145 414 111 q 476 243 476 179 q 447 356 476 311 q 354 460 418 401 l 165 626 q 83 735 108 678 q 57 875 57 793 q 129 1067 57 1000 q 328 1135 201 1135 q 525 1064 460 1135 q 604 844 590 993 l 471 808 q 435 959 464 904 q 332 1014 406 1014 q 197 890 197 1014 q 214 808 197 840 q 271 738 231 775 l 461 571 q 578 427 535 503 q 622 256 622 351 q 547 60 622 132 q 353 -12 472 -12 m 372 1467 l 521 1467 l 365 1192 l 290 1192 l 372 1467 z "},"Š":{"ha":657,"x_min":54,"x_max":622,"o":"m 353 -12 q 137 75 211 -12 q 54 315 63 163 l 193 353 q 235 178 200 244 q 353 111 271 111 q 445 145 414 111 q 476 243 476 179 q 447 356 476 311 q 354 460 418 401 l 165 626 q 83 735 108 678 q 57 875 57 793 q 129 1067 57 1000 q 328 1135 201 1135 q 525 1064 460 1135 q 604 844 590 993 l 471 808 q 435 959 464 904 q 332 1014 406 1014 q 197 890 197 1014 q 214 808 197 840 q 271 738 231 775 l 461 571 q 578 427 535 503 q 622 256 622 351 q 547 60 622 132 q 353 -12 472 -12 m 135 1447 l 249 1447 l 329 1285 l 410 1447 l 524 1447 l 401 1207 l 256 1207 l 135 1447 z "},"Ş":{"ha":657,"x_min":54,"x_max":622,"o":"m 622 256 q 551 64 622 136 q 367 -12 481 -8 l 367 -78 q 478 -110 436 -78 q 521 -197 521 -143 q 473 -294 521 -261 q 347 -326 425 -326 q 254 -312 307 -326 l 254 -237 q 325 -247 288 -247 q 386 -234 363 -247 q 410 -193 410 -221 q 381 -141 410 -158 q 292 -115 353 -124 l 292 -8 q 120 96 179 11 q 54 315 61 181 l 193 353 q 235 178 200 244 q 353 111 271 111 q 445 145 414 111 q 476 243 476 179 q 447 356 476 311 q 354 460 418 401 l 165 626 q 83 735 108 678 q 57 875 57 793 q 129 1067 57 1000 q 328 1135 201 1135 q 525 1064 460 1135 q 604 844 590 993 l 471 808 q 435 959 464 904 q 332 1014 406 1014 q 197 890 197 1014 q 214 808 197 840 q 271 738 231 775 l 461 571 q 578 427 535 503 q 622 256 622 351 z "},"Ŝ":{"ha":657,"x_min":54,"x_max":622,"o":"m 353 -12 q 137 75 211 -12 q 54 315 63 163 l 193 353 q 235 178 200 244 q 353 111 271 111 q 445 145 414 111 q 476 243 476 179 q 447 356 476 311 q 354 460 418 401 l 165 626 q 83 735 108 678 q 57 875 57 793 q 129 1067 57 1000 q 328 1135 201 1135 q 525 1064 460 1135 q 604 844 590 993 l 471 808 q 435 959 464 904 q 332 1014 406 1014 q 197 890 197 1014 q 214 808 197 840 q 271 738 231 775 l 461 571 q 578 427 535 503 q 622 256 622 351 q 547 60 622 132 q 353 -12 472 -12 m 253 1447 l 404 1447 l 525 1204 l 413 1204 l 328 1372 l 244 1204 l 133 1204 l 253 1447 z "},"Ș":{"ha":657,"x_min":54,"x_max":622,"o":"m 353 -12 q 137 75 211 -12 q 54 315 63 163 l 193 353 q 235 178 200 244 q 353 111 271 111 q 445 145 414 111 q 476 243 476 179 q 447 356 476 311 q 354 460 418 401 l 165 626 q 83 735 108 678 q 57 875 57 793 q 129 1067 57 1000 q 328 1135 201 1135 q 525 1064 460 1135 q 604 844 590 993 l 471 808 q 435 959 464 904 q 332 1014 406 1014 q 197 890 197 1014 q 214 808 197 840 q 271 738 231 775 l 461 571 q 578 427 535 503 q 622 256 622 351 q 547 60 622 132 q 353 -12 472 -12 m 253 -325 q 313 -301 294 -322 q 331 -239 331 -281 l 254 -239 l 254 -87 l 406 -87 l 404 -231 q 380 -355 403 -314 q 290 -399 357 -396 l 253 -325 z "},"Ṡ":{"ha":657,"x_min":54,"x_max":622,"o":"m 353 -12 q 137 75 211 -12 q 54 315 63 163 l 193 353 q 235 178 200 244 q 353 111 271 111 q 445 145 414 111 q 476 243 476 179 q 447 356 476 311 q 354 460 418 401 l 165 626 q 83 735 108 678 q 57 875 57 793 q 129 1067 57 1000 q 328 1135 201 1135 q 525 1064 460 1135 q 604 844 590 993 l 471 808 q 435 959 464 904 q 332 1014 406 1014 q 197 890 197 1014 q 214 808 197 840 q 271 738 231 775 l 461 571 q 578 427 535 503 q 622 256 622 351 q 547 60 622 132 q 353 -12 472 -12 m 254 1419 l 404 1419 l 404 1254 l 254 1254 l 254 1419 z "},"ẞ":{"ha":749,"x_min":78,"x_max":707,"o":"m 489 626 q 707 319 707 596 q 636 68 707 149 q 428 -12 565 -12 l 353 -12 l 353 100 l 400 100 q 519 150 481 100 q 557 315 557 200 q 519 484 557 432 q 400 536 481 536 l 368 536 l 367 656 l 551 994 q 429 1013 500 1013 q 235 781 235 1013 l 235 0 l 78 0 l 78 774 q 163 1038 78 942 q 422 1135 249 1135 q 667 1078 556 1135 l 667 954 l 489 626 z "},"Ə":{"ha":743,"x_min":61,"x_max":676,"o":"m 369 -12 q 133 81 204 -12 q 61 353 61 175 l 61 585 l 518 585 l 518 811 q 488 964 518 915 q 369 1013 458 1013 q 250 963 281 1013 q 219 811 219 914 l 219 714 l 61 714 l 61 779 q 132 1044 61 954 q 369 1135 203 1135 q 605 1044 533 1135 q 676 779 676 953 l 676 351 q 604 82 676 176 q 369 -12 532 -12 m 369 111 q 488 163 457 111 q 518 318 518 214 l 518 461 l 219 461 l 219 318 q 250 163 219 214 q 369 111 281 111 z "},"T":{"ha":556,"x_min":-1,"x_max":558,"o":"m 203 1008 l -1 1008 l -1 1125 l 558 1125 l 558 1008 l 360 1008 l 360 0 l 203 0 l 203 1008 z "},"Ŧ":{"ha":556,"x_min":-1,"x_max":558,"o":"m 360 1008 l 360 632 l 499 632 l 499 543 l 360 543 l 360 0 l 203 0 l 203 543 l 57 543 l 57 632 l 203 632 l 203 1008 l -1 1008 l -1 1125 l 558 1125 l 558 1008 l 360 1008 z "},"Ť":{"ha":556,"x_min":-1,"x_max":558,"o":"m 203 1008 l -1 1008 l -1 1125 l 558 1125 l 558 1008 l 360 1008 l 360 0 l 203 0 l 203 1008 m 83 1447 l 197 1447 l 278 1285 l 358 1447 l 472 1447 l 350 1207 l 204 1207 l 83 1447 z "},"Ţ":{"ha":556,"x_min":-1,"x_max":558,"o":"m 203 1008 l -1 1008 l -1 1125 l 558 1125 l 558 1008 l 360 1008 l 360 0 l 203 0 l 203 1008 m 296 -326 q 203 -312 256 -326 l 203 -237 q 274 -247 236 -247 q 335 -234 311 -247 q 358 -193 358 -221 q 330 -141 358 -158 q 240 -115 301 -124 l 240 0 l 315 0 l 315 -78 q 427 -110 385 -78 q 469 -197 469 -143 q 422 -294 469 -261 q 296 -326 374 -326 z "},"Ț":{"ha":556,"x_min":-1,"x_max":558,"o":"m 203 1008 l -1 1008 l -1 1125 l 558 1125 l 558 1008 l 360 1008 l 360 0 l 203 0 l 203 1008 m 201 -325 q 261 -301 243 -322 q 279 -239 279 -281 l 203 -239 l 203 -87 l 354 -87 l 353 -231 q 328 -355 351 -314 q 239 -399 306 -396 l 201 -325 z "},"Ṫ":{"ha":556,"x_min":-1,"x_max":558,"o":"m 203 1008 l -1 1008 l -1 1125 l 558 1125 l 558 1008 l 360 1008 l 360 0 l 203 0 l 203 1008 m 203 1419 l 353 1419 l 353 1254 l 203 1254 l 203 1419 z "},"U":{"ha":754,"x_min":78,"x_max":676,"o":"m 378 -12 q 194 35 260 -12 q 103 167 128 82 q 78 379 78 251 l 78 1125 l 228 1125 l 228 372 q 258 178 228 244 q 378 111 288 111 q 498 178 468 111 q 528 372 528 244 l 528 1125 l 676 1125 l 676 379 q 651 167 676 251 q 561 35 626 82 q 378 -12 496 -12 z "},"Ú":{"ha":754,"x_min":78,"x_max":676,"o":"m 378 -12 q 194 35 260 -12 q 103 167 128 82 q 78 379 78 251 l 78 1125 l 228 1125 l 228 372 q 258 178 228 244 q 378 111 288 111 q 498 178 468 111 q 528 372 528 244 l 528 1125 l 676 1125 l 676 379 q 651 167 676 251 q 561 35 626 82 q 378 -12 496 -12 m 421 1467 l 569 1467 l 414 1192 l 339 1192 l 421 1467 z "},"Ŭ":{"ha":754,"x_min":78,"x_max":676,"o":"m 378 -12 q 194 35 260 -12 q 103 167 128 82 q 78 379 78 251 l 78 1125 l 228 1125 l 228 372 q 258 178 228 244 q 378 111 288 111 q 498 178 468 111 q 528 372 528 244 l 528 1125 l 676 1125 l 676 379 q 651 167 676 251 q 561 35 626 82 q 378 -12 496 -12 m 378 1213 q 240 1264 283 1213 q 196 1401 196 1315 l 282 1401 q 306 1323 283 1349 q 378 1297 328 1297 q 474 1401 474 1297 l 561 1401 q 517 1264 561 1315 q 378 1213 474 1213 z "},"Û":{"ha":754,"x_min":78,"x_max":676,"o":"m 378 -12 q 194 35 260 -12 q 103 167 128 82 q 78 379 78 251 l 78 1125 l 228 1125 l 228 372 q 258 178 228 244 q 378 111 288 111 q 498 178 468 111 q 528 372 528 244 l 528 1125 l 676 1125 l 676 379 q 651 167 676 251 q 561 35 626 82 q 378 -12 496 -12 m 301 1447 l 453 1447 l 574 1204 l 461 1204 l 376 1372 l 293 1204 l 182 1204 l 301 1447 z "},"Ȕ":{"ha":754,"x_min":78,"x_max":676,"o":"m 378 -12 q 194 35 260 -12 q 103 167 128 82 q 78 379 78 251 l 78 1125 l 228 1125 l 228 372 q 258 178 228 244 q 378 111 288 111 q 498 178 468 111 q 528 372 528 244 l 528 1125 l 676 1125 l 676 379 q 651 167 676 251 q 561 35 626 82 q 378 -12 496 -12 m 104 1447 l 254 1447 l 335 1211 l 260 1211 l 104 1447 m 335 1447 l 457 1447 l 513 1211 l 438 1211 l 335 1447 z "},"Ü":{"ha":754,"x_min":78,"x_max":676,"o":"m 378 -12 q 194 35 260 -12 q 103 167 128 82 q 78 379 78 251 l 78 1125 l 228 1125 l 228 372 q 258 178 228 244 q 378 111 288 111 q 498 178 468 111 q 528 372 528 244 l 528 1125 l 676 1125 l 676 379 q 651 167 676 251 q 561 35 626 82 q 378 -12 496 -12 m 183 1447 l 333 1447 l 333 1293 l 183 1293 l 183 1447 m 422 1447 l 572 1447 l 572 1293 l 422 1293 l 422 1447 z "},"Ụ":{"ha":754,"x_min":78,"x_max":676,"o":"m 378 -12 q 194 35 260 -12 q 103 167 128 82 q 78 379 78 251 l 78 1125 l 228 1125 l 228 372 q 258 178 228 244 q 378 111 288 111 q 498 178 468 111 q 528 372 528 244 l 528 1125 l 676 1125 l 676 379 q 651 167 676 251 q 561 35 626 82 q 378 -12 496 -12 m 303 -87 l 453 -87 l 453 -244 l 303 -244 l 303 -87 z "},"Ù":{"ha":754,"x_min":78,"x_max":676,"o":"m 378 -12 q 194 35 260 -12 q 103 167 128 82 q 78 379 78 251 l 78 1125 l 228 1125 l 228 372 q 258 178 228 244 q 378 111 288 111 q 498 178 468 111 q 528 372 528 244 l 528 1125 l 676 1125 l 676 379 q 651 167 676 251 q 561 35 626 82 q 378 -12 496 -12 m 189 1467 l 338 1467 l 417 1192 l 343 1192 l 189 1467 z "},"Ủ":{"ha":754,"x_min":78,"x_max":676,"o":"m 378 -12 q 194 35 260 -12 q 103 167 128 82 q 78 379 78 251 l 78 1125 l 228 1125 l 228 372 q 258 178 228 244 q 378 111 288 111 q 498 178 468 111 q 528 372 528 244 l 528 1125 l 676 1125 l 676 379 q 651 167 676 251 q 561 35 626 82 q 378 -12 496 -12 m 332 1261 q 400 1299 378 1281 q 422 1342 422 1317 q 399 1383 422 1369 q 338 1396 375 1396 q 267 1386 300 1396 l 267 1461 q 379 1475 321 1475 q 490 1444 447 1475 q 533 1354 533 1414 q 494 1265 533 1297 q 379 1206 456 1232 l 332 1261 z "},"Ư":{"ha":754,"x_min":78,"x_max":776,"o":"m 776 1228 q 676 1061 776 1097 l 676 379 q 651 167 676 251 q 561 35 626 82 q 378 -12 496 -12 q 194 35 260 -12 q 103 167 128 82 q 78 379 78 251 l 78 1125 l 228 1125 l 228 372 q 258 178 228 244 q 378 111 288 111 q 498 178 468 111 q 528 372 528 244 l 528 1125 l 586 1125 q 644 1150 626 1125 q 661 1228 661 1175 l 776 1228 z "},"Ứ":{"ha":754,"x_min":78,"x_max":776,"o":"m 776 1228 q 676 1061 776 1097 l 676 379 q 651 167 676 251 q 561 35 626 82 q 378 -12 496 -12 q 194 35 260 -12 q 103 167 128 82 q 78 379 78 251 l 78 1125 l 228 1125 l 228 372 q 258 178 228 244 q 378 111 288 111 q 498 178 468 111 q 528 372 528 244 l 528 1125 l 586 1125 q 644 1150 626 1125 q 661 1228 661 1175 l 776 1228 m 421 1467 l 569 1467 l 414 1192 l 339 1192 l 421 1467 z "},"Ự":{"ha":754,"x_min":78,"x_max":776,"o":"m 776 1228 q 676 1061 776 1097 l 676 379 q 651 167 676 251 q 561 35 626 82 q 378 -12 496 -12 q 194 35 260 -12 q 103 167 128 82 q 78 379 78 251 l 78 1125 l 228 1125 l 228 372 q 258 178 228 244 q 378 111 288 111 q 498 178 468 111 q 528 372 528 244 l 528 1125 l 586 1125 q 644 1150 626 1125 q 661 1228 661 1175 l 776 1228 m 303 -87 l 453 -87 l 453 -244 l 303 -244 l 303 -87 z "},"Ừ":{"ha":754,"x_min":78,"x_max":776,"o":"m 776 1228 q 676 1061 776 1097 l 676 379 q 651 167 676 251 q 561 35 626 82 q 378 -12 496 -12 q 194 35 260 -12 q 103 167 128 82 q 78 379 78 251 l 78 1125 l 228 1125 l 228 372 q 258 178 228 244 q 378 111 288 111 q 498 178 468 111 q 528 372 528 244 l 528 1125 l 586 1125 q 644 1150 626 1125 q 661 1228 661 1175 l 776 1228 m 189 1467 l 338 1467 l 417 1192 l 343 1192 l 189 1467 z "},"Ử":{"ha":754,"x_min":78,"x_max":776,"o":"m 776 1228 q 676 1061 776 1097 l 676 379 q 651 167 676 251 q 561 35 626 82 q 378 -12 496 -12 q 194 35 260 -12 q 103 167 128 82 q 78 379 78 251 l 78 1125 l 228 1125 l 228 372 q 258 178 228 244 q 378 111 288 111 q 498 178 468 111 q 528 372 528 244 l 528 1125 l 586 1125 q 644 1150 626 1125 q 661 1228 661 1175 l 776 1228 m 332 1261 q 400 1299 378 1281 q 422 1342 422 1317 q 399 1383 422 1369 q 338 1396 375 1396 q 267 1386 300 1396 l 267 1461 q 379 1475 321 1475 q 490 1444 447 1475 q 533 1354 533 1414 q 494 1265 533 1297 q 379 1206 456 1232 l 332 1261 z "},"Ữ":{"ha":754,"x_min":78,"x_max":776,"o":"m 776 1228 q 676 1061 776 1097 l 676 379 q 651 167 676 251 q 561 35 626 82 q 378 -12 496 -12 q 194 35 260 -12 q 103 167 128 82 q 78 379 78 251 l 78 1125 l 228 1125 l 228 372 q 258 178 228 244 q 378 111 288 111 q 498 178 468 111 q 528 372 528 244 l 528 1125 l 586 1125 q 644 1150 626 1125 q 661 1228 661 1175 l 776 1228 m 483 1294 q 433 1304 456 1294 q 381 1332 410 1314 q 336 1355 353 1347 q 301 1363 319 1363 q 265 1349 276 1363 q 254 1306 254 1336 l 169 1306 q 281 1456 169 1456 q 326 1447 304 1456 q 375 1421 347 1438 q 420 1397 403 1404 q 457 1389 438 1389 q 492 1402 482 1389 q 503 1447 503 1415 l 586 1447 q 563 1335 586 1376 q 483 1294 540 1294 z "},"Ű":{"ha":754,"x_min":78,"x_max":676,"o":"m 378 -12 q 194 35 260 -12 q 103 167 128 82 q 78 379 78 251 l 78 1125 l 228 1125 l 228 372 q 258 178 228 244 q 378 111 288 111 q 498 178 468 111 q 528 372 528 244 l 528 1125 l 676 1125 l 676 379 q 651 167 676 251 q 561 35 626 82 q 378 -12 496 -12 m 313 1449 l 435 1449 l 333 1211 l 258 1211 l 313 1449 m 514 1449 l 664 1449 l 510 1211 l 433 1211 l 514 1449 z "},"Ȗ":{"ha":754,"x_min":78,"x_max":676,"o":"m 378 -12 q 194 35 260 -12 q 103 167 128 82 q 78 379 78 251 l 78 1125 l 228 1125 l 228 372 q 258 178 228 244 q 378 111 288 111 q 498 178 468 111 q 528 372 528 244 l 528 1125 l 676 1125 l 676 379 q 651 167 676 251 q 561 35 626 82 q 378 -12 496 -12 m 194 1240 q 235 1393 196 1339 q 378 1447 275 1447 q 521 1392 481 1447 q 561 1240 561 1338 l 474 1240 q 452 1335 474 1307 q 378 1363 431 1363 q 305 1334 326 1363 q 282 1240 283 1306 l 194 1240 z "},"Ū":{"ha":754,"x_min":78,"x_max":676,"o":"m 378 -12 q 194 35 260 -12 q 103 167 128 82 q 78 379 78 251 l 78 1125 l 228 1125 l 228 372 q 258 178 228 244 q 378 111 288 111 q 498 178 468 111 q 528 372 528 244 l 528 1125 l 676 1125 l 676 379 q 651 167 676 251 q 561 35 626 82 q 378 -12 496 -12 m 244 1364 l 511 1364 l 511 1274 l 244 1274 l 244 1364 z "},"Ų":{"ha":754,"x_min":78,"x_max":676,"o":"m 676 1125 l 676 379 q 631 116 676 211 q 468 -4 586 21 q 389 -91 422 -44 q 356 -179 356 -137 q 467 -246 356 -246 q 511 -243 486 -246 l 486 -317 q 436 -321 463 -321 q 294 -297 346 -321 q 243 -201 243 -272 q 281 -92 243 -146 q 368 -12 318 -39 q 190 37 254 -11 q 102 169 126 85 q 78 379 78 253 l 78 1125 l 228 1125 l 228 372 q 258 178 228 244 q 378 111 288 111 q 498 178 468 111 q 528 372 528 244 l 528 1125 l 676 1125 z "},"Ů":{"ha":754,"x_min":78,"x_max":676,"o":"m 378 -12 q 194 35 260 -12 q 103 167 128 82 q 78 379 78 251 l 78 1125 l 228 1125 l 228 372 q 258 178 228 244 q 378 111 288 111 q 498 178 468 111 q 528 372 528 244 l 528 1125 l 676 1125 l 676 379 q 651 167 676 251 q 561 35 626 82 q 378 -12 496 -12 m 378 1150 q 265 1192 308 1150 q 222 1306 222 1235 q 265 1418 222 1376 q 378 1460 307 1460 q 491 1418 449 1460 q 533 1306 533 1376 q 490 1192 533 1235 q 378 1150 447 1150 m 378 1225 q 436 1247 414 1225 q 458 1306 458 1268 q 437 1365 458 1343 q 378 1386 415 1386 q 319 1365 340 1386 q 297 1306 297 1344 q 319 1247 297 1268 q 378 1225 340 1225 z "},"Ũ":{"ha":754,"x_min":78,"x_max":676,"o":"m 378 -12 q 194 35 260 -12 q 103 167 128 82 q 78 379 78 251 l 78 1125 l 228 1125 l 228 372 q 258 178 228 244 q 378 111 288 111 q 498 178 468 111 q 528 372 528 244 l 528 1125 l 676 1125 l 676 379 q 651 167 676 251 q 561 35 626 82 q 378 -12 496 -12 m 483 1294 q 433 1304 456 1294 q 381 1332 410 1314 q 336 1355 353 1347 q 301 1363 319 1363 q 265 1349 276 1363 q 254 1306 254 1336 l 169 1306 q 281 1456 169 1456 q 326 1447 304 1456 q 375 1421 347 1438 q 420 1397 403 1404 q 457 1389 438 1389 q 492 1402 482 1389 q 503 1447 503 1415 l 586 1447 q 563 1335 586 1376 q 483 1294 540 1294 z "},"V":{"ha":701,"x_min":32,"x_max":669,"o":"m 32 1125 l 179 1125 l 357 296 l 526 1125 l 669 1125 l 421 0 l 283 0 l 32 1125 z "},"W":{"ha":1013,"x_min":50,"x_max":963,"o":"m 50 1125 l 181 1125 l 301 317 l 453 1121 l 564 1121 l 717 313 l 835 1125 l 963 1125 l 782 0 l 668 0 l 511 833 l 353 0 l 233 0 l 50 1125 z "},"Ẃ":{"ha":1013,"x_min":50,"x_max":963,"o":"m 50 1125 l 181 1125 l 301 317 l 453 1121 l 564 1121 l 717 313 l 835 1125 l 963 1125 l 782 0 l 668 0 l 511 833 l 353 0 l 233 0 l 50 1125 m 550 1467 l 699 1467 l 543 1192 l 468 1192 l 550 1467 z "},"Ŵ":{"ha":1013,"x_min":50,"x_max":963,"o":"m 50 1125 l 181 1125 l 301 317 l 453 1121 l 564 1121 l 717 313 l 835 1125 l 963 1125 l 782 0 l 668 0 l 511 833 l 353 0 l 233 0 l 50 1125 m 431 1447 l 582 1447 l 703 1204 l 590 1204 l 506 1372 l 422 1204 l 311 1204 l 431 1447 z "},"Ẅ":{"ha":1013,"x_min":50,"x_max":963,"o":"m 50 1125 l 181 1125 l 301 317 l 453 1121 l 564 1121 l 717 313 l 835 1125 l 963 1125 l 782 0 l 668 0 l 511 833 l 353 0 l 233 0 l 50 1125 m 313 1447 l 463 1447 l 463 1293 l 313 1293 l 313 1447 m 551 1447 l 701 1447 l 701 1293 l 551 1293 l 551 1447 z "},"Ẁ":{"ha":1013,"x_min":50,"x_max":963,"o":"m 50 1125 l 181 1125 l 301 317 l 453 1121 l 564 1121 l 717 313 l 835 1125 l 963 1125 l 782 0 l 668 0 l 511 833 l 353 0 l 233 0 l 50 1125 m 318 1467 l 467 1467 l 546 1192 l 472 1192 l 318 1467 z "},"X":{"ha":669,"x_min":18,"x_max":651,"o":"m 253 589 l 22 1125 l 168 1125 l 339 728 l 494 1125 l 640 1125 l 404 576 l 651 0 l 506 0 l 322 424 l 164 0 l 18 0 l 253 589 z "},"Y":{"ha":668,"x_min":17,"x_max":651,"o":"m 260 397 l 17 1125 l 163 1125 l 335 582 l 504 1125 l 651 1125 l 410 397 l 410 0 l 260 0 l 260 397 z "},"Ý":{"ha":668,"x_min":17,"x_max":651,"o":"m 260 397 l 17 1125 l 163 1125 l 335 582 l 504 1125 l 651 1125 l 410 397 l 410 0 l 260 0 l 260 397 m 378 1467 l 526 1467 l 371 1192 l 296 1192 l 378 1467 z "},"Ŷ":{"ha":668,"x_min":17,"x_max":651,"o":"m 260 397 l 17 1125 l 163 1125 l 335 582 l 504 1125 l 651 1125 l 410 397 l 410 0 l 260 0 l 260 397 m 258 1447 l 410 1447 l 531 1204 l 418 1204 l 333 1372 l 250 1204 l 139 1204 l 258 1447 z "},"Ÿ":{"ha":668,"x_min":17,"x_max":651,"o":"m 260 397 l 17 1125 l 163 1125 l 335 582 l 504 1125 l 651 1125 l 410 397 l 410 0 l 260 0 l 260 397 m 140 1447 l 290 1447 l 290 1293 l 140 1293 l 140 1447 m 379 1447 l 529 1447 l 529 1293 l 379 1293 l 379 1447 z "},"Ỵ":{"ha":668,"x_min":17,"x_max":651,"o":"m 260 397 l 17 1125 l 163 1125 l 335 582 l 504 1125 l 651 1125 l 410 397 l 410 0 l 260 0 l 260 397 m 260 -87 l 410 -87 l 410 -244 l 260 -244 l 260 -87 z "},"Ỳ":{"ha":668,"x_min":17,"x_max":651,"o":"m 260 397 l 17 1125 l 163 1125 l 335 582 l 504 1125 l 651 1125 l 410 397 l 410 0 l 260 0 l 260 397 m 146 1467 l 294 1467 l 374 1192 l 300 1192 l 146 1467 z "},"Ỷ":{"ha":668,"x_min":17,"x_max":651,"o":"m 260 397 l 17 1125 l 163 1125 l 335 582 l 504 1125 l 651 1125 l 410 397 l 410 0 l 260 0 l 260 397 m 289 1261 q 357 1299 335 1281 q 379 1342 379 1317 q 356 1383 379 1369 q 294 1396 332 1396 q 224 1386 257 1396 l 224 1461 q 336 1475 278 1475 q 447 1444 404 1475 q 490 1354 490 1414 q 451 1265 490 1297 q 336 1206 413 1232 l 289 1261 z "},"Ȳ":{"ha":668,"x_min":17,"x_max":651,"o":"m 260 397 l 17 1125 l 163 1125 l 335 582 l 504 1125 l 651 1125 l 410 397 l 410 0 l 260 0 l 260 397 m 201 1364 l 468 1364 l 468 1274 l 201 1274 l 201 1364 z "},"Ỹ":{"ha":668,"x_min":17,"x_max":651,"o":"m 260 397 l 17 1125 l 163 1125 l 335 582 l 504 1125 l 651 1125 l 410 397 l 410 0 l 260 0 l 260 397 m 440 1294 q 390 1304 413 1294 q 338 1332 367 1314 q 293 1355 310 1347 q 258 1363 276 1363 q 222 1349 233 1363 q 211 1306 211 1336 l 126 1306 q 238 1456 126 1456 q 283 1447 261 1456 q 332 1421 304 1438 q 377 1397 360 1404 q 414 1389 394 1389 q 449 1402 439 1389 q 460 1447 460 1415 l 543 1447 q 520 1335 543 1376 q 440 1294 497 1294 z "},"Z":{"ha":579,"x_min":53,"x_max":550,"o":"m 53 113 l 383 1013 l 74 1013 l 74 1125 l 550 1125 l 550 1057 l 201 113 l 550 113 l 550 0 l 53 0 l 53 113 z "},"Ź":{"ha":579,"x_min":53,"x_max":550,"o":"m 53 113 l 383 1013 l 74 1013 l 74 1125 l 550 1125 l 550 1057 l 201 113 l 550 113 l 550 0 l 53 0 l 53 113 m 333 1467 l 482 1467 l 326 1192 l 251 1192 l 333 1467 z "},"Ž":{"ha":579,"x_min":53,"x_max":550,"o":"m 53 113 l 383 1013 l 74 1013 l 74 1125 l 550 1125 l 550 1057 l 201 113 l 550 113 l 550 0 l 53 0 l 53 113 m 96 1447 l 210 1447 l 290 1285 l 371 1447 l 485 1447 l 363 1207 l 217 1207 l 96 1447 z "},"Ż":{"ha":579,"x_min":53,"x_max":550,"o":"m 53 113 l 383 1013 l 74 1013 l 74 1125 l 550 1125 l 550 1057 l 201 113 l 550 113 l 550 0 l 53 0 l 53 113 m 215 1419 l 365 1419 l 365 1254 l 215 1254 l 215 1419 z "},"a":{"ha":592,"x_min":58,"x_max":538,"o":"m 219 -11 q 137 15 174 -11 q 79 85 100 42 q 58 175 58 128 q 99 328 58 269 q 201 422 139 388 q 375 501 263 456 l 375 558 q 359 670 375 638 q 294 703 343 703 q 210 589 210 703 l 210 549 l 63 554 l 64 583 q 131 759 71 704 q 304 814 192 814 q 472 751 419 814 q 524 560 524 688 l 524 193 q 538 0 524 103 l 401 0 q 382 118 386 79 q 324 26 365 64 q 219 -11 283 -11 m 278 117 q 335 140 307 117 q 375 183 363 163 l 375 411 q 283 355 314 375 q 230 301 253 335 q 207 221 207 267 q 225 144 207 171 q 278 117 243 117 z "},"á":{"ha":592,"x_min":58,"x_max":538,"o":"m 219 -11 q 137 15 174 -11 q 79 85 100 42 q 58 175 58 128 q 99 328 58 269 q 201 422 139 388 q 375 501 263 456 l 375 558 q 359 670 375 638 q 294 703 343 703 q 210 589 210 703 l 210 549 l 63 554 l 64 583 q 131 759 71 704 q 304 814 192 814 q 472 751 419 814 q 524 560 524 688 l 524 193 q 538 0 524 103 l 401 0 q 382 118 386 79 q 324 26 365 64 q 219 -11 283 -11 m 278 117 q 335 140 307 117 q 375 183 363 163 l 375 411 q 283 355 314 375 q 230 301 253 335 q 207 221 207 267 q 225 144 207 171 q 278 117 243 117 m 347 1144 l 496 1144 l 340 869 l 265 869 l 347 1144 z "},"ă":{"ha":592,"x_min":58,"x_max":538,"o":"m 219 -11 q 137 15 174 -11 q 79 85 100 42 q 58 175 58 128 q 99 328 58 269 q 201 422 139 388 q 375 501 263 456 l 375 558 q 359 670 375 638 q 294 703 343 703 q 210 589 210 703 l 210 549 l 63 554 l 64 583 q 131 759 71 704 q 304 814 192 814 q 472 751 419 814 q 524 560 524 688 l 524 193 q 538 0 524 103 l 401 0 q 382 118 386 79 q 324 26 365 64 q 219 -11 283 -11 m 278 117 q 335 140 307 117 q 375 183 363 163 l 375 411 q 283 355 314 375 q 230 301 253 335 q 207 221 207 267 q 225 144 207 171 q 278 117 243 117 m 304 890 q 166 942 210 890 q 122 1079 122 993 l 208 1079 q 232 1001 210 1026 q 304 975 254 975 q 400 1079 400 975 l 488 1079 q 444 942 488 993 q 304 890 400 890 z "},"ắ":{"ha":592,"x_min":58,"x_max":538,"o":"m 219 -11 q 137 15 174 -11 q 79 85 100 42 q 58 175 58 128 q 99 328 58 269 q 201 422 139 388 q 375 501 263 456 l 375 558 q 359 670 375 638 q 294 703 343 703 q 210 589 210 703 l 210 549 l 63 554 l 64 583 q 131 759 71 704 q 304 814 192 814 q 472 751 419 814 q 524 560 524 688 l 524 193 q 538 0 524 103 l 401 0 q 382 118 386 79 q 324 26 365 64 q 219 -11 283 -11 m 278 117 q 335 140 307 117 q 375 183 363 163 l 375 411 q 283 355 314 375 q 230 301 253 335 q 207 221 207 267 q 225 144 207 171 q 278 117 243 117 m 322 1285 l 471 1285 l 322 1121 l 233 1121 l 322 1285 m 304 864 q 166 915 210 864 q 122 1053 122 967 l 208 1053 q 232 974 210 1000 q 304 949 254 949 q 400 1053 400 949 l 488 1053 q 444 915 488 967 q 304 864 400 864 z "},"ặ":{"ha":592,"x_min":58,"x_max":538,"o":"m 219 -11 q 137 15 174 -11 q 79 85 100 42 q 58 175 58 128 q 99 328 58 269 q 201 422 139 388 q 375 501 263 456 l 375 558 q 359 670 375 638 q 294 703 343 703 q 210 589 210 703 l 210 549 l 63 554 l 64 583 q 131 759 71 704 q 304 814 192 814 q 472 751 419 814 q 524 560 524 688 l 524 193 q 538 0 524 103 l 401 0 q 382 118 386 79 q 324 26 365 64 q 219 -11 283 -11 m 278 117 q 335 140 307 117 q 375 183 363 163 l 375 411 q 283 355 314 375 q 230 301 253 335 q 207 221 207 267 q 225 144 207 171 q 278 117 243 117 m 221 -87 l 371 -87 l 371 -244 l 221 -244 l 221 -87 m 304 890 q 166 942 210 890 q 122 1079 122 993 l 208 1079 q 232 1001 210 1026 q 304 975 254 975 q 400 1079 400 975 l 488 1079 q 444 942 488 993 q 304 890 400 890 z "},"ằ":{"ha":592,"x_min":58,"x_max":538,"o":"m 219 -11 q 137 15 174 -11 q 79 85 100 42 q 58 175 58 128 q 99 328 58 269 q 201 422 139 388 q 375 501 263 456 l 375 558 q 359 670 375 638 q 294 703 343 703 q 210 589 210 703 l 210 549 l 63 554 l 64 583 q 131 759 71 704 q 304 814 192 814 q 472 751 419 814 q 524 560 524 688 l 524 193 q 538 0 524 103 l 401 0 q 382 118 386 79 q 324 26 365 64 q 219 -11 283 -11 m 278 117 q 335 140 307 117 q 375 183 363 163 l 375 411 q 283 355 314 375 q 230 301 253 335 q 207 221 207 267 q 225 144 207 171 q 278 117 243 117 m 132 1285 l 281 1285 l 369 1121 l 281 1121 l 132 1285 m 304 864 q 166 915 210 864 q 122 1053 122 967 l 208 1053 q 232 974 210 1000 q 304 949 254 949 q 400 1053 400 949 l 488 1053 q 444 915 488 967 q 304 864 400 864 z "},"ẳ":{"ha":592,"x_min":58,"x_max":538,"o":"m 219 -11 q 137 15 174 -11 q 79 85 100 42 q 58 175 58 128 q 99 328 58 269 q 201 422 139 388 q 375 501 263 456 l 375 558 q 359 670 375 638 q 294 703 343 703 q 210 589 210 703 l 210 549 l 63 554 l 64 583 q 131 759 71 704 q 304 814 192 814 q 472 751 419 814 q 524 560 524 688 l 524 193 q 538 0 524 103 l 401 0 q 382 118 386 79 q 324 26 365 64 q 219 -11 283 -11 m 278 117 q 335 140 307 117 q 375 183 363 163 l 375 411 q 283 355 314 375 q 230 301 253 335 q 207 221 207 267 q 225 144 207 171 q 278 117 243 117 m 263 1136 q 313 1174 297 1156 q 329 1217 329 1192 q 310 1258 329 1244 q 261 1271 292 1271 q 197 1261 226 1271 l 197 1336 q 299 1350 244 1350 q 401 1319 361 1350 q 440 1229 440 1289 q 310 1081 440 1133 l 263 1136 m 304 890 q 166 942 210 890 q 122 1079 122 993 l 208 1079 q 232 1001 210 1026 q 304 975 254 975 q 400 1079 400 975 l 488 1079 q 444 942 488 993 q 304 890 400 890 z "},"ẵ":{"ha":592,"x_min":58,"x_max":538,"o":"m 219 -11 q 137 15 174 -11 q 79 85 100 42 q 58 175 58 128 q 99 328 58 269 q 201 422 139 388 q 375 501 263 456 l 375 558 q 359 670 375 638 q 294 703 343 703 q 210 589 210 703 l 210 549 l 63 554 l 64 583 q 131 759 71 704 q 304 814 192 814 q 472 751 419 814 q 524 560 524 688 l 524 193 q 538 0 524 103 l 401 0 q 382 118 386 79 q 324 26 365 64 q 219 -11 283 -11 m 278 117 q 335 140 307 117 q 375 183 363 163 l 375 411 q 283 355 314 375 q 230 301 253 335 q 207 221 207 267 q 225 144 207 171 q 278 117 243 117 m 303 890 q 165 942 208 890 q 121 1079 121 993 l 207 1079 q 231 1001 208 1026 q 303 975 253 975 q 399 1079 399 975 l 486 1079 q 442 942 486 993 q 303 890 399 890 m 410 1147 q 359 1157 382 1147 q 307 1185 336 1167 q 263 1208 279 1200 q 228 1215 246 1215 q 192 1202 203 1215 q 181 1158 181 1189 l 96 1158 q 207 1308 96 1308 q 252 1299 231 1308 q 301 1274 274 1290 q 347 1249 329 1257 q 383 1242 364 1242 q 419 1255 408 1242 q 429 1300 429 1268 l 513 1300 q 490 1188 513 1229 q 410 1147 467 1147 z "},"â":{"ha":592,"x_min":58,"x_max":538,"o":"m 219 -11 q 137 15 174 -11 q 79 85 100 42 q 58 175 58 128 q 99 328 58 269 q 201 422 139 388 q 375 501 263 456 l 375 558 q 359 670 375 638 q 294 703 343 703 q 210 589 210 703 l 210 549 l 63 554 l 64 583 q 131 759 71 704 q 304 814 192 814 q 472 751 419 814 q 524 560 524 688 l 524 193 q 538 0 524 103 l 401 0 q 382 118 386 79 q 324 26 365 64 q 219 -11 283 -11 m 278 117 q 335 140 307 117 q 375 183 363 163 l 375 411 q 283 355 314 375 q 230 301 253 335 q 207 221 207 267 q 225 144 207 171 q 278 117 243 117 m 228 1125 l 379 1125 l 500 882 l 388 882 l 303 1050 l 219 882 l 108 882 l 228 1125 z "},"ấ":{"ha":592,"x_min":58,"x_max":683,"o":"m 219 -11 q 137 15 174 -11 q 79 85 100 42 q 58 175 58 128 q 99 328 58 269 q 201 422 139 388 q 375 501 263 456 l 375 558 q 359 670 375 638 q 294 703 343 703 q 210 589 210 703 l 210 549 l 63 554 l 64 583 q 131 759 71 704 q 304 814 192 814 q 472 751 419 814 q 524 560 524 688 l 524 193 q 538 0 524 103 l 401 0 q 382 118 386 79 q 324 26 365 64 q 219 -11 283 -11 m 278 117 q 335 140 307 117 q 375 183 363 163 l 375 411 q 283 355 314 375 q 230 301 253 335 q 207 221 207 267 q 225 144 207 171 q 278 117 243 117 m 554 1186 l 683 1186 l 572 1026 l 481 1026 l 554 1186 m 228 1097 l 379 1097 l 500 882 l 388 882 l 303 1022 l 219 882 l 108 882 l 228 1097 z "},"ậ":{"ha":592,"x_min":58,"x_max":538,"o":"m 219 -11 q 137 15 174 -11 q 79 85 100 42 q 58 175 58 128 q 99 328 58 269 q 201 422 139 388 q 375 501 263 456 l 375 558 q 359 670 375 638 q 294 703 343 703 q 210 589 210 703 l 210 549 l 63 554 l 64 583 q 131 759 71 704 q 304 814 192 814 q 472 751 419 814 q 524 560 524 688 l 524 193 q 538 0 524 103 l 401 0 q 382 118 386 79 q 324 26 365 64 q 219 -11 283 -11 m 278 117 q 335 140 307 117 q 375 183 363 163 l 375 411 q 283 355 314 375 q 230 301 253 335 q 207 221 207 267 q 225 144 207 171 q 278 117 243 117 m 221 -87 l 371 -87 l 371 -244 l 221 -244 l 221 -87 m 228 1097 l 379 1097 l 500 882 l 388 882 l 303 1022 l 219 882 l 108 882 l 228 1097 z "},"ầ":{"ha":592,"x_min":58,"x_max":607,"o":"m 219 -11 q 137 15 174 -11 q 79 85 100 42 q 58 175 58 128 q 99 328 58 269 q 201 422 139 388 q 375 501 263 456 l 375 558 q 359 670 375 638 q 294 703 343 703 q 210 589 210 703 l 210 549 l 63 554 l 64 583 q 131 759 71 704 q 304 814 192 814 q 472 751 419 814 q 524 560 524 688 l 524 193 q 538 0 524 103 l 401 0 q 382 118 386 79 q 324 26 365 64 q 219 -11 283 -11 m 278 117 q 335 140 307 117 q 375 183 363 163 l 375 411 q 283 355 314 375 q 230 301 253 335 q 207 221 207 267 q 225 144 207 171 q 278 117 243 117 m 404 1186 l 533 1186 l 607 1026 l 515 1026 l 404 1186 m 228 1097 l 379 1097 l 500 882 l 388 882 l 303 1022 l 219 882 l 108 882 l 228 1097 z "},"ẩ":{"ha":592,"x_min":58,"x_max":644,"o":"m 219 -11 q 137 15 174 -11 q 79 85 100 42 q 58 175 58 128 q 99 328 58 269 q 201 422 139 388 q 375 501 263 456 l 375 558 q 359 670 375 638 q 294 703 343 703 q 210 589 210 703 l 210 549 l 63 554 l 64 583 q 131 759 71 704 q 304 814 192 814 q 472 751 419 814 q 524 560 524 688 l 524 193 q 538 0 524 103 l 401 0 q 382 118 386 79 q 324 26 365 64 q 219 -11 283 -11 m 278 117 q 335 140 307 117 q 375 183 363 163 l 375 411 q 283 355 314 375 q 230 301 253 335 q 207 221 207 267 q 225 144 207 171 q 278 117 243 117 m 467 1051 q 517 1089 501 1071 q 533 1132 533 1107 q 515 1173 533 1160 q 465 1186 496 1186 q 401 1176 431 1186 l 401 1251 q 503 1265 449 1265 q 605 1235 565 1265 q 644 1144 644 1204 q 611 1055 644 1088 q 514 996 578 1022 l 467 1051 m 228 1097 l 379 1097 l 500 882 l 388 882 l 303 1022 l 219 882 l 108 882 l 228 1097 z "},"ẫ":{"ha":592,"x_min":58,"x_max":538,"o":"m 219 -11 q 137 15 174 -11 q 79 85 100 42 q 58 175 58 128 q 99 328 58 269 q 201 422 139 388 q 375 501 263 456 l 375 558 q 359 670 375 638 q 294 703 343 703 q 210 589 210 703 l 210 549 l 63 554 l 64 583 q 131 759 71 704 q 304 814 192 814 q 472 751 419 814 q 524 560 524 688 l 524 193 q 538 0 524 103 l 401 0 q 382 118 386 79 q 324 26 365 64 q 219 -11 283 -11 m 278 117 q 335 140 307 117 q 375 183 363 163 l 375 411 q 283 355 314 375 q 230 301 253 335 q 207 221 207 267 q 225 144 207 171 q 278 117 243 117 m 228 1097 l 379 1097 l 500 882 l 388 882 l 303 1022 l 219 882 l 108 882 l 228 1097 m 410 1161 q 359 1171 382 1161 q 307 1199 336 1181 q 263 1222 279 1214 q 228 1229 246 1229 q 192 1216 203 1229 q 181 1172 181 1203 l 96 1172 q 207 1322 96 1322 q 252 1313 231 1322 q 301 1288 274 1304 q 347 1263 329 1271 q 383 1256 364 1256 q 419 1269 408 1256 q 429 1314 429 1282 l 513 1314 q 490 1202 513 1243 q 410 1161 467 1161 z "},"ȁ":{"ha":592,"x_min":31,"x_max":538,"o":"m 219 -11 q 137 15 174 -11 q 79 85 100 42 q 58 175 58 128 q 99 328 58 269 q 201 422 139 388 q 375 501 263 456 l 375 558 q 359 670 375 638 q 294 703 343 703 q 210 589 210 703 l 210 549 l 63 554 l 64 583 q 131 759 71 704 q 304 814 192 814 q 472 751 419 814 q 524 560 524 688 l 524 193 q 538 0 524 103 l 401 0 q 382 118 386 79 q 324 26 365 64 q 219 -11 283 -11 m 278 117 q 335 140 307 117 q 375 183 363 163 l 375 411 q 283 355 314 375 q 230 301 253 335 q 207 221 207 267 q 225 144 207 171 q 278 117 243 117 m 31 1125 l 181 1125 l 261 889 l 186 889 l 31 1125 m 261 1125 l 383 1125 l 439 889 l 364 889 l 261 1125 z "},"ä":{"ha":592,"x_min":58,"x_max":538,"o":"m 219 -11 q 137 15 174 -11 q 79 85 100 42 q 58 175 58 128 q 99 328 58 269 q 201 422 139 388 q 375 501 263 456 l 375 558 q 359 670 375 638 q 294 703 343 703 q 210 589 210 703 l 210 549 l 63 554 l 64 583 q 131 759 71 704 q 304 814 192 814 q 472 751 419 814 q 524 560 524 688 l 524 193 q 538 0 524 103 l 401 0 q 382 118 386 79 q 324 26 365 64 q 219 -11 283 -11 m 278 117 q 335 140 307 117 q 375 183 363 163 l 375 411 q 283 355 314 375 q 230 301 253 335 q 207 221 207 267 q 225 144 207 171 q 278 117 243 117 m 110 1125 l 260 1125 l 260 971 l 110 971 l 110 1125 m 349 1125 l 499 1125 l 499 971 l 349 971 l 349 1125 z "},"ạ":{"ha":592,"x_min":58,"x_max":538,"o":"m 219 -11 q 137 15 174 -11 q 79 85 100 42 q 58 175 58 128 q 99 328 58 269 q 201 422 139 388 q 375 501 263 456 l 375 558 q 359 670 375 638 q 294 703 343 703 q 210 589 210 703 l 210 549 l 63 554 l 64 583 q 131 759 71 704 q 304 814 192 814 q 472 751 419 814 q 524 560 524 688 l 524 193 q 538 0 524 103 l 401 0 q 382 118 386 79 q 324 26 365 64 q 219 -11 283 -11 m 278 117 q 335 140 307 117 q 375 183 363 163 l 375 411 q 283 355 314 375 q 230 301 253 335 q 207 221 207 267 q 225 144 207 171 q 278 117 243 117 m 221 -87 l 371 -87 l 371 -244 l 221 -244 l 221 -87 z "},"à":{"ha":592,"x_min":58,"x_max":538,"o":"m 219 -11 q 137 15 174 -11 q 79 85 100 42 q 58 175 58 128 q 99 328 58 269 q 201 422 139 388 q 375 501 263 456 l 375 558 q 359 670 375 638 q 294 703 343 703 q 210 589 210 703 l 210 549 l 63 554 l 64 583 q 131 759 71 704 q 304 814 192 814 q 472 751 419 814 q 524 560 524 688 l 524 193 q 538 0 524 103 l 401 0 q 382 118 386 79 q 324 26 365 64 q 219 -11 283 -11 m 278 117 q 335 140 307 117 q 375 183 363 163 l 375 411 q 283 355 314 375 q 230 301 253 335 q 207 221 207 267 q 225 144 207 171 q 278 117 243 117 m 115 1144 l 264 1144 l 343 869 l 269 869 l 115 1144 z "},"ả":{"ha":592,"x_min":58,"x_max":538,"o":"m 219 -11 q 137 15 174 -11 q 79 85 100 42 q 58 175 58 128 q 99 328 58 269 q 201 422 139 388 q 375 501 263 456 l 375 558 q 359 670 375 638 q 294 703 343 703 q 210 589 210 703 l 210 549 l 63 554 l 64 583 q 131 759 71 704 q 304 814 192 814 q 472 751 419 814 q 524 560 524 688 l 524 193 q 538 0 524 103 l 401 0 q 382 118 386 79 q 324 26 365 64 q 219 -11 283 -11 m 278 117 q 335 140 307 117 q 375 183 363 163 l 375 411 q 283 355 314 375 q 230 301 253 335 q 207 221 207 267 q 225 144 207 171 q 278 117 243 117 m 258 939 q 326 976 304 958 q 349 1019 349 994 q 325 1060 349 1047 q 264 1074 301 1074 q 193 1064 226 1074 l 193 1139 q 306 1153 247 1153 q 417 1122 374 1153 q 460 1032 460 1092 q 421 942 460 975 q 306 883 382 910 l 258 939 z "},"ȃ":{"ha":592,"x_min":58,"x_max":538,"o":"m 219 -11 q 137 15 174 -11 q 79 85 100 42 q 58 175 58 128 q 99 328 58 269 q 201 422 139 388 q 375 501 263 456 l 375 558 q 359 670 375 638 q 294 703 343 703 q 210 589 210 703 l 210 549 l 63 554 l 64 583 q 131 759 71 704 q 304 814 192 814 q 472 751 419 814 q 524 560 524 688 l 524 193 q 538 0 524 103 l 401 0 q 382 118 386 79 q 324 26 365 64 q 219 -11 283 -11 m 278 117 q 335 140 307 117 q 375 183 363 163 l 375 411 q 283 355 314 375 q 230 301 253 335 q 207 221 207 267 q 225 144 207 171 q 278 117 243 117 m 121 918 q 162 1071 122 1017 q 304 1125 201 1125 q 447 1070 407 1125 q 488 918 488 1015 l 400 918 q 378 1013 400 985 q 304 1040 357 1040 q 231 1012 253 1040 q 208 918 210 983 l 121 918 z "},"ā":{"ha":592,"x_min":58,"x_max":538,"o":"m 219 -11 q 137 15 174 -11 q 79 85 100 42 q 58 175 58 128 q 99 328 58 269 q 201 422 139 388 q 375 501 263 456 l 375 558 q 359 670 375 638 q 294 703 343 703 q 210 589 210 703 l 210 549 l 63 554 l 64 583 q 131 759 71 704 q 304 814 192 814 q 472 751 419 814 q 524 560 524 688 l 524 193 q 538 0 524 103 l 401 0 q 382 118 386 79 q 324 26 365 64 q 219 -11 283 -11 m 278 117 q 335 140 307 117 q 375 183 363 163 l 375 411 q 283 355 314 375 q 230 301 253 335 q 207 221 207 267 q 225 144 207 171 q 278 117 243 117 m 171 1042 l 438 1042 l 438 951 l 171 951 l 171 1042 z "},"ą":{"ha":592,"x_min":58,"x_max":554,"o":"m 510 -246 q 554 -243 529 -246 l 529 -317 q 479 -321 506 -321 q 338 -297 389 -321 q 286 -201 286 -272 q 309 -116 286 -158 q 368 -42 332 -74 q 440 0 404 -11 l 401 0 q 382 118 386 79 q 324 26 365 64 q 219 -11 283 -11 q 137 15 174 -11 q 79 85 100 42 q 58 175 58 128 q 99 328 58 269 q 201 422 139 388 q 375 501 263 456 l 375 558 q 359 670 375 638 q 294 703 343 703 q 210 589 210 703 l 210 549 l 63 554 l 64 583 q 131 759 71 704 q 304 814 192 814 q 472 751 419 814 q 524 560 524 688 l 524 193 q 538 0 524 103 l 515 0 q 433 -88 468 -40 q 399 -179 399 -136 q 510 -246 399 -246 m 375 411 q 283 355 314 375 q 230 301 253 335 q 207 221 207 267 q 225 144 207 171 q 278 117 243 117 q 335 140 307 117 q 375 183 363 163 l 375 411 z "},"å":{"ha":592,"x_min":58,"x_max":538,"o":"m 219 -11 q 137 15 174 -11 q 79 85 100 42 q 58 175 58 128 q 99 328 58 269 q 201 422 139 388 q 375 501 263 456 l 375 558 q 359 670 375 638 q 294 703 343 703 q 210 589 210 703 l 210 549 l 63 554 l 64 583 q 131 759 71 704 q 304 814 192 814 q 472 751 419 814 q 524 560 524 688 l 524 193 q 538 0 524 103 l 401 0 q 382 118 386 79 q 324 26 365 64 q 219 -11 283 -11 m 278 117 q 335 140 307 117 q 375 183 363 163 l 375 411 q 283 355 314 375 q 230 301 253 335 q 207 221 207 267 q 225 144 207 171 q 278 117 243 117 m 304 828 q 192 870 235 828 q 149 983 149 913 q 191 1096 149 1054 q 304 1138 233 1138 q 417 1096 375 1138 q 460 983 460 1054 q 417 870 460 913 q 304 828 374 828 m 304 903 q 363 924 340 903 q 385 983 385 946 q 363 1042 385 1021 q 304 1064 342 1064 q 245 1043 267 1064 q 224 983 224 1022 q 245 924 224 946 q 304 903 267 903 z "},"ǻ":{"ha":592,"x_min":58,"x_max":538,"o":"m 219 -11 q 137 15 174 -11 q 79 85 100 42 q 58 175 58 128 q 99 328 58 269 q 201 422 139 388 q 375 501 263 456 l 375 558 q 359 670 375 638 q 294 703 343 703 q 210 589 210 703 l 210 549 l 63 554 l 64 583 q 131 759 71 704 q 304 814 192 814 q 472 751 419 814 q 524 560 524 688 l 524 193 q 538 0 524 103 l 401 0 q 382 118 386 79 q 324 26 365 64 q 219 -11 283 -11 m 278 117 q 335 140 307 117 q 375 183 363 163 l 375 411 q 283 355 314 375 q 230 301 253 335 q 207 221 207 267 q 225 144 207 171 q 278 117 243 117 m 304 828 q 192 870 235 828 q 149 983 149 913 q 191 1096 149 1054 q 304 1138 233 1138 q 417 1096 375 1138 q 460 983 460 1054 q 417 870 460 913 q 304 828 374 828 m 304 903 q 363 924 340 903 q 385 983 385 946 q 363 1042 385 1021 q 304 1064 342 1064 q 245 1043 267 1064 q 224 983 224 1022 q 245 924 224 946 q 304 903 267 903 m 347 1479 l 496 1479 l 340 1204 l 265 1204 l 347 1479 z "},"ã":{"ha":592,"x_min":58,"x_max":538,"o":"m 219 -11 q 137 15 174 -11 q 79 85 100 42 q 58 175 58 128 q 99 328 58 269 q 201 422 139 388 q 375 501 263 456 l 375 558 q 359 670 375 638 q 294 703 343 703 q 210 589 210 703 l 210 549 l 63 554 l 64 583 q 131 759 71 704 q 304 814 192 814 q 472 751 419 814 q 524 560 524 688 l 524 193 q 538 0 524 103 l 401 0 q 382 118 386 79 q 324 26 365 64 q 219 -11 283 -11 m 278 117 q 335 140 307 117 q 375 183 363 163 l 375 411 q 283 355 314 375 q 230 301 253 335 q 207 221 207 267 q 225 144 207 171 q 278 117 243 117 m 410 972 q 359 982 382 972 q 307 1010 336 992 q 263 1033 279 1025 q 228 1040 246 1040 q 192 1027 203 1040 q 181 983 181 1014 l 96 983 q 207 1133 96 1133 q 252 1124 231 1133 q 301 1099 274 1115 q 347 1074 329 1082 q 383 1067 364 1067 q 419 1080 408 1067 q 429 1125 429 1093 l 513 1125 q 490 1013 513 1054 q 410 972 467 972 z "},"æ":{"ha":907,"x_min":60,"x_max":846,"o":"m 846 279 l 846 246 q 790 56 846 122 q 617 -11 733 -11 q 497 33 544 -11 q 438 151 449 78 q 357 33 407 78 q 238 -11 307 -11 q 147 15 188 -11 q 83 83 106 40 q 60 175 60 125 q 115 338 60 279 q 274 425 169 396 l 382 454 l 382 558 q 364 665 382 629 q 297 700 346 700 q 210 568 210 700 l 63 568 q 126 748 64 682 q 297 814 188 814 q 396 785 356 814 q 454 710 436 757 q 526 785 475 757 q 643 814 576 814 q 790 761 740 814 q 839 615 839 708 q 810 507 839 547 q 738 448 781 467 q 629 413 694 429 l 531 392 l 531 354 q 534 226 531 274 q 557 143 538 179 q 618 107 576 107 q 680 143 663 107 q 697 244 697 179 l 697 279 l 846 279 m 531 472 l 607 490 q 681 530 658 506 q 703 606 703 554 q 683 669 703 644 q 621 693 664 693 q 551 656 571 693 q 531 551 531 619 l 531 472 m 382 368 q 347 358 369 365 q 318 347 325 350 q 236 291 264 324 q 208 207 208 258 q 229 133 208 161 q 281 104 250 104 q 353 153 324 104 q 382 293 382 203 l 382 368 z "},"ǽ":{"ha":907,"x_min":60,"x_max":846,"o":"m 846 279 l 846 246 q 790 56 846 122 q 617 -11 733 -11 q 497 33 544 -11 q 438 151 449 78 q 357 33 407 78 q 238 -11 307 -11 q 147 15 188 -11 q 83 83 106 40 q 60 175 60 125 q 115 338 60 279 q 274 425 169 396 l 382 454 l 382 558 q 364 665 382 629 q 297 700 346 700 q 210 568 210 700 l 63 568 q 126 748 64 682 q 297 814 188 814 q 396 785 356 814 q 454 710 436 757 q 526 785 475 757 q 643 814 576 814 q 790 761 740 814 q 839 615 839 708 q 810 507 839 547 q 738 448 781 467 q 629 413 694 429 l 531 392 l 531 354 q 534 226 531 274 q 557 143 538 179 q 618 107 576 107 q 680 143 663 107 q 697 244 697 179 l 697 279 l 846 279 m 531 472 l 607 490 q 681 530 658 506 q 703 606 703 554 q 683 669 703 644 q 621 693 664 693 q 551 656 571 693 q 531 551 531 619 l 531 472 m 382 368 q 347 358 369 365 q 318 347 325 350 q 236 291 264 324 q 208 207 208 258 q 229 133 208 161 q 281 104 250 104 q 353 153 324 104 q 382 293 382 203 l 382 368 m 497 1144 l 646 1144 l 490 869 l 415 869 l 497 1144 z "},"b":{"ha":621,"x_min":78,"x_max":561,"o":"m 363 -11 q 226 58 290 -11 l 226 0 l 78 0 l 78 1125 l 226 1125 l 226 739 q 378 814 292 814 q 524 720 488 814 q 561 513 561 626 l 561 318 q 363 -11 561 -11 m 332 106 q 398 158 383 106 q 413 318 413 210 l 413 513 q 396 649 413 601 q 326 697 379 697 q 226 657 278 697 l 226 142 q 332 106 272 106 z "},"ḃ":{"ha":621,"x_min":78,"x_max":561,"o":"m 363 -11 q 226 58 290 -11 l 226 0 l 78 0 l 78 1125 l 226 1125 l 226 739 q 378 814 292 814 q 524 720 488 814 q 561 513 561 626 l 561 318 q 363 -11 561 -11 m 332 106 q 398 158 383 106 q 413 318 413 210 l 413 513 q 396 649 413 601 q 326 697 379 697 q 226 657 278 697 l 226 142 q 332 106 272 106 m 78 1419 l 228 1419 l 228 1254 l 78 1254 l 78 1419 z "},"c":{"ha":571,"x_min":60,"x_max":514,"o":"m 294 -11 q 149 27 200 -11 q 78 134 97 65 q 60 308 60 203 l 60 493 q 78 671 60 601 q 149 777 97 740 q 294 814 200 814 q 428 786 381 814 q 495 703 476 758 q 514 561 514 649 l 514 514 l 379 514 l 379 563 q 362 673 379 642 q 296 704 344 704 q 240 688 258 704 q 215 633 222 671 q 208 524 208 596 l 208 271 q 217 165 208 201 q 244 113 225 128 q 297 99 263 99 q 364 133 349 99 q 379 238 379 167 l 379 303 l 514 303 l 514 247 q 466 53 514 117 q 294 -11 418 -11 z "},"ć":{"ha":571,"x_min":60,"x_max":514,"o":"m 294 -11 q 149 27 200 -11 q 78 134 97 65 q 60 308 60 203 l 60 493 q 78 671 60 601 q 149 777 97 740 q 294 814 200 814 q 428 786 381 814 q 495 703 476 758 q 514 561 514 649 l 514 514 l 379 514 l 379 563 q 362 673 379 642 q 296 704 344 704 q 240 688 258 704 q 215 633 222 671 q 208 524 208 596 l 208 271 q 217 165 208 201 q 244 113 225 128 q 297 99 263 99 q 364 133 349 99 q 379 238 379 167 l 379 303 l 514 303 l 514 247 q 466 53 514 117 q 294 -11 418 -11 m 329 1144 l 478 1144 l 322 869 l 247 869 l 329 1144 z "},"č":{"ha":571,"x_min":60,"x_max":514,"o":"m 294 -11 q 149 27 200 -11 q 78 134 97 65 q 60 308 60 203 l 60 493 q 78 671 60 601 q 149 777 97 740 q 294 814 200 814 q 428 786 381 814 q 495 703 476 758 q 514 561 514 649 l 514 514 l 379 514 l 379 563 q 362 673 379 642 q 296 704 344 704 q 240 688 258 704 q 215 633 222 671 q 208 524 208 596 l 208 271 q 217 165 208 201 q 244 113 225 128 q 297 99 263 99 q 364 133 349 99 q 379 238 379 167 l 379 303 l 514 303 l 514 247 q 466 53 514 117 q 294 -11 418 -11 m 92 1125 l 206 1125 l 286 963 l 367 1125 l 481 1125 l 358 885 l 213 885 l 92 1125 z "},"ç":{"ha":571,"x_min":60,"x_max":514,"o":"m 379 514 l 379 563 q 362 673 379 642 q 296 704 344 704 q 240 688 258 704 q 215 633 222 671 q 208 524 208 596 l 208 271 q 217 165 208 201 q 244 113 225 128 q 297 99 263 99 q 364 133 349 99 q 379 238 379 167 l 379 303 l 514 303 l 514 247 q 472 61 514 125 q 324 -10 429 -3 l 324 -78 q 435 -110 393 -78 q 478 -197 478 -143 q 430 -294 478 -261 q 304 -326 382 -326 q 211 -312 264 -326 l 211 -237 q 282 -247 244 -247 q 343 -234 319 -247 q 367 -193 367 -221 q 338 -141 367 -158 q 249 -115 310 -124 l 249 -8 q 99 83 139 4 q 60 308 60 161 l 60 493 q 78 671 60 601 q 149 777 97 740 q 294 814 200 814 q 428 786 381 814 q 495 703 476 758 q 514 561 514 649 l 514 514 l 379 514 z "},"ĉ":{"ha":571,"x_min":60,"x_max":514,"o":"m 294 -11 q 149 27 200 -11 q 78 134 97 65 q 60 308 60 203 l 60 493 q 78 671 60 601 q 149 777 97 740 q 294 814 200 814 q 428 786 381 814 q 495 703 476 758 q 514 561 514 649 l 514 514 l 379 514 l 379 563 q 362 673 379 642 q 296 704 344 704 q 240 688 258 704 q 215 633 222 671 q 208 524 208 596 l 208 271 q 217 165 208 201 q 244 113 225 128 q 297 99 263 99 q 364 133 349 99 q 379 238 379 167 l 379 303 l 514 303 l 514 247 q 466 53 514 117 q 294 -11 418 -11 m 210 1125 l 361 1125 l 482 882 l 369 882 l 285 1050 l 201 882 l 90 882 l 210 1125 z "},"ċ":{"ha":571,"x_min":60,"x_max":514,"o":"m 294 -11 q 149 27 200 -11 q 78 134 97 65 q 60 308 60 203 l 60 493 q 78 671 60 601 q 149 777 97 740 q 294 814 200 814 q 428 786 381 814 q 495 703 476 758 q 514 561 514 649 l 514 514 l 379 514 l 379 563 q 362 673 379 642 q 296 704 344 704 q 240 688 258 704 q 215 633 222 671 q 208 524 208 596 l 208 271 q 217 165 208 201 q 244 113 225 128 q 297 99 263 99 q 364 133 349 99 q 379 238 379 167 l 379 303 l 514 303 l 514 247 q 466 53 514 117 q 294 -11 418 -11 m 211 1097 l 361 1097 l 361 932 l 211 932 l 211 1097 z "},"d":{"ha":614,"x_min":60,"x_max":539,"o":"m 258 -11 q 108 65 156 -11 q 60 315 60 142 l 60 471 q 102 722 60 631 q 257 814 144 814 q 390 751 328 814 l 390 1125 l 539 1125 l 539 0 l 390 0 l 390 51 q 258 -11 332 -11 m 299 106 q 390 136 343 106 l 390 663 q 296 697 339 697 q 208 529 208 697 l 208 303 q 226 156 208 206 q 299 106 244 106 z "},"ð":{"ha":654,"x_min":72,"x_max":614,"o":"m 315 -12 q 163 26 217 -12 q 91 133 110 64 q 72 313 72 203 l 72 406 q 118 677 72 581 q 290 774 164 774 q 425 724 369 774 q 376 910 413 854 l 211 858 l 211 933 l 336 969 q 253 1022 306 1004 q 107 1040 201 1039 l 114 1138 q 327 1105 247 1136 q 453 1007 407 1074 l 614 1054 l 614 979 l 490 946 q 557 747 536 846 q 578 524 578 649 l 578 329 q 516 76 578 165 q 315 -12 454 -12 m 319 106 q 408 153 388 106 q 429 304 429 201 l 431 476 q 428 606 431 528 q 412 620 425 607 q 376 642 399 633 q 328 651 354 651 q 244 591 267 651 q 221 394 221 531 l 219 286 q 239 151 219 197 q 319 106 258 106 z "},"ď":{"ha":731,"x_min":60,"x_max":758,"o":"m 258 -11 q 108 65 156 -11 q 60 315 60 142 l 60 471 q 102 722 60 631 q 257 814 144 814 q 390 751 328 814 l 390 1125 l 539 1125 l 539 0 l 390 0 l 390 51 q 258 -11 332 -11 m 299 106 q 390 136 343 106 l 390 663 q 296 697 339 697 q 208 529 208 697 l 208 303 q 226 156 208 206 q 299 106 244 106 m 604 847 q 663 891 642 860 q 685 965 685 922 l 606 965 l 606 1125 l 758 1125 l 758 968 q 726 851 758 894 q 628 783 694 807 l 604 847 z "},"đ":{"ha":631,"x_min":60,"x_max":621,"o":"m 258 -11 q 108 65 156 -11 q 60 315 60 142 l 60 471 q 102 722 60 631 q 257 814 144 814 q 390 751 328 814 l 390 943 l 235 943 l 235 1025 l 390 1025 l 390 1125 l 539 1125 l 539 1025 l 621 1025 l 621 943 l 539 943 l 539 0 l 390 0 l 390 51 q 258 -11 332 -11 m 299 106 q 390 136 343 106 l 390 663 q 296 697 339 697 q 208 529 208 697 l 208 303 q 226 156 208 206 q 299 106 244 106 z "},"ḋ":{"ha":614,"x_min":60,"x_max":540,"o":"m 258 -11 q 108 65 156 -11 q 60 315 60 142 l 60 471 q 102 722 60 631 q 257 814 144 814 q 390 751 328 814 l 390 1125 l 539 1125 l 539 0 l 390 0 l 390 51 q 258 -11 332 -11 m 299 106 q 390 136 343 106 l 390 663 q 296 697 339 697 q 208 529 208 697 l 208 303 q 226 156 208 206 q 299 106 244 106 m 390 1419 l 540 1419 l 540 1254 l 390 1254 l 390 1419 z "},"ǳ":{"ha":1096,"x_min":60,"x_max":1064,"o":"m 258 -11 q 108 65 156 -11 q 60 315 60 142 l 60 471 q 102 722 60 631 q 257 814 144 814 q 390 751 328 814 l 390 1125 l 539 1125 l 539 0 l 390 0 l 390 51 q 258 -11 332 -11 m 299 106 q 390 136 343 106 l 390 663 q 296 697 339 697 q 208 529 208 697 l 208 303 q 226 156 208 206 q 299 106 244 106 m 658 100 l 904 692 l 683 692 l 683 803 l 1064 803 l 1064 722 l 817 113 l 1058 113 l 1058 0 l 658 0 l 658 100 z "},"ǆ":{"ha":1096,"x_min":60,"x_max":1064,"o":"m 258 -11 q 108 65 156 -11 q 60 315 60 142 l 60 471 q 102 722 60 631 q 257 814 144 814 q 390 751 328 814 l 390 1125 l 539 1125 l 539 0 l 390 0 l 390 51 q 258 -11 332 -11 m 299 106 q 390 136 343 106 l 390 663 q 296 697 339 697 q 208 529 208 697 l 208 303 q 226 156 208 206 q 299 106 244 106 m 658 100 l 904 692 l 683 692 l 683 803 l 1064 803 l 1064 722 l 817 113 l 1058 113 l 1058 0 l 658 0 l 658 100 m 661 1125 l 775 1125 l 856 963 l 936 1125 l 1050 1125 l 928 885 l 782 885 l 661 1125 z "},"e":{"ha":585,"x_min":60,"x_max":525,"o":"m 297 -11 q 153 24 204 -11 q 81 129 101 60 q 60 310 60 199 l 60 493 q 112 737 60 660 q 297 814 164 814 q 444 774 394 814 q 509 660 493 733 q 525 464 525 588 l 525 399 l 208 399 l 208 292 q 212 183 208 219 q 234 123 215 147 q 296 99 253 99 q 362 131 344 99 q 379 231 379 164 l 379 279 l 524 279 l 524 249 q 469 56 524 122 q 297 -11 415 -11 m 379 479 l 379 551 q 363 669 379 633 q 296 704 347 704 q 241 688 260 704 q 215 633 222 671 q 208 522 208 594 l 208 479 l 379 479 z "},"é":{"ha":585,"x_min":60,"x_max":525,"o":"m 297 -11 q 153 24 204 -11 q 81 129 101 60 q 60 310 60 199 l 60 493 q 112 737 60 660 q 297 814 164 814 q 444 774 394 814 q 509 660 493 733 q 525 464 525 588 l 525 399 l 208 399 l 208 292 q 212 183 208 219 q 234 123 215 147 q 296 99 253 99 q 362 131 344 99 q 379 231 379 164 l 379 279 l 524 279 l 524 249 q 469 56 524 122 q 297 -11 415 -11 m 379 479 l 379 551 q 363 669 379 633 q 296 704 347 704 q 241 688 260 704 q 215 633 222 671 q 208 522 208 594 l 208 479 l 379 479 m 336 1144 l 485 1144 l 329 869 l 254 869 l 336 1144 z "},"ĕ":{"ha":585,"x_min":60,"x_max":525,"o":"m 297 -11 q 153 24 204 -11 q 81 129 101 60 q 60 310 60 199 l 60 493 q 112 737 60 660 q 297 814 164 814 q 444 774 394 814 q 509 660 493 733 q 525 464 525 588 l 525 399 l 208 399 l 208 292 q 212 183 208 219 q 234 123 215 147 q 296 99 253 99 q 362 131 344 99 q 379 231 379 164 l 379 279 l 524 279 l 524 249 q 469 56 524 122 q 297 -11 415 -11 m 379 479 l 379 551 q 363 669 379 633 q 296 704 347 704 q 241 688 260 704 q 215 633 222 671 q 208 522 208 594 l 208 479 l 379 479 m 293 890 q 155 942 199 890 q 111 1079 111 993 l 197 1079 q 221 1001 199 1026 q 293 975 243 975 q 389 1079 389 975 l 476 1079 q 433 942 476 993 q 293 890 389 890 z "},"ě":{"ha":585,"x_min":60,"x_max":525,"o":"m 297 -11 q 153 24 204 -11 q 81 129 101 60 q 60 310 60 199 l 60 493 q 112 737 60 660 q 297 814 164 814 q 444 774 394 814 q 509 660 493 733 q 525 464 525 588 l 525 399 l 208 399 l 208 292 q 212 183 208 219 q 234 123 215 147 q 296 99 253 99 q 362 131 344 99 q 379 231 379 164 l 379 279 l 524 279 l 524 249 q 469 56 524 122 q 297 -11 415 -11 m 379 479 l 379 551 q 363 669 379 633 q 296 704 347 704 q 241 688 260 704 q 215 633 222 671 q 208 522 208 594 l 208 479 l 379 479 m 99 1125 l 213 1125 l 293 963 l 374 1125 l 488 1125 l 365 885 l 219 885 l 99 1125 z "},"ê":{"ha":585,"x_min":60,"x_max":525,"o":"m 297 -11 q 153 24 204 -11 q 81 129 101 60 q 60 310 60 199 l 60 493 q 112 737 60 660 q 297 814 164 814 q 444 774 394 814 q 509 660 493 733 q 525 464 525 588 l 525 399 l 208 399 l 208 292 q 212 183 208 219 q 234 123 215 147 q 296 99 253 99 q 362 131 344 99 q 379 231 379 164 l 379 279 l 524 279 l 524 249 q 469 56 524 122 q 297 -11 415 -11 m 379 479 l 379 551 q 363 669 379 633 q 296 704 347 704 q 241 688 260 704 q 215 633 222 671 q 208 522 208 594 l 208 479 l 379 479 m 217 1125 l 368 1125 l 489 882 l 376 882 l 292 1050 l 208 882 l 97 882 l 217 1125 z "},"ế":{"ha":585,"x_min":60,"x_max":672,"o":"m 297 -11 q 153 24 204 -11 q 81 129 101 60 q 60 310 60 199 l 60 493 q 112 737 60 660 q 297 814 164 814 q 444 774 394 814 q 509 660 493 733 q 525 464 525 588 l 525 399 l 208 399 l 208 292 q 212 183 208 219 q 234 123 215 147 q 296 99 253 99 q 362 131 344 99 q 379 231 379 164 l 379 279 l 524 279 l 524 249 q 469 56 524 122 q 297 -11 415 -11 m 379 479 l 379 551 q 363 669 379 633 q 296 704 347 704 q 241 688 260 704 q 215 633 222 671 q 208 522 208 594 l 208 479 l 379 479 m 543 1186 l 672 1186 l 561 1026 l 469 1026 l 543 1186 m 217 1097 l 368 1097 l 489 882 l 376 882 l 292 1022 l 208 882 l 97 882 l 217 1097 z "},"ệ":{"ha":585,"x_min":60,"x_max":525,"o":"m 297 -11 q 153 24 204 -11 q 81 129 101 60 q 60 310 60 199 l 60 493 q 112 737 60 660 q 297 814 164 814 q 444 774 394 814 q 509 660 493 733 q 525 464 525 588 l 525 399 l 208 399 l 208 292 q 212 183 208 219 q 234 123 215 147 q 296 99 253 99 q 362 131 344 99 q 379 231 379 164 l 379 279 l 524 279 l 524 249 q 469 56 524 122 q 297 -11 415 -11 m 379 479 l 379 551 q 363 669 379 633 q 296 704 347 704 q 241 688 260 704 q 215 633 222 671 q 208 522 208 594 l 208 479 l 379 479 m 218 -87 l 368 -87 l 368 -244 l 218 -244 l 218 -87 m 217 1097 l 368 1097 l 489 882 l 376 882 l 292 1022 l 208 882 l 97 882 l 217 1097 z "},"ề":{"ha":585,"x_min":60,"x_max":596,"o":"m 297 -11 q 153 24 204 -11 q 81 129 101 60 q 60 310 60 199 l 60 493 q 112 737 60 660 q 297 814 164 814 q 444 774 394 814 q 509 660 493 733 q 525 464 525 588 l 525 399 l 208 399 l 208 292 q 212 183 208 219 q 234 123 215 147 q 296 99 253 99 q 362 131 344 99 q 379 231 379 164 l 379 279 l 524 279 l 524 249 q 469 56 524 122 q 297 -11 415 -11 m 379 479 l 379 551 q 363 669 379 633 q 296 704 347 704 q 241 688 260 704 q 215 633 222 671 q 208 522 208 594 l 208 479 l 379 479 m 393 1186 l 522 1186 l 596 1026 l 504 1026 l 393 1186 m 217 1097 l 368 1097 l 489 882 l 376 882 l 292 1022 l 208 882 l 97 882 l 217 1097 z "},"ể":{"ha":585,"x_min":60,"x_max":633,"o":"m 297 -11 q 153 24 204 -11 q 81 129 101 60 q 60 310 60 199 l 60 493 q 112 737 60 660 q 297 814 164 814 q 444 774 394 814 q 509 660 493 733 q 525 464 525 588 l 525 399 l 208 399 l 208 292 q 212 183 208 219 q 234 123 215 147 q 296 99 253 99 q 362 131 344 99 q 379 231 379 164 l 379 279 l 524 279 l 524 249 q 469 56 524 122 q 297 -11 415 -11 m 379 479 l 379 551 q 363 669 379 633 q 296 704 347 704 q 241 688 260 704 q 215 633 222 671 q 208 522 208 594 l 208 479 l 379 479 m 456 1051 q 506 1089 490 1071 q 522 1132 522 1107 q 503 1173 522 1160 q 454 1186 485 1186 q 390 1176 419 1186 l 390 1251 q 492 1265 438 1265 q 594 1235 554 1265 q 633 1144 633 1204 q 600 1055 633 1088 q 503 996 567 1022 l 456 1051 m 217 1097 l 368 1097 l 489 882 l 376 882 l 292 1022 l 208 882 l 97 882 l 217 1097 z "},"ễ":{"ha":585,"x_min":60,"x_max":525,"o":"m 297 -11 q 153 24 204 -11 q 81 129 101 60 q 60 310 60 199 l 60 493 q 112 737 60 660 q 297 814 164 814 q 444 774 394 814 q 509 660 493 733 q 525 464 525 588 l 525 399 l 208 399 l 208 292 q 212 183 208 219 q 234 123 215 147 q 296 99 253 99 q 362 131 344 99 q 379 231 379 164 l 379 279 l 524 279 l 524 249 q 469 56 524 122 q 297 -11 415 -11 m 379 479 l 379 551 q 363 669 379 633 q 296 704 347 704 q 241 688 260 704 q 215 633 222 671 q 208 522 208 594 l 208 479 l 379 479 m 217 1097 l 368 1097 l 489 882 l 376 882 l 292 1022 l 208 882 l 97 882 l 217 1097 m 399 1161 q 348 1171 371 1161 q 296 1199 325 1181 q 251 1222 268 1214 q 217 1229 235 1229 q 181 1216 192 1229 q 169 1172 169 1203 l 85 1172 q 196 1322 85 1322 q 241 1313 219 1322 q 290 1288 263 1304 q 335 1263 318 1271 q 372 1256 353 1256 q 408 1269 397 1256 q 418 1314 418 1282 l 501 1314 q 478 1202 501 1243 q 399 1161 456 1161 z "},"ȅ":{"ha":585,"x_min":19,"x_max":525,"o":"m 297 -11 q 153 24 204 -11 q 81 129 101 60 q 60 310 60 199 l 60 493 q 112 737 60 660 q 297 814 164 814 q 444 774 394 814 q 509 660 493 733 q 525 464 525 588 l 525 399 l 208 399 l 208 292 q 212 183 208 219 q 234 123 215 147 q 296 99 253 99 q 362 131 344 99 q 379 231 379 164 l 379 279 l 524 279 l 524 249 q 469 56 524 122 q 297 -11 415 -11 m 379 479 l 379 551 q 363 669 379 633 q 296 704 347 704 q 241 688 260 704 q 215 633 222 671 q 208 522 208 594 l 208 479 l 379 479 m 19 1125 l 169 1125 l 250 889 l 175 889 l 19 1125 m 250 1125 l 372 1125 l 428 889 l 353 889 l 250 1125 z "},"ë":{"ha":585,"x_min":60,"x_max":525,"o":"m 297 -11 q 153 24 204 -11 q 81 129 101 60 q 60 310 60 199 l 60 493 q 112 737 60 660 q 297 814 164 814 q 444 774 394 814 q 509 660 493 733 q 525 464 525 588 l 525 399 l 208 399 l 208 292 q 212 183 208 219 q 234 123 215 147 q 296 99 253 99 q 362 131 344 99 q 379 231 379 164 l 379 279 l 524 279 l 524 249 q 469 56 524 122 q 297 -11 415 -11 m 379 479 l 379 551 q 363 669 379 633 q 296 704 347 704 q 241 688 260 704 q 215 633 222 671 q 208 522 208 594 l 208 479 l 379 479 m 99 1125 l 249 1125 l 249 971 l 99 971 l 99 1125 m 338 1125 l 488 1125 l 488 971 l 338 971 l 338 1125 z "},"ė":{"ha":585,"x_min":60,"x_max":525,"o":"m 297 -11 q 153 24 204 -11 q 81 129 101 60 q 60 310 60 199 l 60 493 q 112 737 60 660 q 297 814 164 814 q 444 774 394 814 q 509 660 493 733 q 525 464 525 588 l 525 399 l 208 399 l 208 292 q 212 183 208 219 q 234 123 215 147 q 296 99 253 99 q 362 131 344 99 q 379 231 379 164 l 379 279 l 524 279 l 524 249 q 469 56 524 122 q 297 -11 415 -11 m 379 479 l 379 551 q 363 669 379 633 q 296 704 347 704 q 241 688 260 704 q 215 633 222 671 q 208 522 208 594 l 208 479 l 379 479 m 218 1097 l 368 1097 l 368 932 l 218 932 l 218 1097 z "},"ẹ":{"ha":585,"x_min":60,"x_max":525,"o":"m 297 -11 q 153 24 204 -11 q 81 129 101 60 q 60 310 60 199 l 60 493 q 112 737 60 660 q 297 814 164 814 q 444 774 394 814 q 509 660 493 733 q 525 464 525 588 l 525 399 l 208 399 l 208 292 q 212 183 208 219 q 234 123 215 147 q 296 99 253 99 q 362 131 344 99 q 379 231 379 164 l 379 279 l 524 279 l 524 249 q 469 56 524 122 q 297 -11 415 -11 m 379 479 l 379 551 q 363 669 379 633 q 296 704 347 704 q 241 688 260 704 q 215 633 222 671 q 208 522 208 594 l 208 479 l 379 479 m 218 -87 l 368 -87 l 368 -244 l 218 -244 l 218 -87 z "},"è":{"ha":585,"x_min":60,"x_max":525,"o":"m 297 -11 q 153 24 204 -11 q 81 129 101 60 q 60 310 60 199 l 60 493 q 112 737 60 660 q 297 814 164 814 q 444 774 394 814 q 509 660 493 733 q 525 464 525 588 l 525 399 l 208 399 l 208 292 q 212 183 208 219 q 234 123 215 147 q 296 99 253 99 q 362 131 344 99 q 379 231 379 164 l 379 279 l 524 279 l 524 249 q 469 56 524 122 q 297 -11 415 -11 m 379 479 l 379 551 q 363 669 379 633 q 296 704 347 704 q 241 688 260 704 q 215 633 222 671 q 208 522 208 594 l 208 479 l 379 479 m 104 1144 l 253 1144 l 332 869 l 258 869 l 104 1144 z "},"ẻ":{"ha":585,"x_min":60,"x_max":525,"o":"m 297 -11 q 153 24 204 -11 q 81 129 101 60 q 60 310 60 199 l 60 493 q 112 737 60 660 q 297 814 164 814 q 444 774 394 814 q 509 660 493 733 q 525 464 525 588 l 525 399 l 208 399 l 208 292 q 212 183 208 219 q 234 123 215 147 q 296 99 253 99 q 362 131 344 99 q 379 231 379 164 l 379 279 l 524 279 l 524 249 q 469 56 524 122 q 297 -11 415 -11 m 379 479 l 379 551 q 363 669 379 633 q 296 704 347 704 q 241 688 260 704 q 215 633 222 671 q 208 522 208 594 l 208 479 l 379 479 m 247 939 q 315 976 293 958 q 338 1019 338 994 q 314 1060 338 1047 q 253 1074 290 1074 q 182 1064 215 1074 l 182 1139 q 294 1153 236 1153 q 406 1122 363 1153 q 449 1032 449 1092 q 410 942 449 975 q 294 883 371 910 l 247 939 z "},"ȇ":{"ha":585,"x_min":60,"x_max":525,"o":"m 297 -11 q 153 24 204 -11 q 81 129 101 60 q 60 310 60 199 l 60 493 q 112 737 60 660 q 297 814 164 814 q 444 774 394 814 q 509 660 493 733 q 525 464 525 588 l 525 399 l 208 399 l 208 292 q 212 183 208 219 q 234 123 215 147 q 296 99 253 99 q 362 131 344 99 q 379 231 379 164 l 379 279 l 524 279 l 524 249 q 469 56 524 122 q 297 -11 415 -11 m 379 479 l 379 551 q 363 669 379 633 q 296 704 347 704 q 241 688 260 704 q 215 633 222 671 q 208 522 208 594 l 208 479 l 379 479 m 110 918 q 151 1071 111 1017 q 293 1125 190 1125 q 436 1070 396 1125 q 476 918 476 1015 l 389 918 q 367 1013 389 985 q 293 1040 346 1040 q 220 1012 242 1040 q 197 918 199 983 l 110 918 z "},"ē":{"ha":585,"x_min":60,"x_max":525,"o":"m 297 -11 q 153 24 204 -11 q 81 129 101 60 q 60 310 60 199 l 60 493 q 112 737 60 660 q 297 814 164 814 q 444 774 394 814 q 509 660 493 733 q 525 464 525 588 l 525 399 l 208 399 l 208 292 q 212 183 208 219 q 234 123 215 147 q 296 99 253 99 q 362 131 344 99 q 379 231 379 164 l 379 279 l 524 279 l 524 249 q 469 56 524 122 q 297 -11 415 -11 m 379 479 l 379 551 q 363 669 379 633 q 296 704 347 704 q 241 688 260 704 q 215 633 222 671 q 208 522 208 594 l 208 479 l 379 479 m 160 1042 l 426 1042 l 426 951 l 160 951 l 160 1042 z "},"ę":{"ha":585,"x_min":60,"x_max":525,"o":"m 208 292 q 212 183 208 219 q 234 123 215 147 q 296 99 253 99 q 362 131 344 99 q 379 231 379 164 l 379 279 l 524 279 l 524 249 q 485 77 524 142 q 364 -4 447 13 q 296 -85 324 -43 q 268 -165 268 -128 q 379 -232 268 -232 q 424 -229 399 -232 l 399 -303 q 349 -307 376 -307 q 207 -283 258 -307 q 156 -187 156 -258 q 186 -89 156 -137 q 261 -10 217 -40 q 103 77 147 0 q 60 310 60 154 l 60 493 q 112 737 60 660 q 297 814 164 814 q 444 774 394 814 q 509 660 493 733 q 525 464 525 588 l 525 399 l 208 399 l 208 292 m 208 479 l 379 479 l 379 551 q 363 669 379 633 q 296 704 347 704 q 241 688 260 704 q 215 633 222 671 q 208 522 208 594 l 208 479 z "},"ẽ":{"ha":585,"x_min":60,"x_max":525,"o":"m 297 -11 q 153 24 204 -11 q 81 129 101 60 q 60 310 60 199 l 60 493 q 112 737 60 660 q 297 814 164 814 q 444 774 394 814 q 509 660 493 733 q 525 464 525 588 l 525 399 l 208 399 l 208 292 q 212 183 208 219 q 234 123 215 147 q 296 99 253 99 q 362 131 344 99 q 379 231 379 164 l 379 279 l 524 279 l 524 249 q 469 56 524 122 q 297 -11 415 -11 m 379 479 l 379 551 q 363 669 379 633 q 296 704 347 704 q 241 688 260 704 q 215 633 222 671 q 208 522 208 594 l 208 479 l 379 479 m 399 972 q 348 982 371 972 q 296 1010 325 992 q 251 1033 268 1025 q 217 1040 235 1040 q 181 1027 192 1040 q 169 983 169 1014 l 85 983 q 196 1133 85 1133 q 241 1124 219 1133 q 290 1099 263 1115 q 335 1074 318 1082 q 372 1067 353 1067 q 408 1080 397 1067 q 418 1125 418 1093 l 501 1125 q 478 1013 501 1054 q 399 972 456 972 z "},"ə":{"ha":585,"x_min":60,"x_max":525,"o":"m 288 -12 q 141 28 190 -12 q 76 141 92 68 q 60 338 60 214 l 60 403 l 376 403 l 376 513 q 373 619 376 583 q 351 680 369 656 q 289 704 332 704 q 223 672 240 704 q 206 574 206 639 l 206 525 l 61 525 l 61 556 q 115 747 61 681 q 288 814 169 814 q 432 778 381 814 q 504 674 483 743 q 525 494 525 604 l 525 308 q 473 65 525 142 q 288 -12 421 -12 m 289 97 q 344 114 325 97 q 369 169 363 131 q 376 279 376 207 l 376 322 l 206 322 l 206 250 q 222 133 206 168 q 289 97 238 97 z "},"f":{"ha":399,"x_min":26,"x_max":393,"o":"m 122 693 l 26 693 l 26 803 l 122 803 l 122 844 q 135 978 122 928 q 185 1057 147 1029 q 296 1085 224 1085 q 393 1078 328 1085 l 393 967 q 365 971 382 968 q 338 974 347 974 q 284 948 297 974 q 271 869 271 922 l 271 803 l 393 803 l 393 693 l 271 693 l 271 0 l 122 0 l 122 693 z "},"ḟ":{"ha":399,"x_min":26,"x_max":393,"o":"m 122 693 l 26 693 l 26 803 l 122 803 l 122 844 q 135 978 122 928 q 185 1057 147 1029 q 296 1085 224 1085 q 393 1078 328 1085 l 393 967 q 365 971 382 968 q 338 974 347 974 q 284 948 297 974 q 271 869 271 922 l 271 803 l 393 803 l 393 693 l 271 693 l 271 0 l 122 0 l 122 693 m 197 1372 l 347 1372 l 347 1207 l 197 1207 l 197 1372 z "},"g":{"ha":604,"x_min":28,"x_max":621,"o":"m 325 -249 q 105 -225 182 -249 q 28 -124 28 -201 q 60 -15 28 -61 q 143 57 93 31 q 85 92 106 68 q 65 143 65 115 q 86 215 65 185 q 154 289 107 246 q 84 380 107 325 q 61 528 61 435 q 119 741 61 668 q 288 814 176 814 q 392 792 351 814 q 453 725 432 769 q 494 766 463 740 q 561 808 525 792 l 583 818 l 621 722 q 544 699 593 717 q 485 671 494 681 q 502 601 494 646 q 510 524 510 557 q 458 319 510 392 q 288 246 407 246 q 211 256 250 246 q 197 232 208 251 q 185 194 185 213 q 201 170 185 179 q 251 158 217 161 q 315 152 272 156 q 376 147 357 149 q 563 -49 563 131 q 505 -202 563 -156 q 325 -249 447 -249 m 288 350 q 365 392 347 350 q 383 528 383 433 q 365 667 383 624 q 289 711 347 711 q 210 667 231 711 q 190 528 190 624 q 210 396 190 442 q 288 350 231 350 m 322 -132 q 418 -113 388 -132 q 449 -53 449 -94 q 425 5 449 -14 q 339 29 401 24 l 213 40 q 172 -4 192 24 q 153 -64 153 -32 q 165 -103 153 -89 q 215 -125 178 -118 q 322 -132 251 -132 z "},"ǵ":{"ha":604,"x_min":28,"x_max":621,"o":"m 325 -249 q 105 -225 182 -249 q 28 -124 28 -201 q 60 -15 28 -61 q 143 57 93 31 q 85 92 106 68 q 65 143 65 115 q 86 215 65 185 q 154 289 107 246 q 84 380 107 325 q 61 528 61 435 q 119 741 61 668 q 288 814 176 814 q 392 792 351 814 q 453 725 432 769 q 494 766 463 740 q 561 808 525 792 l 583 818 l 621 722 q 544 699 593 717 q 485 671 494 681 q 502 601 494 646 q 510 524 510 557 q 458 319 510 392 q 288 246 407 246 q 211 256 250 246 q 197 232 208 251 q 185 194 185 213 q 201 170 185 179 q 251 158 217 161 q 315 152 272 156 q 376 147 357 149 q 563 -49 563 131 q 505 -202 563 -156 q 325 -249 447 -249 m 288 350 q 365 392 347 350 q 383 528 383 433 q 365 667 383 624 q 289 711 347 711 q 210 667 231 711 q 190 528 190 624 q 210 396 190 442 q 288 350 231 350 m 322 -132 q 418 -113 388 -132 q 449 -53 449 -94 q 425 5 449 -14 q 339 29 401 24 l 213 40 q 172 -4 192 24 q 153 -64 153 -32 q 165 -103 153 -89 q 215 -125 178 -118 q 322 -132 251 -132 m 346 1144 l 494 1144 l 339 869 l 264 869 l 346 1144 z "},"ğ":{"ha":604,"x_min":28,"x_max":621,"o":"m 325 -249 q 105 -225 182 -249 q 28 -124 28 -201 q 60 -15 28 -61 q 143 57 93 31 q 85 92 106 68 q 65 143 65 115 q 86 215 65 185 q 154 289 107 246 q 84 380 107 325 q 61 528 61 435 q 119 741 61 668 q 288 814 176 814 q 392 792 351 814 q 453 725 432 769 q 494 766 463 740 q 561 808 525 792 l 583 818 l 621 722 q 544 699 593 717 q 485 671 494 681 q 502 601 494 646 q 510 524 510 557 q 458 319 510 392 q 288 246 407 246 q 211 256 250 246 q 197 232 208 251 q 185 194 185 213 q 201 170 185 179 q 251 158 217 161 q 315 152 272 156 q 376 147 357 149 q 563 -49 563 131 q 505 -202 563 -156 q 325 -249 447 -249 m 288 350 q 365 392 347 350 q 383 528 383 433 q 365 667 383 624 q 289 711 347 711 q 210 667 231 711 q 190 528 190 624 q 210 396 190 442 q 288 350 231 350 m 322 -132 q 418 -113 388 -132 q 449 -53 449 -94 q 425 5 449 -14 q 339 29 401 24 l 213 40 q 172 -4 192 24 q 153 -64 153 -32 q 165 -103 153 -89 q 215 -125 178 -118 q 322 -132 251 -132 m 303 890 q 165 942 208 890 q 121 1079 121 993 l 207 1079 q 231 1001 208 1026 q 303 975 253 975 q 399 1079 399 975 l 486 1079 q 442 942 486 993 q 303 890 399 890 z "},"ǧ":{"ha":604,"x_min":28,"x_max":621,"o":"m 325 -249 q 105 -225 182 -249 q 28 -124 28 -201 q 60 -15 28 -61 q 143 57 93 31 q 85 92 106 68 q 65 143 65 115 q 86 215 65 185 q 154 289 107 246 q 84 380 107 325 q 61 528 61 435 q 119 741 61 668 q 288 814 176 814 q 392 792 351 814 q 453 725 432 769 q 494 766 463 740 q 561 808 525 792 l 583 818 l 621 722 q 544 699 593 717 q 485 671 494 681 q 502 601 494 646 q 510 524 510 557 q 458 319 510 392 q 288 246 407 246 q 211 256 250 246 q 197 232 208 251 q 185 194 185 213 q 201 170 185 179 q 251 158 217 161 q 315 152 272 156 q 376 147 357 149 q 563 -49 563 131 q 505 -202 563 -156 q 325 -249 447 -249 m 288 350 q 365 392 347 350 q 383 528 383 433 q 365 667 383 624 q 289 711 347 711 q 210 667 231 711 q 190 528 190 624 q 210 396 190 442 q 288 350 231 350 m 322 -132 q 418 -113 388 -132 q 449 -53 449 -94 q 425 5 449 -14 q 339 29 401 24 l 213 40 q 172 -4 192 24 q 153 -64 153 -32 q 165 -103 153 -89 q 215 -125 178 -118 q 322 -132 251 -132 m 108 1125 l 222 1125 l 303 963 l 383 1125 l 497 1125 l 375 885 l 229 885 l 108 1125 z "},"ĝ":{"ha":604,"x_min":28,"x_max":621,"o":"m 325 -249 q 105 -225 182 -249 q 28 -124 28 -201 q 60 -15 28 -61 q 143 57 93 31 q 85 92 106 68 q 65 143 65 115 q 86 215 65 185 q 154 289 107 246 q 84 380 107 325 q 61 528 61 435 q 119 741 61 668 q 288 814 176 814 q 392 792 351 814 q 453 725 432 769 q 494 766 463 740 q 561 808 525 792 l 583 818 l 621 722 q 544 699 593 717 q 485 671 494 681 q 502 601 494 646 q 510 524 510 557 q 458 319 510 392 q 288 246 407 246 q 211 256 250 246 q 197 232 208 251 q 185 194 185 213 q 201 170 185 179 q 251 158 217 161 q 315 152 272 156 q 376 147 357 149 q 563 -49 563 131 q 505 -202 563 -156 q 325 -249 447 -249 m 288 350 q 365 392 347 350 q 383 528 383 433 q 365 667 383 624 q 289 711 347 711 q 210 667 231 711 q 190 528 190 624 q 210 396 190 442 q 288 350 231 350 m 322 -132 q 418 -113 388 -132 q 449 -53 449 -94 q 425 5 449 -14 q 339 29 401 24 l 213 40 q 172 -4 192 24 q 153 -64 153 -32 q 165 -103 153 -89 q 215 -125 178 -118 q 322 -132 251 -132 m 226 1125 l 378 1125 l 499 882 l 386 882 l 301 1050 l 218 882 l 107 882 l 226 1125 z "},"ģ":{"ha":604,"x_min":28,"x_max":621,"o":"m 325 -249 q 105 -225 182 -249 q 28 -124 28 -201 q 60 -15 28 -61 q 143 57 93 31 q 85 92 106 68 q 65 143 65 115 q 86 215 65 185 q 154 289 107 246 q 84 380 107 325 q 61 528 61 435 q 119 741 61 668 q 288 814 176 814 q 392 792 351 814 q 453 725 432 769 q 494 766 463 740 q 561 808 525 792 l 583 818 l 621 722 q 544 699 593 717 q 485 671 494 681 q 502 601 494 646 q 510 524 510 557 q 458 319 510 392 q 288 246 407 246 q 211 256 250 246 q 197 232 208 251 q 185 194 185 213 q 201 170 185 179 q 251 158 217 161 q 315 152 272 156 q 376 147 357 149 q 563 -49 563 131 q 505 -202 563 -156 q 325 -249 447 -249 m 288 350 q 365 392 347 350 q 383 528 383 433 q 365 667 383 624 q 289 711 347 711 q 210 667 231 711 q 190 528 190 624 q 210 396 190 442 q 288 350 231 350 m 322 -132 q 418 -113 388 -132 q 449 -53 449 -94 q 425 5 449 -14 q 339 29 401 24 l 213 40 q 172 -4 192 24 q 153 -64 153 -32 q 165 -103 153 -89 q 215 -125 178 -118 q 322 -132 251 -132 m 379 1126 q 319 1103 338 1124 q 301 1040 301 1082 l 378 1040 l 378 889 l 226 889 l 228 1032 q 252 1156 229 1115 q 342 1200 275 1197 l 379 1126 z "},"ġ":{"ha":604,"x_min":28,"x_max":621,"o":"m 325 -249 q 105 -225 182 -249 q 28 -124 28 -201 q 60 -15 28 -61 q 143 57 93 31 q 85 92 106 68 q 65 143 65 115 q 86 215 65 185 q 154 289 107 246 q 84 380 107 325 q 61 528 61 435 q 119 741 61 668 q 288 814 176 814 q 392 792 351 814 q 453 725 432 769 q 494 766 463 740 q 561 808 525 792 l 583 818 l 621 722 q 544 699 593 717 q 485 671 494 681 q 502 601 494 646 q 510 524 510 557 q 458 319 510 392 q 288 246 407 246 q 211 256 250 246 q 197 232 208 251 q 185 194 185 213 q 201 170 185 179 q 251 158 217 161 q 315 152 272 156 q 376 147 357 149 q 563 -49 563 131 q 505 -202 563 -156 q 325 -249 447 -249 m 288 350 q 365 392 347 350 q 383 528 383 433 q 365 667 383 624 q 289 711 347 711 q 210 667 231 711 q 190 528 190 624 q 210 396 190 442 q 288 350 231 350 m 322 -132 q 418 -113 388 -132 q 449 -53 449 -94 q 425 5 449 -14 q 339 29 401 24 l 213 40 q 172 -4 192 24 q 153 -64 153 -32 q 165 -103 153 -89 q 215 -125 178 -118 q 322 -132 251 -132 m 228 1097 l 378 1097 l 378 932 l 228 932 l 228 1097 z "},"h":{"ha":618,"x_min":79,"x_max":549,"o":"m 79 1125 l 228 1125 l 228 719 q 429 814 328 814 q 522 767 494 814 q 549 650 549 719 l 549 0 l 400 0 l 400 607 q 386 675 400 653 q 336 697 372 697 q 228 644 288 697 l 228 0 l 79 0 l 79 1125 z "},"ħ":{"ha":618,"x_min":-8,"x_max":549,"o":"m 79 958 l -8 958 l -8 1042 l 79 1042 l 79 1125 l 228 1125 l 228 1042 l 397 1042 l 397 958 l 228 958 l 228 719 q 428 814 325 814 q 521 767 493 814 q 549 650 549 719 l 549 0 l 400 0 l 400 607 q 386 675 400 653 q 336 697 372 697 q 228 644 288 697 l 228 0 l 79 0 l 79 958 z "},"ĥ":{"ha":618,"x_min":-42,"x_max":549,"o":"m 79 1125 l 228 1125 l 228 719 q 429 814 328 814 q 522 767 494 814 q 549 650 549 719 l 549 0 l 400 0 l 400 607 q 386 675 400 653 q 336 697 372 697 q 228 644 288 697 l 228 0 l 79 0 l 79 1125 m 78 1447 l 229 1447 l 350 1204 l 238 1204 l 153 1372 l 69 1204 l -42 1204 l 78 1447 z "},"i":{"ha":318,"x_min":85,"x_max":233,"o":"m 85 1078 l 233 1078 l 233 922 l 85 922 l 85 1078 m 85 803 l 233 803 l 233 0 l 85 0 l 85 803 z "},"ı":{"ha":311,"x_min":85,"x_max":233,"o":"m 85 803 l 233 803 l 233 0 l 85 0 l 85 803 z "},"í":{"ha":311,"x_min":85,"x_max":351,"o":"m 85 803 l 233 803 l 233 0 l 85 0 l 85 803 m 203 1144 l 351 1144 l 196 869 l 121 869 l 203 1144 z "},"ĭ":{"ha":311,"x_min":-22,"x_max":343,"o":"m 85 803 l 233 803 l 233 0 l 85 0 l 85 803 m 160 890 q 22 942 65 890 q -22 1079 -22 993 l 64 1079 q 88 1001 65 1026 q 160 975 110 975 q 256 1079 256 975 l 343 1079 q 299 942 343 993 q 160 890 256 890 z "},"î":{"ha":311,"x_min":-36,"x_max":356,"o":"m 85 803 l 233 803 l 233 0 l 85 0 l 85 803 m 83 1125 l 235 1125 l 356 882 l 243 882 l 158 1050 l 75 882 l -36 882 l 83 1125 z "},"ȉ":{"ha":311,"x_min":-114,"x_max":294,"o":"m 85 803 l 233 803 l 233 0 l 85 0 l 85 803 m -114 1125 l 36 1125 l 117 889 l 42 889 l -114 1125 m 117 1125 l 239 1125 l 294 889 l 219 889 l 117 1125 z "},"ï":{"ha":311,"x_min":-35,"x_max":354,"o":"m 85 803 l 233 803 l 233 0 l 85 0 l 85 803 m -35 1125 l 115 1125 l 115 971 l -35 971 l -35 1125 m 204 1125 l 354 1125 l 354 971 l 204 971 l 204 1125 z "},"ị":{"ha":318,"x_min":85,"x_max":235,"o":"m 85 1078 l 233 1078 l 233 922 l 85 922 l 85 1078 m 85 803 l 233 803 l 233 0 l 85 0 l 85 803 m 85 -87 l 235 -87 l 235 -244 l 85 -244 l 85 -87 z "},"ì":{"ha":311,"x_min":-29,"x_max":233,"o":"m 85 803 l 233 803 l 233 0 l 85 0 l 85 803 m -29 1144 l 119 1144 l 199 869 l 125 869 l -29 1144 z "},"ỉ":{"ha":311,"x_min":49,"x_max":315,"o":"m 85 803 l 233 803 l 233 0 l 85 0 l 85 803 m 114 939 q 182 976 160 958 q 204 1019 204 994 q 181 1060 204 1047 q 119 1074 157 1074 q 49 1064 82 1074 l 49 1139 q 161 1153 103 1153 q 272 1122 229 1153 q 315 1032 315 1092 q 276 942 315 975 q 161 883 238 910 l 114 939 z "},"ȋ":{"ha":311,"x_min":-24,"x_max":343,"o":"m 85 803 l 233 803 l 233 0 l 85 0 l 85 803 m -24 918 q 17 1071 -22 1017 q 160 1125 57 1125 q 303 1070 263 1125 q 343 918 343 1015 l 256 918 q 234 1013 256 985 q 160 1040 213 1040 q 87 1012 108 1040 q 64 918 65 983 l -24 918 z "},"ĳ":{"ha":638,"x_min":85,"x_max":564,"o":"m 85 1078 l 233 1078 l 233 922 l 85 922 l 85 1078 m 85 803 l 233 803 l 233 0 l 85 0 l 85 803 m 414 1078 l 564 1078 l 564 922 l 414 922 l 414 1078 m 368 -203 q 292 -193 314 -203 l 292 -86 q 331 -90 321 -90 q 395 -65 376 -90 q 414 7 414 -39 l 414 803 l 563 803 l 563 -8 q 511 -153 563 -103 q 368 -203 460 -203 z "},"ī":{"ha":311,"x_min":26,"x_max":293,"o":"m 85 803 l 233 803 l 233 0 l 85 0 l 85 803 m 26 1042 l 293 1042 l 293 951 l 26 951 l 26 1042 z "},"į":{"ha":318,"x_min":-31,"x_max":238,"o":"m 85 1078 l 233 1078 l 233 922 l 85 922 l 85 1078 m 85 803 l 233 803 l 233 0 l 85 0 l 85 803 m 163 -321 q 21 -297 72 -321 q -31 -201 -31 -272 q -8 -116 -31 -158 q 51 -42 15 -74 q 124 0 88 -11 l 199 0 q 117 -88 151 -40 q 82 -179 82 -136 q 193 -246 82 -246 q 238 -243 213 -246 l 213 -317 q 163 -321 189 -321 z "},"ĩ":{"ha":311,"x_min":-49,"x_max":368,"o":"m 85 803 l 233 803 l 233 0 l 85 0 l 85 803 m 265 972 q 215 982 238 972 q 163 1010 192 992 q 118 1033 135 1025 q 83 1040 101 1040 q 47 1027 58 1040 q 36 983 36 1014 l -49 983 q 63 1133 -49 1133 q 108 1124 86 1133 q 157 1099 129 1115 q 202 1074 185 1082 q 239 1067 219 1067 q 274 1080 264 1067 q 285 1125 285 1093 l 368 1125 q 345 1013 368 1054 q 265 972 322 972 z "},"j":{"ha":319,"x_min":-26,"x_max":246,"o":"m 96 1078 l 246 1078 l 246 922 l 96 922 l 96 1078 m 50 -203 q -26 -193 -4 -203 l -26 -86 q 13 -90 3 -90 q 77 -65 58 -90 q 96 7 96 -39 l 96 803 l 244 803 l 244 -8 q 193 -153 244 -103 q 50 -203 142 -203 z "},"ȷ":{"ha":319,"x_min":-26,"x_max":244,"o":"m 50 -203 q -26 -193 -4 -203 l -26 -86 q 13 -90 3 -90 q 77 -65 58 -90 q 96 7 96 -39 l 96 803 l 244 803 l 244 -8 q 193 -153 244 -103 q 50 -203 142 -203 z "},"ĵ":{"ha":319,"x_min":-26,"x_max":367,"o":"m 50 -203 q -26 -193 -4 -203 l -26 -86 q 13 -90 3 -90 q 77 -65 58 -90 q 96 7 96 -39 l 96 803 l 244 803 l 244 -8 q 193 -153 244 -103 q 50 -203 142 -203 m 94 1125 l 246 1125 l 367 882 l 254 882 l 169 1050 l 86 882 l -25 882 l 94 1125 z "},"k":{"ha":596,"x_min":78,"x_max":599,"o":"m 78 1126 l 226 1126 l 226 456 l 443 803 l 599 803 l 410 489 l 593 0 l 444 0 l 294 411 l 226 308 l 226 1 l 78 1 l 78 1126 z "},"ķ":{"ha":596,"x_min":78,"x_max":599,"o":"m 78 1126 l 226 1126 l 226 456 l 443 803 l 599 803 l 410 489 l 593 0 l 444 0 l 294 411 l 226 308 l 226 1 l 78 1 l 78 1126 m 222 -325 q 282 -301 264 -322 q 300 -239 300 -281 l 224 -239 l 224 -87 l 375 -87 l 374 -231 q 349 -355 372 -314 q 260 -399 326 -396 l 222 -325 z "},"ĸ":{"ha":597,"x_min":82,"x_max":592,"o":"m 82 803 l 231 803 l 231 450 l 442 803 l 592 803 l 408 496 l 592 0 l 443 0 l 308 394 l 231 278 l 231 0 l 82 0 l 82 803 z "},"l":{"ha":318,"x_min":89,"x_max":238,"o":"m 89 1125 l 238 1125 l 238 0 l 89 0 l 89 1125 z "},"ĺ":{"ha":318,"x_min":89,"x_max":356,"o":"m 89 1125 l 238 1125 l 238 0 l 89 0 l 89 1125 m 207 1467 l 356 1467 l 200 1192 l 125 1192 l 207 1467 z "},"ľ":{"ha":429,"x_min":89,"x_max":457,"o":"m 89 1125 l 238 1125 l 238 0 l 89 0 l 89 1125 m 303 847 q 362 891 340 860 q 383 965 383 922 l 304 965 l 304 1125 l 457 1125 l 457 968 q 425 851 457 894 q 326 783 393 807 l 303 847 z "},"ļ":{"ha":318,"x_min":88,"x_max":240,"o":"m 89 1125 l 238 1125 l 238 0 l 89 0 l 89 1125 m 88 -325 q 147 -301 129 -322 q 165 -239 165 -281 l 89 -239 l 89 -87 l 240 -87 l 239 -231 q 215 -355 238 -314 q 125 -399 192 -396 l 88 -325 z "},"ŀ":{"ha":394,"x_min":89,"x_max":414,"o":"m 89 1125 l 238 1125 l 238 0 l 89 0 l 89 1125 m 306 683 l 414 683 l 414 531 l 306 531 l 306 683 z "},"ǉ":{"ha":638,"x_min":89,"x_max":564,"o":"m 89 1125 l 238 1125 l 238 0 l 89 0 l 89 1125 m 414 1078 l 564 1078 l 564 922 l 414 922 l 414 1078 m 368 -203 q 292 -193 314 -203 l 292 -86 q 331 -90 321 -90 q 395 -65 376 -90 q 414 7 414 -39 l 414 803 l 563 803 l 563 -8 q 511 -153 563 -103 q 368 -203 460 -203 z "},"ł":{"ha":371,"x_min":24,"x_max":351,"o":"m 118 578 l 24 532 l 24 649 l 118 693 l 118 1125 l 267 1125 l 267 761 l 351 803 l 351 688 l 267 646 l 267 0 l 118 0 l 118 578 z "},"m":{"ha":944,"x_min":75,"x_max":874,"o":"m 75 803 l 213 803 l 213 726 q 301 794 253 771 q 401 817 349 817 q 532 715 504 817 q 732 817 615 817 q 834 771 794 817 q 874 631 874 725 l 874 0 l 738 0 l 738 621 q 721 697 738 674 q 672 719 704 719 q 606 702 640 719 q 543 654 572 685 l 543 631 l 543 0 l 407 0 l 407 621 q 390 697 407 674 q 342 719 374 719 q 276 702 310 719 q 213 654 243 685 l 213 0 l 75 0 l 75 803 z "},"ṁ":{"ha":944,"x_min":75,"x_max":874,"o":"m 75 803 l 213 803 l 213 726 q 301 794 253 771 q 401 817 349 817 q 532 715 504 817 q 732 817 615 817 q 834 771 794 817 q 874 631 874 725 l 874 0 l 738 0 l 738 621 q 721 697 738 674 q 672 719 704 719 q 606 702 640 719 q 543 654 572 685 l 543 631 l 543 0 l 407 0 l 407 621 q 390 697 407 674 q 342 719 374 719 q 276 702 310 719 q 213 654 243 685 l 213 0 l 75 0 l 75 803 m 397 1097 l 547 1097 l 547 932 l 397 932 l 397 1097 z "},"n":{"ha":610,"x_min":75,"x_max":540,"o":"m 75 803 l 224 803 l 224 724 q 419 814 319 814 q 513 767 485 814 q 540 650 540 719 l 540 0 l 392 0 l 392 607 q 378 675 392 653 q 328 697 364 697 q 224 647 283 697 l 224 0 l 75 0 l 75 803 z "},"ń":{"ha":610,"x_min":75,"x_max":540,"o":"m 75 803 l 224 803 l 224 724 q 419 814 319 814 q 513 767 485 814 q 540 650 540 719 l 540 0 l 392 0 l 392 607 q 378 675 392 653 q 328 697 364 697 q 224 647 283 697 l 224 0 l 75 0 l 75 803 m 349 1144 l 497 1144 l 342 869 l 267 869 l 349 1144 z "},"ŉ":{"ha":696,"x_min":14,"x_max":639,"o":"m 14 903 q 73 947 51 915 q 94 1021 94 978 l 15 1021 l 15 1181 l 168 1181 l 168 1024 q 136 906 168 950 q 38 839 104 863 l 14 903 m 174 803 l 322 803 l 322 724 q 518 814 418 814 q 611 767 583 814 q 639 650 639 719 l 639 0 l 490 0 l 490 607 q 476 675 490 653 q 426 697 463 697 q 322 647 382 697 l 322 0 l 174 0 l 174 803 z "},"ň":{"ha":610,"x_min":75,"x_max":540,"o":"m 75 803 l 224 803 l 224 724 q 419 814 319 814 q 513 767 485 814 q 540 650 540 719 l 540 0 l 392 0 l 392 607 q 378 675 392 653 q 328 697 364 697 q 224 647 283 697 l 224 0 l 75 0 l 75 803 m 111 1125 l 225 1125 l 306 963 l 386 1125 l 500 1125 l 378 885 l 232 885 l 111 1125 z "},"ņ":{"ha":610,"x_min":75,"x_max":540,"o":"m 75 803 l 224 803 l 224 724 q 419 814 319 814 q 513 767 485 814 q 540 650 540 719 l 540 0 l 392 0 l 392 607 q 378 675 392 653 q 328 697 364 697 q 224 647 283 697 l 224 0 l 75 0 l 75 803 m 229 -325 q 289 -301 271 -322 q 307 -239 307 -281 l 231 -239 l 231 -87 l 382 -87 l 381 -231 q 356 -355 379 -314 q 267 -399 333 -396 l 229 -325 z "},"ŋ":{"ha":539,"x_min":61,"x_max":526,"o":"m 214 -143 q 316 -128 281 -143 q 365 -85 351 -114 q 378 -7 378 -56 l 378 607 q 365 675 378 653 q 314 697 351 697 q 210 647 269 697 l 210 0 l 61 0 l 61 803 l 210 803 l 210 724 q 407 814 306 814 q 499 767 472 814 q 526 650 526 719 l 526 -8 q 453 -192 526 -129 q 258 -256 381 -256 l 214 -256 l 214 -143 z "},"ǌ":{"ha":929,"x_min":75,"x_max":856,"o":"m 75 803 l 224 803 l 224 724 q 419 814 319 814 q 513 767 485 814 q 540 650 540 719 l 540 0 l 392 0 l 392 607 q 378 675 392 653 q 328 697 364 697 q 224 647 283 697 l 224 0 l 75 0 l 75 803 m 706 1078 l 856 1078 l 856 922 l 706 922 l 706 1078 m 660 -203 q 583 -193 606 -203 l 583 -86 q 622 -90 613 -90 q 687 -65 668 -90 q 706 7 706 -39 l 706 803 l 854 803 l 854 -8 q 803 -153 854 -103 q 660 -203 751 -203 z "},"ñ":{"ha":610,"x_min":75,"x_max":540,"o":"m 75 803 l 224 803 l 224 724 q 419 814 319 814 q 513 767 485 814 q 540 650 540 719 l 540 0 l 392 0 l 392 607 q 378 675 392 653 q 328 697 364 697 q 224 647 283 697 l 224 0 l 75 0 l 75 803 m 411 972 q 360 982 383 972 q 308 1010 338 992 q 264 1033 281 1025 q 229 1040 247 1040 q 193 1027 204 1040 q 182 983 182 1014 l 97 983 q 208 1133 97 1133 q 253 1124 232 1133 q 303 1099 275 1115 q 348 1074 331 1082 q 385 1067 365 1067 q 420 1080 410 1067 q 431 1125 431 1093 l 514 1125 q 491 1013 514 1054 q 411 972 468 972 z "},"o":{"ha":589,"x_min":60,"x_max":528,"o":"m 294 -11 q 113 65 167 -11 q 60 285 60 140 l 60 518 q 113 738 60 663 q 294 814 167 814 q 474 738 421 814 q 528 518 528 663 l 528 285 q 474 65 528 140 q 294 -11 421 -11 m 294 99 q 353 122 335 99 q 375 181 371 146 q 379 275 379 215 l 379 526 q 375 622 379 586 q 353 681 371 657 q 294 704 335 704 q 235 681 254 704 q 213 622 217 657 q 208 526 208 586 l 208 275 q 213 181 208 215 q 235 122 217 146 q 294 99 254 99 z "},"ó":{"ha":589,"x_min":60,"x_max":528,"o":"m 294 -11 q 113 65 167 -11 q 60 285 60 140 l 60 518 q 113 738 60 663 q 294 814 167 814 q 474 738 421 814 q 528 518 528 663 l 528 285 q 474 65 528 140 q 294 -11 421 -11 m 294 99 q 353 122 335 99 q 375 181 371 146 q 379 275 379 215 l 379 526 q 375 622 379 586 q 353 681 371 657 q 294 704 335 704 q 235 681 254 704 q 213 622 217 657 q 208 526 208 586 l 208 275 q 213 181 208 215 q 235 122 217 146 q 294 99 254 99 m 338 1144 l 486 1144 l 331 869 l 256 869 l 338 1144 z "},"ŏ":{"ha":589,"x_min":60,"x_max":528,"o":"m 294 -11 q 113 65 167 -11 q 60 285 60 140 l 60 518 q 113 738 60 663 q 294 814 167 814 q 474 738 421 814 q 528 518 528 663 l 528 285 q 474 65 528 140 q 294 -11 421 -11 m 294 99 q 353 122 335 99 q 375 181 371 146 q 379 275 379 215 l 379 526 q 375 622 379 586 q 353 681 371 657 q 294 704 335 704 q 235 681 254 704 q 213 622 217 657 q 208 526 208 586 l 208 275 q 213 181 208 215 q 235 122 217 146 q 294 99 254 99 m 294 890 q 156 942 200 890 q 113 1079 113 993 l 199 1079 q 222 1001 200 1026 q 294 975 244 975 q 390 1079 390 975 l 478 1079 q 434 942 478 993 q 294 890 390 890 z "},"ô":{"ha":589,"x_min":60,"x_max":528,"o":"m 294 -11 q 113 65 167 -11 q 60 285 60 140 l 60 518 q 113 738 60 663 q 294 814 167 814 q 474 738 421 814 q 528 518 528 663 l 528 285 q 474 65 528 140 q 294 -11 421 -11 m 294 99 q 353 122 335 99 q 375 181 371 146 q 379 275 379 215 l 379 526 q 375 622 379 586 q 353 681 371 657 q 294 704 335 704 q 235 681 254 704 q 213 622 217 657 q 208 526 208 586 l 208 275 q 213 181 208 215 q 235 122 217 146 q 294 99 254 99 m 218 1125 l 369 1125 l 490 882 l 378 882 l 293 1050 l 210 882 l 99 882 l 218 1125 z "},"ố":{"ha":589,"x_min":60,"x_max":674,"o":"m 294 -11 q 113 65 167 -11 q 60 285 60 140 l 60 518 q 113 738 60 663 q 294 814 167 814 q 474 738 421 814 q 528 518 528 663 l 528 285 q 474 65 528 140 q 294 -11 421 -11 m 294 99 q 353 122 335 99 q 375 181 371 146 q 379 275 379 215 l 379 526 q 375 622 379 586 q 353 681 371 657 q 294 704 335 704 q 235 681 254 704 q 213 622 217 657 q 208 526 208 586 l 208 275 q 213 181 208 215 q 235 122 217 146 q 294 99 254 99 m 544 1186 l 674 1186 l 563 1026 l 471 1026 l 544 1186 m 218 1097 l 369 1097 l 490 882 l 378 882 l 293 1022 l 210 882 l 99 882 l 218 1097 z "},"ộ":{"ha":589,"x_min":60,"x_max":528,"o":"m 294 -11 q 113 65 167 -11 q 60 285 60 140 l 60 518 q 113 738 60 663 q 294 814 167 814 q 474 738 421 814 q 528 518 528 663 l 528 285 q 474 65 528 140 q 294 -11 421 -11 m 294 99 q 353 122 335 99 q 375 181 371 146 q 379 275 379 215 l 379 526 q 375 622 379 586 q 353 681 371 657 q 294 704 335 704 q 235 681 254 704 q 213 622 217 657 q 208 526 208 586 l 208 275 q 213 181 208 215 q 235 122 217 146 q 294 99 254 99 m 219 -87 l 369 -87 l 369 -244 l 219 -244 l 219 -87 m 218 1097 l 369 1097 l 490 882 l 378 882 l 293 1022 l 210 882 l 99 882 l 218 1097 z "},"ồ":{"ha":589,"x_min":60,"x_max":597,"o":"m 294 -11 q 113 65 167 -11 q 60 285 60 140 l 60 518 q 113 738 60 663 q 294 814 167 814 q 474 738 421 814 q 528 518 528 663 l 528 285 q 474 65 528 140 q 294 -11 421 -11 m 294 99 q 353 122 335 99 q 375 181 371 146 q 379 275 379 215 l 379 526 q 375 622 379 586 q 353 681 371 657 q 294 704 335 704 q 235 681 254 704 q 213 622 217 657 q 208 526 208 586 l 208 275 q 213 181 208 215 q 235 122 217 146 q 294 99 254 99 m 394 1186 l 524 1186 l 597 1026 l 506 1026 l 394 1186 m 218 1097 l 369 1097 l 490 882 l 378 882 l 293 1022 l 210 882 l 99 882 l 218 1097 z "},"ổ":{"ha":589,"x_min":60,"x_max":635,"o":"m 294 -11 q 113 65 167 -11 q 60 285 60 140 l 60 518 q 113 738 60 663 q 294 814 167 814 q 474 738 421 814 q 528 518 528 663 l 528 285 q 474 65 528 140 q 294 -11 421 -11 m 294 99 q 353 122 335 99 q 375 181 371 146 q 379 275 379 215 l 379 526 q 375 622 379 586 q 353 681 371 657 q 294 704 335 704 q 235 681 254 704 q 213 622 217 657 q 208 526 208 586 l 208 275 q 213 181 208 215 q 235 122 217 146 q 294 99 254 99 m 457 1051 q 508 1089 492 1071 q 524 1132 524 1107 q 505 1173 524 1160 q 456 1186 486 1186 q 392 1176 421 1186 l 392 1251 q 493 1265 439 1265 q 595 1235 556 1265 q 635 1144 635 1204 q 601 1055 635 1088 q 504 996 568 1022 l 457 1051 m 218 1097 l 369 1097 l 490 882 l 378 882 l 293 1022 l 210 882 l 99 882 l 218 1097 z "},"ỗ":{"ha":589,"x_min":60,"x_max":528,"o":"m 294 -11 q 113 65 167 -11 q 60 285 60 140 l 60 518 q 113 738 60 663 q 294 814 167 814 q 474 738 421 814 q 528 518 528 663 l 528 285 q 474 65 528 140 q 294 -11 421 -11 m 294 99 q 353 122 335 99 q 375 181 371 146 q 379 275 379 215 l 379 526 q 375 622 379 586 q 353 681 371 657 q 294 704 335 704 q 235 681 254 704 q 213 622 217 657 q 208 526 208 586 l 208 275 q 213 181 208 215 q 235 122 217 146 q 294 99 254 99 m 218 1097 l 369 1097 l 490 882 l 378 882 l 293 1022 l 210 882 l 99 882 l 218 1097 m 400 1161 q 349 1171 372 1161 q 297 1199 326 1181 q 253 1222 269 1214 q 218 1229 236 1229 q 182 1216 193 1229 q 171 1172 171 1203 l 86 1172 q 197 1322 86 1322 q 242 1313 221 1322 q 292 1288 264 1304 q 337 1263 319 1271 q 374 1256 354 1256 q 409 1269 399 1256 q 419 1314 419 1282 l 503 1314 q 480 1202 503 1243 q 400 1161 457 1161 z "},"ȍ":{"ha":589,"x_min":21,"x_max":528,"o":"m 294 -11 q 113 65 167 -11 q 60 285 60 140 l 60 518 q 113 738 60 663 q 294 814 167 814 q 474 738 421 814 q 528 518 528 663 l 528 285 q 474 65 528 140 q 294 -11 421 -11 m 294 99 q 353 122 335 99 q 375 181 371 146 q 379 275 379 215 l 379 526 q 375 622 379 586 q 353 681 371 657 q 294 704 335 704 q 235 681 254 704 q 213 622 217 657 q 208 526 208 586 l 208 275 q 213 181 208 215 q 235 122 217 146 q 294 99 254 99 m 21 1125 l 171 1125 l 251 889 l 176 889 l 21 1125 m 251 1125 l 374 1125 l 429 889 l 354 889 l 251 1125 z "},"ö":{"ha":589,"x_min":60,"x_max":528,"o":"m 294 -11 q 113 65 167 -11 q 60 285 60 140 l 60 518 q 113 738 60 663 q 294 814 167 814 q 474 738 421 814 q 528 518 528 663 l 528 285 q 474 65 528 140 q 294 -11 421 -11 m 294 99 q 353 122 335 99 q 375 181 371 146 q 379 275 379 215 l 379 526 q 375 622 379 586 q 353 681 371 657 q 294 704 335 704 q 235 681 254 704 q 213 622 217 657 q 208 526 208 586 l 208 275 q 213 181 208 215 q 235 122 217 146 q 294 99 254 99 m 100 1125 l 250 1125 l 250 971 l 100 971 l 100 1125 m 339 1125 l 489 1125 l 489 971 l 339 971 l 339 1125 z "},"ȫ":{"ha":589,"x_min":60,"x_max":528,"o":"m 294 -11 q 113 65 167 -11 q 60 285 60 140 l 60 518 q 113 738 60 663 q 294 814 167 814 q 474 738 421 814 q 528 518 528 663 l 528 285 q 474 65 528 140 q 294 -11 421 -11 m 294 99 q 353 122 335 99 q 375 181 371 146 q 379 275 379 215 l 379 526 q 375 622 379 586 q 353 681 371 657 q 294 704 335 704 q 235 681 254 704 q 213 622 217 657 q 208 526 208 586 l 208 275 q 213 181 208 215 q 235 122 217 146 q 294 99 254 99 m 100 1125 l 250 1125 l 250 971 l 100 971 l 100 1125 m 339 1125 l 489 1125 l 489 971 l 339 971 l 339 1125 m 161 1364 l 428 1364 l 428 1274 l 161 1274 l 161 1364 z "},"ȱ":{"ha":589,"x_min":60,"x_max":528,"o":"m 294 -11 q 113 65 167 -11 q 60 285 60 140 l 60 518 q 113 738 60 663 q 294 814 167 814 q 474 738 421 814 q 528 518 528 663 l 528 285 q 474 65 528 140 q 294 -11 421 -11 m 294 99 q 353 122 335 99 q 375 181 371 146 q 379 275 379 215 l 379 526 q 375 622 379 586 q 353 681 371 657 q 294 704 335 704 q 235 681 254 704 q 213 622 217 657 q 208 526 208 586 l 208 275 q 213 181 208 215 q 235 122 217 146 q 294 99 254 99 m 219 1097 l 369 1097 l 369 932 l 219 932 l 219 1097 m 161 1336 l 428 1336 l 428 1246 l 161 1246 l 161 1336 z "},"ọ":{"ha":589,"x_min":60,"x_max":528,"o":"m 294 -11 q 113 65 167 -11 q 60 285 60 140 l 60 518 q 113 738 60 663 q 294 814 167 814 q 474 738 421 814 q 528 518 528 663 l 528 285 q 474 65 528 140 q 294 -11 421 -11 m 294 99 q 353 122 335 99 q 375 181 371 146 q 379 275 379 215 l 379 526 q 375 622 379 586 q 353 681 371 657 q 294 704 335 704 q 235 681 254 704 q 213 622 217 657 q 208 526 208 586 l 208 275 q 213 181 208 215 q 235 122 217 146 q 294 99 254 99 m 219 -87 l 369 -87 l 369 -244 l 219 -244 l 219 -87 z "},"ò":{"ha":589,"x_min":60,"x_max":528,"o":"m 294 -11 q 113 65 167 -11 q 60 285 60 140 l 60 518 q 113 738 60 663 q 294 814 167 814 q 474 738 421 814 q 528 518 528 663 l 528 285 q 474 65 528 140 q 294 -11 421 -11 m 294 99 q 353 122 335 99 q 375 181 371 146 q 379 275 379 215 l 379 526 q 375 622 379 586 q 353 681 371 657 q 294 704 335 704 q 235 681 254 704 q 213 622 217 657 q 208 526 208 586 l 208 275 q 213 181 208 215 q 235 122 217 146 q 294 99 254 99 m 106 1144 l 254 1144 l 333 869 l 260 869 l 106 1144 z "},"ỏ":{"ha":589,"x_min":60,"x_max":528,"o":"m 294 -11 q 113 65 167 -11 q 60 285 60 140 l 60 518 q 113 738 60 663 q 294 814 167 814 q 474 738 421 814 q 528 518 528 663 l 528 285 q 474 65 528 140 q 294 -11 421 -11 m 294 99 q 353 122 335 99 q 375 181 371 146 q 379 275 379 215 l 379 526 q 375 622 379 586 q 353 681 371 657 q 294 704 335 704 q 235 681 254 704 q 213 622 217 657 q 208 526 208 586 l 208 275 q 213 181 208 215 q 235 122 217 146 q 294 99 254 99 m 249 939 q 317 976 294 958 q 339 1019 339 994 q 315 1060 339 1047 q 254 1074 292 1074 q 183 1064 217 1074 l 183 1139 q 296 1153 238 1153 q 407 1122 364 1153 q 450 1032 450 1092 q 411 942 450 975 q 296 883 372 910 l 249 939 z "},"ơ":{"ha":589,"x_min":60,"x_max":528,"o":"m 528 906 q 460 756 528 799 q 528 518 528 686 l 528 285 q 474 65 528 140 q 294 -11 421 -11 q 113 65 167 -11 q 60 285 60 140 l 60 518 q 113 738 60 663 q 294 814 167 814 q 365 807 331 814 q 401 838 390 814 q 413 906 413 863 l 528 906 m 379 526 q 375 622 379 586 q 353 681 371 657 q 294 704 335 704 q 235 681 254 704 q 213 622 217 657 q 208 526 208 586 l 208 275 q 213 181 208 215 q 235 122 217 146 q 294 99 254 99 q 353 122 335 99 q 375 181 371 146 q 379 275 379 215 l 379 526 z "},"ớ":{"ha":589,"x_min":60,"x_max":528,"o":"m 528 906 q 460 756 528 799 q 528 518 528 686 l 528 285 q 474 65 528 140 q 294 -11 421 -11 q 113 65 167 -11 q 60 285 60 140 l 60 518 q 113 738 60 663 q 294 814 167 814 q 365 807 331 814 q 401 838 390 814 q 413 906 413 863 l 528 906 m 379 526 q 375 622 379 586 q 353 681 371 657 q 294 704 335 704 q 235 681 254 704 q 213 622 217 657 q 208 526 208 586 l 208 275 q 213 181 208 215 q 235 122 217 146 q 294 99 254 99 q 353 122 335 99 q 375 181 371 146 q 379 275 379 215 l 379 526 m 338 1144 l 486 1144 l 331 869 l 256 869 l 338 1144 z "},"ợ":{"ha":589,"x_min":60,"x_max":528,"o":"m 528 906 q 460 756 528 799 q 528 518 528 686 l 528 285 q 474 65 528 140 q 294 -11 421 -11 q 113 65 167 -11 q 60 285 60 140 l 60 518 q 113 738 60 663 q 294 814 167 814 q 365 807 331 814 q 401 838 390 814 q 413 906 413 863 l 528 906 m 379 526 q 375 622 379 586 q 353 681 371 657 q 294 704 335 704 q 235 681 254 704 q 213 622 217 657 q 208 526 208 586 l 208 275 q 213 181 208 215 q 235 122 217 146 q 294 99 254 99 q 353 122 335 99 q 375 181 371 146 q 379 275 379 215 l 379 526 m 219 -87 l 369 -87 l 369 -244 l 219 -244 l 219 -87 z "},"ờ":{"ha":589,"x_min":60,"x_max":528,"o":"m 528 906 q 460 756 528 799 q 528 518 528 686 l 528 285 q 474 65 528 140 q 294 -11 421 -11 q 113 65 167 -11 q 60 285 60 140 l 60 518 q 113 738 60 663 q 294 814 167 814 q 365 807 331 814 q 401 838 390 814 q 413 906 413 863 l 528 906 m 379 526 q 375 622 379 586 q 353 681 371 657 q 294 704 335 704 q 235 681 254 704 q 213 622 217 657 q 208 526 208 586 l 208 275 q 213 181 208 215 q 235 122 217 146 q 294 99 254 99 q 353 122 335 99 q 375 181 371 146 q 379 275 379 215 l 379 526 m 106 1144 l 254 1144 l 333 869 l 260 869 l 106 1144 z "},"ở":{"ha":589,"x_min":60,"x_max":528,"o":"m 528 906 q 460 756 528 799 q 528 518 528 686 l 528 285 q 474 65 528 140 q 294 -11 421 -11 q 113 65 167 -11 q 60 285 60 140 l 60 518 q 113 738 60 663 q 294 814 167 814 q 365 807 331 814 q 401 838 390 814 q 413 906 413 863 l 528 906 m 379 526 q 375 622 379 586 q 353 681 371 657 q 294 704 335 704 q 235 681 254 704 q 213 622 217 657 q 208 526 208 586 l 208 275 q 213 181 208 215 q 235 122 217 146 q 294 99 254 99 q 353 122 335 99 q 375 181 371 146 q 379 275 379 215 l 379 526 m 249 939 q 317 976 294 958 q 339 1019 339 994 q 315 1060 339 1047 q 254 1074 292 1074 q 183 1064 217 1074 l 183 1139 q 296 1153 238 1153 q 407 1122 364 1153 q 450 1032 450 1092 q 411 942 450 975 q 296 883 372 910 l 249 939 z "},"ỡ":{"ha":589,"x_min":60,"x_max":528,"o":"m 528 906 q 460 756 528 799 q 528 518 528 686 l 528 285 q 474 65 528 140 q 294 -11 421 -11 q 113 65 167 -11 q 60 285 60 140 l 60 518 q 113 738 60 663 q 294 814 167 814 q 365 807 331 814 q 401 838 390 814 q 413 906 413 863 l 528 906 m 379 526 q 375 622 379 586 q 353 681 371 657 q 294 704 335 704 q 235 681 254 704 q 213 622 217 657 q 208 526 208 586 l 208 275 q 213 181 208 215 q 235 122 217 146 q 294 99 254 99 q 353 122 335 99 q 375 181 371 146 q 379 275 379 215 l 379 526 m 400 972 q 349 982 372 972 q 297 1010 326 992 q 253 1033 269 1025 q 218 1040 236 1040 q 182 1027 193 1040 q 171 983 171 1014 l 86 983 q 197 1133 86 1133 q 242 1124 221 1133 q 292 1099 264 1115 q 337 1074 319 1082 q 374 1067 354 1067 q 409 1080 399 1067 q 419 1125 419 1093 l 503 1125 q 480 1013 503 1054 q 400 972 457 972 z "},"ő":{"ha":589,"x_min":60,"x_max":581,"o":"m 294 -11 q 113 65 167 -11 q 60 285 60 140 l 60 518 q 113 738 60 663 q 294 814 167 814 q 474 738 421 814 q 528 518 528 663 l 528 285 q 474 65 528 140 q 294 -11 421 -11 m 294 99 q 353 122 335 99 q 375 181 371 146 q 379 275 379 215 l 379 526 q 375 622 379 586 q 353 681 371 657 q 294 704 335 704 q 235 681 254 704 q 213 622 217 657 q 208 526 208 586 l 208 275 q 213 181 208 215 q 235 122 217 146 q 294 99 254 99 m 229 1126 l 351 1126 l 250 889 l 175 889 l 229 1126 m 431 1126 l 581 1126 l 426 889 l 350 889 l 431 1126 z "},"ȏ":{"ha":589,"x_min":60,"x_max":528,"o":"m 294 -11 q 113 65 167 -11 q 60 285 60 140 l 60 518 q 113 738 60 663 q 294 814 167 814 q 474 738 421 814 q 528 518 528 663 l 528 285 q 474 65 528 140 q 294 -11 421 -11 m 294 99 q 353 122 335 99 q 375 181 371 146 q 379 275 379 215 l 379 526 q 375 622 379 586 q 353 681 371 657 q 294 704 335 704 q 235 681 254 704 q 213 622 217 657 q 208 526 208 586 l 208 275 q 213 181 208 215 q 235 122 217 146 q 294 99 254 99 m 111 918 q 152 1071 113 1017 q 294 1125 192 1125 q 438 1070 397 1125 q 478 918 478 1015 l 390 918 q 369 1013 390 985 q 294 1040 347 1040 q 222 1012 243 1040 q 199 918 200 983 l 111 918 z "},"ō":{"ha":589,"x_min":60,"x_max":528,"o":"m 294 -11 q 113 65 167 -11 q 60 285 60 140 l 60 518 q 113 738 60 663 q 294 814 167 814 q 474 738 421 814 q 528 518 528 663 l 528 285 q 474 65 528 140 q 294 -11 421 -11 m 294 99 q 353 122 335 99 q 375 181 371 146 q 379 275 379 215 l 379 526 q 375 622 379 586 q 353 681 371 657 q 294 704 335 704 q 235 681 254 704 q 213 622 217 657 q 208 526 208 586 l 208 275 q 213 181 208 215 q 235 122 217 146 q 294 99 254 99 m 161 1042 l 428 1042 l 428 951 l 161 951 l 161 1042 z "},"ǫ":{"ha":589,"x_min":60,"x_max":528,"o":"m 294 814 q 474 738 421 814 q 528 518 528 663 l 528 285 q 497 103 528 174 q 397 6 467 33 q 319 -81 351 -33 q 286 -168 286 -128 q 397 -235 286 -235 q 442 -232 417 -235 l 417 -306 q 367 -310 394 -310 q 225 -285 276 -310 q 174 -190 174 -261 q 205 -90 174 -139 q 282 -11 236 -42 q 110 68 161 -7 q 60 285 60 143 l 60 518 q 113 738 60 663 q 294 814 167 814 m 208 275 q 213 181 208 215 q 235 122 217 146 q 294 99 254 99 q 353 122 335 99 q 375 181 371 146 q 379 275 379 215 l 379 526 q 375 622 379 586 q 353 681 371 657 q 294 704 335 704 q 235 681 254 704 q 213 622 217 657 q 208 526 208 586 l 208 275 z "},"ø":{"ha":589,"x_min":60,"x_max":528,"o":"m 456 760 q 528 518 528 692 l 528 285 q 474 65 528 140 q 294 -11 421 -11 q 185 8 231 -11 l 133 -132 l 89 -117 l 142 35 q 60 285 60 101 l 60 518 q 113 738 60 663 q 294 814 167 814 q 410 792 361 814 l 458 928 l 510 911 l 456 760 m 208 222 l 364 661 q 294 704 346 704 q 235 681 254 704 q 213 622 217 657 q 208 526 208 586 l 208 275 l 208 222 m 379 526 l 379 549 l 229 132 q 294 99 249 99 q 353 122 335 99 q 375 181 371 146 q 379 275 379 215 l 379 526 z "},"ǿ":{"ha":589,"x_min":60,"x_max":528,"o":"m 456 760 q 528 518 528 692 l 528 285 q 474 65 528 140 q 294 -11 421 -11 q 185 8 231 -11 l 133 -132 l 89 -117 l 142 35 q 60 285 60 101 l 60 518 q 113 738 60 663 q 294 814 167 814 q 410 792 361 814 l 458 928 l 510 911 l 456 760 m 208 222 l 364 661 q 294 704 346 704 q 235 681 254 704 q 213 622 217 657 q 208 526 208 586 l 208 275 l 208 222 m 379 526 l 379 549 l 229 132 q 294 99 249 99 q 353 122 335 99 q 375 181 371 146 q 379 275 379 215 l 379 526 m 338 1144 l 486 1144 l 331 869 l 256 869 l 338 1144 z "},"õ":{"ha":589,"x_min":60,"x_max":528,"o":"m 294 -11 q 113 65 167 -11 q 60 285 60 140 l 60 518 q 113 738 60 663 q 294 814 167 814 q 474 738 421 814 q 528 518 528 663 l 528 285 q 474 65 528 140 q 294 -11 421 -11 m 294 99 q 353 122 335 99 q 375 181 371 146 q 379 275 379 215 l 379 526 q 375 622 379 586 q 353 681 371 657 q 294 704 335 704 q 235 681 254 704 q 213 622 217 657 q 208 526 208 586 l 208 275 q 213 181 208 215 q 235 122 217 146 q 294 99 254 99 m 400 972 q 349 982 372 972 q 297 1010 326 992 q 253 1033 269 1025 q 218 1040 236 1040 q 182 1027 193 1040 q 171 983 171 1014 l 86 983 q 197 1133 86 1133 q 242 1124 221 1133 q 292 1099 264 1115 q 337 1074 319 1082 q 374 1067 354 1067 q 409 1080 399 1067 q 419 1125 419 1093 l 503 1125 q 480 1013 503 1054 q 400 972 457 972 z "},"ȭ":{"ha":589,"x_min":60,"x_max":528,"o":"m 294 -11 q 113 65 167 -11 q 60 285 60 140 l 60 518 q 113 738 60 663 q 294 814 167 814 q 474 738 421 814 q 528 518 528 663 l 528 285 q 474 65 528 140 q 294 -11 421 -11 m 294 99 q 353 122 335 99 q 375 181 371 146 q 379 275 379 215 l 379 526 q 375 622 379 586 q 353 681 371 657 q 294 704 335 704 q 235 681 254 704 q 213 622 217 657 q 208 526 208 586 l 208 275 q 213 181 208 215 q 235 122 217 146 q 294 99 254 99 m 400 972 q 349 982 372 972 q 297 1010 326 992 q 253 1033 269 1025 q 218 1040 236 1040 q 182 1027 193 1040 q 171 983 171 1014 l 86 983 q 197 1133 86 1133 q 242 1124 221 1133 q 292 1099 264 1115 q 337 1074 319 1082 q 374 1067 354 1067 q 409 1080 399 1067 q 419 1125 419 1093 l 503 1125 q 480 1013 503 1054 q 400 972 457 972 m 161 1372 l 428 1372 l 428 1282 l 161 1282 l 161 1372 z "},"œ":{"ha":951,"x_min":79,"x_max":872,"o":"m 314 -11 q 133 64 186 -11 q 79 282 79 139 l 79 521 q 131 739 79 664 q 307 814 183 814 q 476 719 426 814 q 546 789 499 764 q 658 814 593 814 q 792 776 746 814 q 856 665 839 738 q 872 472 872 592 l 872 404 l 550 404 l 550 354 q 553 231 550 276 q 576 149 557 185 q 638 111 596 113 q 703 134 683 108 q 724 225 724 160 l 724 279 l 872 279 l 872 226 q 819 47 872 106 q 653 -11 765 -11 q 476 86 518 -11 q 314 -11 432 -11 m 314 111 q 373 134 354 111 q 397 191 392 157 q 401 282 401 225 l 401 521 q 397 613 401 578 q 373 670 392 647 q 314 693 354 693 q 256 670 274 693 q 233 613 238 647 q 228 521 228 578 l 228 282 q 232 191 228 225 q 255 134 236 157 q 314 111 274 111 m 724 479 l 724 522 q 708 649 724 604 q 638 693 692 693 q 567 648 585 693 q 550 522 550 603 l 550 479 l 724 479 z "},"p":{"ha":619,"x_min":75,"x_max":560,"o":"m 75 803 l 224 803 l 224 739 q 376 814 289 814 q 523 720 486 814 q 560 513 560 626 l 560 318 q 515 80 560 171 q 360 -11 469 -11 q 224 60 289 -11 l 224 -264 l 75 -264 l 75 803 m 331 106 q 397 158 382 106 q 411 318 411 210 l 411 513 q 394 649 411 601 q 325 697 378 697 q 224 656 274 697 l 224 142 q 331 106 272 106 z "},"ṗ":{"ha":619,"x_min":75,"x_max":560,"o":"m 75 803 l 224 803 l 224 739 q 376 814 289 814 q 523 720 486 814 q 560 513 560 626 l 560 318 q 515 80 560 171 q 360 -11 469 -11 q 224 60 289 -11 l 224 -264 l 75 -264 l 75 803 m 331 106 q 397 158 382 106 q 411 318 411 210 l 411 513 q 394 649 411 601 q 325 697 378 697 q 224 656 274 697 l 224 142 q 331 106 272 106 m 235 1097 l 385 1097 l 385 932 l 235 932 l 235 1097 z "},"þ":{"ha":621,"x_min":76,"x_max":561,"o":"m 76 1125 l 225 1125 l 225 739 q 378 814 290 814 q 524 720 488 814 q 561 513 561 626 l 561 318 q 516 80 561 171 q 361 -11 471 -11 q 225 60 290 -11 l 225 -264 l 76 -264 l 76 1125 m 332 106 q 398 158 383 106 q 413 318 413 211 l 413 513 q 395 649 413 601 q 325 697 378 697 q 225 656 275 697 l 225 142 q 332 106 274 106 z "},"q":{"ha":615,"x_min":61,"x_max":540,"o":"m 392 51 q 260 -11 333 -11 q 109 65 157 -11 q 61 315 61 142 l 61 471 q 103 722 61 631 q 258 814 146 814 q 392 751 329 814 l 392 803 l 540 803 l 540 -264 l 392 -264 l 392 51 m 300 106 q 392 136 347 106 l 392 663 q 297 697 340 697 q 210 529 210 697 l 210 303 q 228 156 210 206 q 300 106 246 106 z "},"r":{"ha":446,"x_min":79,"x_max":429,"o":"m 79 803 l 228 803 l 228 689 q 313 785 269 757 q 406 813 357 813 q 429 811 418 813 l 429 647 q 347 664 385 664 q 283 647 311 664 q 228 586 254 629 l 228 0 l 79 0 l 79 803 z "},"ŕ":{"ha":446,"x_min":79,"x_max":447,"o":"m 79 803 l 228 803 l 228 689 q 313 785 269 757 q 406 813 357 813 q 429 811 418 813 l 429 647 q 347 664 385 664 q 283 647 311 664 q 228 586 254 629 l 228 0 l 79 0 l 79 803 m 299 1144 l 447 1144 l 292 869 l 217 869 l 299 1144 z "},"ř":{"ha":446,"x_min":61,"x_max":450,"o":"m 79 803 l 228 803 l 228 689 q 313 785 269 757 q 406 813 357 813 q 429 811 418 813 l 429 647 q 347 664 385 664 q 283 647 311 664 q 228 586 254 629 l 228 0 l 79 0 l 79 803 m 61 1125 l 175 1125 l 256 963 l 336 1125 l 450 1125 l 328 885 l 182 885 l 61 1125 z "},"ŗ":{"ha":446,"x_min":78,"x_max":429,"o":"m 79 803 l 228 803 l 228 689 q 313 785 269 757 q 406 813 357 813 q 429 811 418 813 l 429 647 q 347 664 385 664 q 283 647 311 664 q 228 586 254 629 l 228 0 l 79 0 l 79 803 m 78 -325 q 138 -301 119 -322 q 156 -239 156 -281 l 79 -239 l 79 -87 l 231 -87 l 229 -231 q 205 -355 228 -314 q 115 -399 182 -396 l 78 -325 z "},"ȑ":{"ha":446,"x_min":-18,"x_max":429,"o":"m 79 803 l 228 803 l 228 689 q 313 785 269 757 q 406 813 357 813 q 429 811 418 813 l 429 647 q 347 664 385 664 q 283 647 311 664 q 228 586 254 629 l 228 0 l 79 0 l 79 803 m -18 1125 l 132 1125 l 213 889 l 138 889 l -18 1125 m 213 1125 l 335 1125 l 390 889 l 315 889 l 213 1125 z "},"ȓ":{"ha":446,"x_min":72,"x_max":439,"o":"m 79 803 l 228 803 l 228 689 q 313 785 269 757 q 406 813 357 813 q 429 811 418 813 l 429 647 q 347 664 385 664 q 283 647 311 664 q 228 586 254 629 l 228 0 l 79 0 l 79 803 m 72 918 q 113 1071 74 1017 q 256 1125 153 1125 q 399 1070 358 1125 q 439 918 439 1015 l 351 918 q 330 1013 351 985 q 256 1040 308 1040 q 183 1012 204 1040 q 160 918 161 983 l 72 918 z "},"s":{"ha":519,"x_min":35,"x_max":483,"o":"m 261 -11 q 103 50 164 -11 q 35 214 43 111 l 158 251 q 194 136 168 174 q 267 99 219 99 q 331 123 306 99 q 356 185 356 147 q 290 303 356 247 l 153 421 q 80 505 106 461 q 54 613 54 549 q 110 761 54 708 q 261 814 165 814 q 405 755 353 814 q 465 603 457 696 l 365 565 q 333 669 356 633 q 267 704 311 704 q 208 681 231 704 q 188 622 186 657 q 228 542 188 576 l 369 411 q 453 314 422 364 q 483 194 483 264 q 424 42 483 94 q 261 -11 364 -11 z "},"ś":{"ha":519,"x_min":35,"x_max":483,"o":"m 261 -11 q 103 50 164 -11 q 35 214 43 111 l 158 251 q 194 136 168 174 q 267 99 219 99 q 331 123 306 99 q 356 185 356 147 q 290 303 356 247 l 153 421 q 80 505 106 461 q 54 613 54 549 q 110 761 54 708 q 261 814 165 814 q 405 755 353 814 q 465 603 457 696 l 365 565 q 333 669 356 633 q 267 704 311 704 q 208 681 231 704 q 188 622 186 657 q 228 542 188 576 l 369 411 q 453 314 422 364 q 483 194 483 264 q 424 42 483 94 q 261 -11 364 -11 m 303 1144 l 451 1144 l 296 869 l 221 869 l 303 1144 z "},"š":{"ha":519,"x_min":35,"x_max":483,"o":"m 261 -11 q 103 50 164 -11 q 35 214 43 111 l 158 251 q 194 136 168 174 q 267 99 219 99 q 331 123 306 99 q 356 185 356 147 q 290 303 356 247 l 153 421 q 80 505 106 461 q 54 613 54 549 q 110 761 54 708 q 261 814 165 814 q 405 755 353 814 q 465 603 457 696 l 365 565 q 333 669 356 633 q 267 704 311 704 q 208 681 231 704 q 188 622 186 657 q 228 542 188 576 l 369 411 q 453 314 422 364 q 483 194 483 264 q 424 42 483 94 q 261 -11 364 -11 m 65 1125 l 179 1125 l 260 963 l 340 1125 l 454 1125 l 332 885 l 186 885 l 65 1125 z "},"ş":{"ha":519,"x_min":35,"x_max":483,"o":"m 297 -78 q 409 -110 367 -78 q 451 -197 451 -143 q 403 -294 451 -261 q 278 -326 356 -326 q 185 -312 238 -326 l 185 -237 q 256 -247 218 -247 q 317 -234 293 -247 q 340 -193 340 -221 q 312 -141 340 -158 q 222 -115 283 -124 l 222 -8 q 91 63 140 4 q 35 214 42 122 l 158 251 q 194 136 168 174 q 267 99 219 99 q 331 123 306 99 q 356 185 356 147 q 290 303 356 247 l 153 421 q 80 505 106 461 q 54 613 54 549 q 110 761 54 708 q 261 814 165 814 q 405 755 353 814 q 465 603 457 696 l 365 565 q 333 669 356 633 q 267 704 311 704 q 208 681 231 704 q 188 622 186 657 q 228 542 188 576 l 369 411 q 453 314 422 364 q 483 194 483 264 q 434 51 483 103 q 297 -10 385 0 l 297 -78 z "},"ŝ":{"ha":519,"x_min":35,"x_max":483,"o":"m 261 -11 q 103 50 164 -11 q 35 214 43 111 l 158 251 q 194 136 168 174 q 267 99 219 99 q 331 123 306 99 q 356 185 356 147 q 290 303 356 247 l 153 421 q 80 505 106 461 q 54 613 54 549 q 110 761 54 708 q 261 814 165 814 q 405 755 353 814 q 465 603 457 696 l 365 565 q 333 669 356 633 q 267 704 311 704 q 208 681 231 704 q 188 622 186 657 q 228 542 188 576 l 369 411 q 453 314 422 364 q 483 194 483 264 q 424 42 483 94 q 261 -11 364 -11 m 183 1125 l 335 1125 l 456 882 l 343 882 l 258 1050 l 175 882 l 64 882 l 183 1125 z "},"ș":{"ha":519,"x_min":35,"x_max":483,"o":"m 261 -11 q 103 50 164 -11 q 35 214 43 111 l 158 251 q 194 136 168 174 q 267 99 219 99 q 331 123 306 99 q 356 185 356 147 q 290 303 356 247 l 153 421 q 80 505 106 461 q 54 613 54 549 q 110 761 54 708 q 261 814 165 814 q 405 755 353 814 q 465 603 457 696 l 365 565 q 333 669 356 633 q 267 704 311 704 q 208 681 231 704 q 188 622 186 657 q 228 542 188 576 l 369 411 q 453 314 422 364 q 483 194 483 264 q 424 42 483 94 q 261 -11 364 -11 m 183 -325 q 243 -301 225 -322 q 261 -239 261 -281 l 185 -239 l 185 -87 l 336 -87 l 335 -231 q 310 -355 333 -314 q 221 -399 288 -396 l 183 -325 z "},"ṡ":{"ha":519,"x_min":35,"x_max":483,"o":"m 261 -11 q 103 50 164 -11 q 35 214 43 111 l 158 251 q 194 136 168 174 q 267 99 219 99 q 331 123 306 99 q 356 185 356 147 q 290 303 356 247 l 153 421 q 80 505 106 461 q 54 613 54 549 q 110 761 54 708 q 261 814 165 814 q 405 755 353 814 q 465 603 457 696 l 365 565 q 333 669 356 633 q 267 704 311 704 q 208 681 231 704 q 188 622 186 657 q 228 542 188 576 l 369 411 q 453 314 422 364 q 483 194 483 264 q 424 42 483 94 q 261 -11 364 -11 m 185 1097 l 335 1097 l 335 932 l 185 932 l 185 1097 z "},"ß":{"ha":715,"x_min":82,"x_max":638,"o":"m 310 111 q 422 135 382 111 q 476 205 461 160 q 490 322 490 250 q 447 467 490 414 q 319 521 404 521 l 321 644 q 420 703 390 644 q 450 849 450 761 q 426 972 450 929 q 339 1015 403 1015 q 253 975 276 1015 q 231 851 231 935 l 231 0 l 82 0 l 82 850 q 147 1061 82 985 q 335 1138 211 1138 q 531 1064 465 1138 q 596 849 596 990 q 562 691 596 751 q 458 594 528 631 q 591 500 544 572 q 638 322 638 428 q 559 73 638 158 q 310 -12 481 -12 l 310 111 z "},"t":{"ha":428,"x_min":31,"x_max":393,"o":"m 289 -11 q 157 37 197 -11 q 115 181 117 85 l 115 704 l 31 704 l 31 803 l 115 803 l 115 1038 l 264 1038 l 264 803 l 393 803 l 393 704 l 264 704 l 264 190 q 279 122 264 142 q 338 103 294 103 q 392 107 365 103 l 392 -3 q 289 -11 336 -11 z "},"ŧ":{"ha":339,"x_min":31,"x_max":403,"o":"m 264 472 l 264 190 q 279 122 264 142 q 338 103 294 103 q 392 107 365 103 l 392 -3 q 289 -11 336 -11 q 157 37 197 -11 q 115 181 117 85 l 115 472 l 36 472 l 36 549 l 115 549 l 115 704 l 31 704 l 31 803 l 115 803 l 115 1038 l 264 1038 l 264 803 l 393 803 l 393 704 l 264 704 l 264 549 l 403 549 l 403 472 l 264 472 z "},"ť":{"ha":460,"x_min":31,"x_max":476,"o":"m 289 -11 q 157 37 197 -11 q 115 181 117 85 l 115 704 l 31 704 l 31 803 l 115 803 l 115 1038 l 264 1038 l 264 803 l 393 803 l 393 704 l 264 704 l 264 190 q 279 122 264 142 q 338 103 294 103 q 392 107 365 103 l 392 -3 q 289 -11 336 -11 m 322 924 q 381 967 360 936 q 403 1042 403 999 l 324 1042 l 324 1201 l 476 1201 l 476 1044 q 444 927 476 971 q 346 860 413 883 l 322 924 z "},"ţ":{"ha":428,"x_min":31,"x_max":481,"o":"m 326 -78 q 438 -110 396 -78 q 481 -197 481 -143 q 433 -294 481 -261 q 307 -326 385 -326 q 214 -312 267 -326 l 214 -237 q 285 -247 247 -247 q 346 -234 322 -247 q 369 -193 369 -221 q 341 -141 369 -158 q 251 -115 313 -124 l 251 -8 q 148 48 179 1 q 115 181 117 94 l 115 704 l 31 704 l 31 803 l 115 803 l 115 1038 l 264 1038 l 264 803 l 393 803 l 393 704 l 264 704 l 264 190 q 279 122 264 142 q 338 103 294 103 q 392 107 365 103 l 392 -3 q 326 -10 368 -7 l 326 -78 z "},"ț":{"ha":428,"x_min":31,"x_max":393,"o":"m 289 -11 q 157 37 197 -11 q 115 181 117 85 l 115 704 l 31 704 l 31 803 l 115 803 l 115 1038 l 264 1038 l 264 803 l 393 803 l 393 704 l 264 704 l 264 190 q 279 122 264 142 q 338 103 294 103 q 392 107 365 103 l 392 -3 q 289 -11 336 -11 m 213 -325 q 272 -301 254 -322 q 290 -239 290 -281 l 214 -239 l 214 -87 l 365 -87 l 364 -231 q 340 -355 363 -314 q 250 -399 317 -396 l 213 -325 z "},"ṫ":{"ha":428,"x_min":31,"x_max":393,"o":"m 289 -11 q 157 37 197 -11 q 115 181 117 85 l 115 704 l 31 704 l 31 803 l 115 803 l 115 1038 l 264 1038 l 264 803 l 393 803 l 393 704 l 264 704 l 264 190 q 279 122 264 142 q 338 103 294 103 q 392 107 365 103 l 392 -3 q 289 -11 336 -11 m 115 1332 l 265 1332 l 265 1167 l 115 1167 l 115 1332 z "},"u":{"ha":611,"x_min":69,"x_max":535,"o":"m 190 -11 q 97 36 125 -11 q 69 153 69 83 l 69 803 l 218 803 l 218 197 q 232 128 218 151 q 282 106 246 106 q 386 156 326 106 l 386 803 l 535 803 l 535 0 l 386 0 l 386 79 q 190 -11 290 -11 z "},"ú":{"ha":611,"x_min":69,"x_max":535,"o":"m 190 -11 q 97 36 125 -11 q 69 153 69 83 l 69 803 l 218 803 l 218 197 q 232 128 218 151 q 282 106 246 106 q 386 156 326 106 l 386 803 l 535 803 l 535 0 l 386 0 l 386 79 q 190 -11 290 -11 m 349 1144 l 497 1144 l 342 869 l 267 869 l 349 1144 z "},"ŭ":{"ha":611,"x_min":69,"x_max":535,"o":"m 190 -11 q 97 36 125 -11 q 69 153 69 83 l 69 803 l 218 803 l 218 197 q 232 128 218 151 q 282 106 246 106 q 386 156 326 106 l 386 803 l 535 803 l 535 0 l 386 0 l 386 79 q 190 -11 290 -11 m 306 890 q 167 942 211 890 q 124 1079 124 993 l 210 1079 q 233 1001 211 1026 q 306 975 256 975 q 401 1079 401 975 l 489 1079 q 445 942 489 993 q 306 890 401 890 z "},"û":{"ha":611,"x_min":69,"x_max":535,"o":"m 190 -11 q 97 36 125 -11 q 69 153 69 83 l 69 803 l 218 803 l 218 197 q 232 128 218 151 q 282 106 246 106 q 386 156 326 106 l 386 803 l 535 803 l 535 0 l 386 0 l 386 79 q 190 -11 290 -11 m 229 1125 l 381 1125 l 501 882 l 389 882 l 304 1050 l 221 882 l 110 882 l 229 1125 z "},"ȕ":{"ha":611,"x_min":32,"x_max":535,"o":"m 190 -11 q 97 36 125 -11 q 69 153 69 83 l 69 803 l 218 803 l 218 197 q 232 128 218 151 q 282 106 246 106 q 386 156 326 106 l 386 803 l 535 803 l 535 0 l 386 0 l 386 79 q 190 -11 290 -11 m 32 1125 l 182 1125 l 263 889 l 188 889 l 32 1125 m 263 1125 l 385 1125 l 440 889 l 365 889 l 263 1125 z "},"ü":{"ha":611,"x_min":69,"x_max":535,"o":"m 190 -11 q 97 36 125 -11 q 69 153 69 83 l 69 803 l 218 803 l 218 197 q 232 128 218 151 q 282 106 246 106 q 386 156 326 106 l 386 803 l 535 803 l 535 0 l 386 0 l 386 79 q 190 -11 290 -11 m 111 1125 l 261 1125 l 261 971 l 111 971 l 111 1125 m 350 1125 l 500 1125 l 500 971 l 350 971 l 350 1125 z "},"ụ":{"ha":611,"x_min":69,"x_max":535,"o":"m 190 -11 q 97 36 125 -11 q 69 153 69 83 l 69 803 l 218 803 l 218 197 q 232 128 218 151 q 282 106 246 106 q 386 156 326 106 l 386 803 l 535 803 l 535 0 l 386 0 l 386 79 q 190 -11 290 -11 m 231 -87 l 381 -87 l 381 -244 l 231 -244 l 231 -87 z "},"ù":{"ha":611,"x_min":69,"x_max":535,"o":"m 190 -11 q 97 36 125 -11 q 69 153 69 83 l 69 803 l 218 803 l 218 197 q 232 128 218 151 q 282 106 246 106 q 386 156 326 106 l 386 803 l 535 803 l 535 0 l 386 0 l 386 79 q 190 -11 290 -11 m 117 1144 l 265 1144 l 344 869 l 271 869 l 117 1144 z "},"ủ":{"ha":611,"x_min":69,"x_max":535,"o":"m 190 -11 q 97 36 125 -11 q 69 153 69 83 l 69 803 l 218 803 l 218 197 q 232 128 218 151 q 282 106 246 106 q 386 156 326 106 l 386 803 l 535 803 l 535 0 l 386 0 l 386 79 q 190 -11 290 -11 m 260 939 q 328 976 306 958 q 350 1019 350 994 q 326 1060 350 1047 q 265 1074 303 1074 q 194 1064 228 1074 l 194 1139 q 307 1153 249 1153 q 418 1122 375 1153 q 461 1032 461 1092 q 422 942 461 975 q 307 883 383 910 l 260 939 z "},"ư":{"ha":611,"x_min":69,"x_max":611,"o":"m 611 906 q 535 750 611 793 l 535 0 l 386 0 l 386 79 q 190 -11 290 -11 q 97 36 125 -11 q 69 153 69 83 l 69 803 l 218 803 l 218 197 q 232 128 218 151 q 282 106 246 106 q 386 156 326 106 l 386 803 l 421 803 q 478 828 461 803 q 496 906 496 853 l 611 906 z "},"ứ":{"ha":611,"x_min":69,"x_max":611,"o":"m 611 906 q 535 750 611 793 l 535 0 l 386 0 l 386 79 q 190 -11 290 -11 q 97 36 125 -11 q 69 153 69 83 l 69 803 l 218 803 l 218 197 q 232 128 218 151 q 282 106 246 106 q 386 156 326 106 l 386 803 l 421 803 q 478 828 461 803 q 496 906 496 853 l 611 906 m 349 1144 l 497 1144 l 342 869 l 267 869 l 349 1144 z "},"ự":{"ha":611,"x_min":69,"x_max":611,"o":"m 611 906 q 535 750 611 793 l 535 0 l 386 0 l 386 79 q 190 -11 290 -11 q 97 36 125 -11 q 69 153 69 83 l 69 803 l 218 803 l 218 197 q 232 128 218 151 q 282 106 246 106 q 386 156 326 106 l 386 803 l 421 803 q 478 828 461 803 q 496 906 496 853 l 611 906 m 231 -87 l 381 -87 l 381 -244 l 231 -244 l 231 -87 z "},"ừ":{"ha":611,"x_min":69,"x_max":611,"o":"m 611 906 q 535 750 611 793 l 535 0 l 386 0 l 386 79 q 190 -11 290 -11 q 97 36 125 -11 q 69 153 69 83 l 69 803 l 218 803 l 218 197 q 232 128 218 151 q 282 106 246 106 q 386 156 326 106 l 386 803 l 421 803 q 478 828 461 803 q 496 906 496 853 l 611 906 m 117 1144 l 265 1144 l 344 869 l 271 869 l 117 1144 z "},"ử":{"ha":611,"x_min":69,"x_max":611,"o":"m 611 906 q 535 750 611 793 l 535 0 l 386 0 l 386 79 q 190 -11 290 -11 q 97 36 125 -11 q 69 153 69 83 l 69 803 l 218 803 l 218 197 q 232 128 218 151 q 282 106 246 106 q 386 156 326 106 l 386 803 l 421 803 q 478 828 461 803 q 496 906 496 853 l 611 906 m 260 939 q 328 976 306 958 q 350 1019 350 994 q 326 1060 350 1047 q 265 1074 303 1074 q 194 1064 228 1074 l 194 1139 q 307 1153 249 1153 q 418 1122 375 1153 q 461 1032 461 1092 q 422 942 461 975 q 307 883 383 910 l 260 939 z "},"ữ":{"ha":611,"x_min":69,"x_max":611,"o":"m 611 906 q 535 750 611 793 l 535 0 l 386 0 l 386 79 q 190 -11 290 -11 q 97 36 125 -11 q 69 153 69 83 l 69 803 l 218 803 l 218 197 q 232 128 218 151 q 282 106 246 106 q 386 156 326 106 l 386 803 l 421 803 q 478 828 461 803 q 496 906 496 853 l 611 906 m 411 972 q 360 982 383 972 q 308 1010 338 992 q 264 1033 281 1025 q 229 1040 247 1040 q 193 1027 204 1040 q 182 983 182 1014 l 97 983 q 208 1133 97 1133 q 253 1124 232 1133 q 303 1099 275 1115 q 348 1074 331 1082 q 385 1067 365 1067 q 420 1080 410 1067 q 431 1125 431 1093 l 514 1125 q 491 1013 514 1054 q 411 972 468 972 z "},"ű":{"ha":611,"x_min":69,"x_max":592,"o":"m 190 -11 q 97 36 125 -11 q 69 153 69 83 l 69 803 l 218 803 l 218 197 q 232 128 218 151 q 282 106 246 106 q 386 156 326 106 l 386 803 l 535 803 l 535 0 l 386 0 l 386 79 q 190 -11 290 -11 m 240 1126 l 363 1126 l 261 889 l 186 889 l 240 1126 m 442 1126 l 592 1126 l 438 889 l 361 889 l 442 1126 z "},"ȗ":{"ha":611,"x_min":69,"x_max":535,"o":"m 190 -11 q 97 36 125 -11 q 69 153 69 83 l 69 803 l 218 803 l 218 197 q 232 128 218 151 q 282 106 246 106 q 386 156 326 106 l 386 803 l 535 803 l 535 0 l 386 0 l 386 79 q 190 -11 290 -11 m 122 918 q 163 1071 124 1017 q 306 1125 203 1125 q 449 1070 408 1125 q 489 918 489 1015 l 401 918 q 380 1013 401 985 q 306 1040 358 1040 q 233 1012 254 1040 q 210 918 211 983 l 122 918 z "},"ū":{"ha":611,"x_min":69,"x_max":535,"o":"m 190 -11 q 97 36 125 -11 q 69 153 69 83 l 69 803 l 218 803 l 218 197 q 232 128 218 151 q 282 106 246 106 q 386 156 326 106 l 386 803 l 535 803 l 535 0 l 386 0 l 386 79 q 190 -11 290 -11 m 172 1042 l 439 1042 l 439 951 l 172 951 l 172 1042 z "},"ų":{"ha":611,"x_min":69,"x_max":539,"o":"m 494 -246 q 539 -243 514 -246 l 514 -317 q 464 -321 490 -321 q 322 -297 374 -321 q 271 -201 271 -272 q 294 -116 271 -158 q 353 -42 317 -74 q 425 0 389 -11 l 386 0 l 386 79 q 190 -11 290 -11 q 97 36 125 -11 q 69 153 69 83 l 69 803 l 218 803 l 218 197 q 232 128 218 151 q 282 106 246 106 q 386 156 326 106 l 386 803 l 535 803 l 535 0 l 500 0 q 418 -88 453 -40 q 383 -179 383 -136 q 494 -246 383 -246 z "},"ů":{"ha":611,"x_min":69,"x_max":535,"o":"m 190 -11 q 97 36 125 -11 q 69 153 69 83 l 69 803 l 218 803 l 218 197 q 232 128 218 151 q 282 106 246 106 q 386 156 326 106 l 386 803 l 535 803 l 535 0 l 386 0 l 386 79 q 190 -11 290 -11 m 306 828 q 193 870 236 828 q 150 983 150 913 q 192 1096 150 1054 q 306 1138 235 1138 q 419 1096 376 1138 q 461 983 461 1054 q 418 870 461 913 q 306 828 375 828 m 306 903 q 364 924 342 903 q 386 983 386 946 q 365 1042 386 1021 q 306 1064 343 1064 q 247 1043 268 1064 q 225 983 225 1022 q 247 924 225 946 q 306 903 268 903 z "},"ũ":{"ha":611,"x_min":69,"x_max":535,"o":"m 190 -11 q 97 36 125 -11 q 69 153 69 83 l 69 803 l 218 803 l 218 197 q 232 128 218 151 q 282 106 246 106 q 386 156 326 106 l 386 803 l 535 803 l 535 0 l 386 0 l 386 79 q 190 -11 290 -11 m 411 972 q 360 982 383 972 q 308 1010 338 992 q 264 1033 281 1025 q 229 1040 247 1040 q 193 1027 204 1040 q 182 983 182 1014 l 97 983 q 208 1133 97 1133 q 253 1124 232 1133 q 303 1099 275 1115 q 348 1074 331 1082 q 385 1067 365 1067 q 420 1080 410 1067 q 431 1125 431 1093 l 514 1125 q 491 1013 514 1054 q 411 972 468 972 z "},"v":{"ha":535,"x_min":21,"x_max":514,"o":"m 21 803 l 171 803 l 269 157 l 369 803 l 514 803 l 361 0 l 179 0 l 21 803 z "},"w":{"ha":817,"x_min":39,"x_max":778,"o":"m 39 803 l 161 803 l 244 211 l 351 803 l 465 803 l 572 214 l 656 803 l 778 803 l 644 0 l 519 0 l 410 567 l 301 0 l 168 0 l 39 803 z "},"ẃ":{"ha":817,"x_min":39,"x_max":778,"o":"m 39 803 l 161 803 l 244 211 l 351 803 l 465 803 l 572 214 l 656 803 l 778 803 l 644 0 l 519 0 l 410 567 l 301 0 l 168 0 l 39 803 m 451 1144 l 600 1144 l 444 869 l 369 869 l 451 1144 z "},"ŵ":{"ha":817,"x_min":39,"x_max":778,"o":"m 39 803 l 161 803 l 244 211 l 351 803 l 465 803 l 572 214 l 656 803 l 778 803 l 644 0 l 519 0 l 410 567 l 301 0 l 168 0 l 39 803 m 332 1125 l 483 1125 l 604 882 l 492 882 l 407 1050 l 324 882 l 213 882 l 332 1125 z "},"ẅ":{"ha":817,"x_min":39,"x_max":778,"o":"m 39 803 l 161 803 l 244 211 l 351 803 l 465 803 l 572 214 l 656 803 l 778 803 l 644 0 l 519 0 l 410 567 l 301 0 l 168 0 l 39 803 m 214 1125 l 364 1125 l 364 971 l 214 971 l 214 1125 m 453 1125 l 603 1125 l 603 971 l 453 971 l 453 1125 z "},"ẁ":{"ha":817,"x_min":39,"x_max":778,"o":"m 39 803 l 161 803 l 244 211 l 351 803 l 465 803 l 572 214 l 656 803 l 778 803 l 644 0 l 519 0 l 410 567 l 301 0 l 168 0 l 39 803 m 219 1144 l 368 1144 l 447 869 l 374 869 l 219 1144 z "},"x":{"ha":540,"x_min":13,"x_max":529,"o":"m 193 422 l 17 803 l 158 803 l 276 549 l 381 803 l 526 803 l 343 404 l 529 0 l 388 0 l 261 272 l 153 0 l 13 0 l 193 422 z "},"y":{"ha":544,"x_min":17,"x_max":529,"o":"m 63 -87 q 177 -75 146 -87 q 208 -28 208 -62 q 203 8 208 -19 l 185 92 l 178 119 q 17 803 108 408 l 167 803 l 275 203 l 379 803 l 529 803 l 338 -44 q 256 -165 318 -129 q 81 -201 193 -201 l 63 -201 l 63 -87 z "},"ý":{"ha":544,"x_min":17,"x_max":529,"o":"m 63 -87 q 177 -75 146 -87 q 208 -28 208 -62 q 203 8 208 -19 l 185 92 l 178 119 q 17 803 108 408 l 167 803 l 275 203 l 379 803 l 529 803 l 338 -44 q 256 -165 318 -129 q 81 -201 193 -201 l 63 -201 l 63 -87 m 315 1144 l 464 1144 l 308 869 l 233 869 l 315 1144 z "},"ŷ":{"ha":544,"x_min":17,"x_max":529,"o":"m 63 -87 q 177 -75 146 -87 q 208 -28 208 -62 q 203 8 208 -19 l 185 92 l 178 119 q 17 803 108 408 l 167 803 l 275 203 l 379 803 l 529 803 l 338 -44 q 256 -165 318 -129 q 81 -201 193 -201 l 63 -201 l 63 -87 m 196 1125 l 347 1125 l 468 882 l 356 882 l 271 1050 l 188 882 l 76 882 l 196 1125 z "},"ÿ":{"ha":544,"x_min":17,"x_max":529,"o":"m 63 -87 q 177 -75 146 -87 q 208 -28 208 -62 q 203 8 208 -19 l 185 92 l 178 119 q 17 803 108 408 l 167 803 l 275 203 l 379 803 l 529 803 l 338 -44 q 256 -165 318 -129 q 81 -201 193 -201 l 63 -201 l 63 -87 m 78 1125 l 228 1125 l 228 971 l 78 971 l 78 1125 m 317 1125 l 467 1125 l 467 971 l 317 971 l 317 1125 z "},"ỵ":{"ha":544,"x_min":17,"x_max":529,"o":"m 63 -87 q 177 -75 146 -87 q 208 -28 208 -62 q 203 8 208 -19 l 185 92 l 178 119 q 17 803 108 408 l 167 803 l 275 203 l 379 803 l 529 803 l 338 -44 q 256 -165 318 -129 q 81 -201 193 -201 l 63 -201 l 63 -87 m 367 -87 l 517 -87 l 517 -244 l 367 -244 l 367 -87 z "},"ỳ":{"ha":544,"x_min":17,"x_max":529,"o":"m 63 -87 q 177 -75 146 -87 q 208 -28 208 -62 q 203 8 208 -19 l 185 92 l 178 119 q 17 803 108 408 l 167 803 l 275 203 l 379 803 l 529 803 l 338 -44 q 256 -165 318 -129 q 81 -201 193 -201 l 63 -201 l 63 -87 m 83 1144 l 232 1144 l 311 869 l 238 869 l 83 1144 z "},"ỷ":{"ha":544,"x_min":17,"x_max":529,"o":"m 63 -87 q 177 -75 146 -87 q 208 -28 208 -62 q 203 8 208 -19 l 185 92 l 178 119 q 17 803 108 408 l 167 803 l 275 203 l 379 803 l 529 803 l 338 -44 q 256 -165 318 -129 q 81 -201 193 -201 l 63 -201 l 63 -87 m 226 939 q 294 976 272 958 q 317 1019 317 994 q 293 1060 317 1047 q 232 1074 269 1074 q 161 1064 194 1074 l 161 1139 q 274 1153 215 1153 q 385 1122 342 1153 q 428 1032 428 1092 q 389 942 428 975 q 274 883 350 910 l 226 939 z "},"ȳ":{"ha":544,"x_min":17,"x_max":529,"o":"m 63 -87 q 177 -75 146 -87 q 208 -28 208 -62 q 203 8 208 -19 l 185 92 l 178 119 q 17 803 108 408 l 167 803 l 275 203 l 379 803 l 529 803 l 338 -44 q 256 -165 318 -129 q 81 -201 193 -201 l 63 -201 l 63 -87 m 139 1042 l 406 1042 l 406 951 l 139 951 l 139 1042 z "},"ỹ":{"ha":544,"x_min":17,"x_max":529,"o":"m 63 -87 q 177 -75 146 -87 q 208 -28 208 -62 q 203 8 208 -19 l 185 92 l 178 119 q 17 803 108 408 l 167 803 l 275 203 l 379 803 l 529 803 l 338 -44 q 256 -165 318 -129 q 81 -201 193 -201 l 63 -201 l 63 -87 m 378 972 q 327 982 350 972 q 275 1010 304 992 q 231 1033 247 1025 q 196 1040 214 1040 q 160 1027 171 1040 q 149 983 149 1014 l 64 983 q 175 1133 64 1133 q 220 1124 199 1133 q 269 1099 242 1115 q 315 1074 297 1082 q 351 1067 332 1067 q 387 1080 376 1067 q 397 1125 397 1093 l 481 1125 q 458 1013 481 1054 q 378 972 435 972 z "},"z":{"ha":482,"x_min":44,"x_max":450,"o":"m 44 100 l 290 692 l 69 692 l 69 803 l 450 803 l 450 722 l 203 113 l 444 113 l 444 0 l 44 0 l 44 100 z "},"ź":{"ha":482,"x_min":44,"x_max":450,"o":"m 44 100 l 290 692 l 69 692 l 69 803 l 450 803 l 450 722 l 203 113 l 444 113 l 444 0 l 44 0 l 44 100 m 285 1144 l 433 1144 l 278 869 l 203 869 l 285 1144 z "},"ž":{"ha":482,"x_min":44,"x_max":450,"o":"m 44 100 l 290 692 l 69 692 l 69 803 l 450 803 l 450 722 l 203 113 l 444 113 l 444 0 l 44 0 l 44 100 m 47 1125 l 161 1125 l 242 963 l 322 1125 l 436 1125 l 314 885 l 168 885 l 47 1125 z "},"ż":{"ha":482,"x_min":44,"x_max":450,"o":"m 44 100 l 290 692 l 69 692 l 69 803 l 450 803 l 450 722 l 203 113 l 444 113 l 444 0 l 44 0 l 44 100 m 167 1097 l 317 1097 l 317 932 l 167 932 l 167 1097 z "},"ﬁ":{"ha":682,"x_min":26,"x_max":600,"o":"m 122 693 l 26 693 l 26 803 l 122 803 l 122 844 q 165 1026 122 969 q 313 1083 207 1083 q 393 1078 354 1083 l 393 967 q 342 972 354 972 q 285 949 300 972 q 271 869 271 926 l 271 803 l 599 803 l 599 0 l 450 0 l 450 693 l 271 693 l 271 0 l 122 0 l 122 693 m 464 1078 l 600 1078 l 600 922 l 464 922 l 464 1078 z "},"ﬂ":{"ha":715,"x_min":26,"x_max":635,"o":"m 122 693 l 26 693 l 26 803 l 122 803 l 122 844 q 136 978 122 924 q 206 1073 150 1033 q 379 1113 263 1113 q 635 1078 479 1113 l 635 0 l 486 0 l 486 996 q 401 1001 442 1001 q 313 983 340 1001 q 278 934 285 964 q 271 847 271 904 l 271 803 l 393 803 l 393 693 l 271 693 l 271 0 l 122 0 l 122 693 z "},"ª":{"ha":615,"x_min":107,"x_max":514,"o":"m 247 446 q 147 490 186 446 q 107 600 107 533 q 140 711 107 668 q 223 778 174 754 q 356 831 272 801 l 383 840 l 383 914 q 371 1003 383 972 q 324 1035 358 1035 q 251 913 251 1035 l 129 913 q 183 1079 132 1017 q 325 1142 235 1142 q 474 1076 433 1142 q 514 872 514 1010 l 514 454 l 394 454 l 394 543 q 333 473 372 500 q 247 446 294 446 m 296 560 q 347 579 324 560 q 383 625 371 599 l 383 782 q 306 738 333 756 q 258 693 278 719 q 239 631 239 667 q 254 578 239 597 q 296 560 269 560 z "},"º":{"ha":615,"x_min":93,"x_max":522,"o":"m 308 444 q 142 510 192 444 q 93 701 93 576 l 93 885 q 142 1076 93 1010 q 308 1142 192 1142 q 471 1074 419 1142 q 522 885 522 1006 l 522 701 q 471 513 522 581 q 308 444 419 444 m 306 553 q 365 574 346 553 q 388 629 383 596 q 392 718 392 663 l 392 868 q 388 956 392 924 q 365 1010 383 989 q 306 1032 346 1032 q 233 990 249 1032 q 217 868 217 949 l 217 718 q 233 595 217 638 q 306 553 250 553 z "},"А":{"ha":682,"x_min":25,"x_max":657,"o":"m 265 1125 l 415 1125 l 657 0 l 507 0 l 456 283 l 226 283 l 174 0 l 25 0 l 265 1125 m 435 396 l 342 903 l 247 396 l 435 396 z "},"Б":{"ha":686,"x_min":88,"x_max":640,"o":"m 88 1125 l 571 1125 l 571 1011 l 244 1011 l 244 657 l 279 657 q 485 628 407 657 q 601 528 563 599 q 640 329 640 457 q 556 78 640 156 q 288 0 471 0 l 88 0 l 88 1125 m 289 113 q 406 129 364 113 q 470 193 449 146 q 492 331 492 240 q 473 455 492 410 q 409 522 454 500 q 285 543 364 543 l 244 543 l 244 113 l 289 113 z "},"В":{"ha":728,"x_min":88,"x_max":676,"o":"m 88 1125 l 346 1125 q 572 1056 499 1125 q 646 843 646 988 q 485 606 646 628 q 631 512 585 582 q 676 321 676 442 q 605 85 676 169 q 388 0 533 0 l 88 0 l 88 1125 m 338 656 q 472 698 435 656 q 510 843 510 740 q 487 953 510 918 q 418 999 464 989 q 282 1008 372 1008 l 244 1008 l 244 656 l 338 656 m 350 113 q 458 134 419 113 q 511 200 496 156 q 526 321 526 244 q 482 483 526 429 q 338 536 438 536 l 244 536 l 244 113 l 350 113 z "},"Г":{"ha":536,"x_min":88,"x_max":515,"o":"m 88 1125 l 515 1125 l 515 1008 l 244 1008 l 244 0 l 88 0 l 88 1125 z "},"Ѓ":{"ha":536,"x_min":88,"x_max":515,"o":"m 88 1125 l 515 1125 l 515 1008 l 244 1008 l 244 0 l 88 0 l 88 1125 z "},"Ґ":{"ha":524,"x_min":88,"x_max":517,"o":"m 88 1125 l 418 1125 l 418 1275 l 517 1275 l 517 1008 l 244 1008 l 244 0 l 88 0 l 88 1125 z "},"Д":{"ha":871,"x_min":15,"x_max":840,"o":"m 15 113 l 67 113 q 148 214 115 153 q 206 412 181 275 q 243 792 232 549 l 261 1125 l 732 1125 l 732 113 l 840 113 l 840 -204 l 719 -204 l 707 0 l 149 0 l 136 -204 l 15 -204 l 15 113 m 576 113 l 576 1008 l 394 1008 l 383 754 q 350 393 374 519 q 296 215 326 267 q 213 113 265 163 l 576 113 z "},"Е":{"ha":564,"x_min":88,"x_max":526,"o":"m 88 1125 l 524 1125 l 524 1008 l 244 1008 l 244 636 l 471 636 l 471 525 l 244 525 l 244 113 l 526 113 l 526 0 l 88 0 l 88 1125 z "},"Ѐ":{"ha":564,"x_min":88,"x_max":526,"o":"m 88 1125 l 524 1125 l 524 1008 l 244 1008 l 244 636 l 471 636 l 471 525 l 244 525 l 244 113 l 526 113 l 526 0 l 88 0 l 88 1125 m 132 1467 l 281 1467 l 360 1192 l 286 1192 l 132 1467 z "},"Ё":{"ha":564,"x_min":88,"x_max":526,"o":"m 88 1125 l 524 1125 l 524 1008 l 244 1008 l 244 636 l 471 636 l 471 525 l 244 525 l 244 113 l 526 113 l 526 0 l 88 0 l 88 1125 z "},"Ж":{"ha":939,"x_min":6,"x_max":935,"o":"m 267 575 l 32 1125 l 183 1125 l 394 582 l 403 582 l 403 1125 l 536 1125 l 536 582 l 546 582 l 756 1125 l 908 1125 l 672 575 l 935 0 l 781 0 l 547 563 l 536 563 l 536 0 l 403 0 l 403 563 l 393 563 l 158 0 l 6 0 l 267 575 z "},"З":{"ha":667,"x_min":35,"x_max":611,"o":"m 333 -12 q 128 63 199 -12 q 58 276 58 139 l 58 314 l 206 314 q 207 275 206 286 q 237 153 210 196 q 333 111 264 111 q 435 163 408 111 q 463 317 463 214 q 421 467 463 413 q 276 528 379 521 q 233 529 265 529 l 233 649 q 274 650 264 649 q 420 703 378 656 q 463 844 463 751 q 431 969 463 925 q 326 1014 399 1014 q 222 970 256 1014 q 183 846 189 926 l 183 810 l 35 810 l 35 847 q 110 1058 35 982 q 321 1135 185 1135 q 535 1057 458 1135 q 611 844 611 979 q 568 680 611 744 q 450 594 525 615 q 569 499 526 569 q 611 317 611 429 q 333 -12 611 -12 z "},"И":{"ha":757,"x_min":88,"x_max":668,"o":"m 88 1125 l 226 1125 l 226 346 l 556 1125 l 668 1125 l 668 0 l 531 0 l 531 792 l 204 0 l 88 0 l 88 1125 z "},"Й":{"ha":757,"x_min":88,"x_max":668,"o":"m 88 1125 l 226 1125 l 226 346 l 556 1125 l 668 1125 l 668 0 l 531 0 l 531 792 l 204 0 l 88 0 l 88 1125 z "},"Ѝ":{"ha":757,"x_min":88,"x_max":668,"o":"m 88 1125 l 226 1125 l 226 346 l 556 1125 l 668 1125 l 668 0 l 531 0 l 531 792 l 204 0 l 88 0 l 88 1125 m 203 1467 l 351 1467 l 431 1192 l 357 1192 l 203 1467 z "},"К":{"ha":706,"x_min":88,"x_max":689,"o":"m 88 1125 l 244 1125 l 244 625 l 303 625 l 504 1125 l 661 1125 l 439 590 l 689 0 l 532 0 l 304 549 l 244 549 l 244 0 l 88 0 l 88 1125 z "},"Ќ":{"ha":706,"x_min":88,"x_max":689,"o":"m 88 1125 l 244 1125 l 244 625 l 303 625 l 504 1125 l 661 1125 l 439 590 l 689 0 l 532 0 l 304 549 l 244 549 l 244 0 l 88 0 l 88 1125 z "},"Л":{"ha":807,"x_min":3,"x_max":718,"o":"m 3 117 q 96 139 63 115 q 151 250 129 163 q 186 526 174 338 l 224 1125 l 718 1125 l 718 0 l 561 0 l 561 1008 l 358 1008 l 332 526 q 294 226 321 338 q 208 57 268 115 q 39 -1 149 -1 q 3 0 15 -1 l 3 117 z "},"М":{"ha":917,"x_min":85,"x_max":832,"o":"m 106 1125 l 247 1125 l 458 258 l 669 1125 l 811 1125 l 832 0 l 708 0 l 700 757 l 503 0 l 414 0 l 218 757 l 210 0 l 85 0 l 106 1125 z "},"Н":{"ha":779,"x_min":88,"x_max":690,"o":"m 88 1125 l 244 1125 l 244 639 l 533 639 l 533 1125 l 690 1125 l 690 0 l 533 0 l 533 526 l 244 526 l 244 0 l 88 0 l 88 1125 z "},"О":{"ha":750,"x_min":67,"x_max":683,"o":"m 375 -12 q 138 81 210 -12 q 67 353 67 175 l 67 779 q 139 1044 67 954 q 375 1135 211 1135 q 611 1044 539 1135 q 683 779 683 953 l 683 351 q 611 82 683 176 q 375 -12 539 -12 m 375 111 q 494 163 464 111 q 525 318 525 214 l 525 811 q 494 963 525 914 q 375 1013 464 1013 q 256 963 286 1013 q 225 811 225 914 l 225 318 q 256 163 225 214 q 375 111 286 111 z "},"П":{"ha":794,"x_min":88,"x_max":707,"o":"m 88 1125 l 707 1125 l 707 0 l 550 0 l 550 1013 l 244 1013 l 244 0 l 88 0 l 88 1125 z "},"Р":{"ha":665,"x_min":88,"x_max":644,"o":"m 88 1125 l 367 1125 q 578 1046 513 1125 q 644 814 644 967 q 574 600 644 676 q 368 524 503 524 l 244 524 l 244 0 l 88 0 l 88 1125 m 317 636 q 424 651 386 636 q 479 704 463 667 q 496 813 496 742 q 483 939 496 899 q 434 996 471 979 q 318 1013 397 1013 l 244 1013 l 244 636 l 317 636 z "},"С":{"ha":714,"x_min":67,"x_max":653,"o":"m 369 -12 q 135 87 203 -12 q 67 361 67 186 l 67 758 q 133 1039 67 943 q 369 1135 200 1135 q 587 1053 521 1135 q 653 811 653 971 l 653 722 l 504 722 l 504 801 q 497 921 504 879 q 462 988 490 963 q 371 1013 433 1013 q 276 985 307 1013 q 235 910 244 958 q 225 782 225 863 l 225 336 q 239 201 225 250 q 284 132 253 153 q 371 111 315 111 q 460 138 431 111 q 497 210 489 164 q 504 335 504 256 l 504 418 l 653 418 l 653 335 q 590 77 653 167 q 369 -12 526 -12 z "},"Т":{"ha":558,"x_min":1,"x_max":561,"o":"m 207 1008 l 1 1008 l 1 1125 l 561 1125 l 561 1008 l 364 1008 l 364 0 l 207 0 l 207 1008 z "},"У":{"ha":628,"x_min":26,"x_max":611,"o":"m 74 -50 q 139 -54 111 -54 q 233 -32 207 -54 q 258 39 258 -10 q 249 125 258 67 l 26 1125 l 175 1125 l 269 646 l 326 289 l 376 643 l 461 1125 l 611 1125 l 410 122 l 399 60 q 363 -83 381 -39 q 297 -151 346 -128 q 147 -174 249 -174 q 74 -171 129 -174 l 74 -50 z "},"Ў":{"ha":628,"x_min":26,"x_max":611,"o":"m 74 -50 q 139 -54 111 -54 q 233 -32 207 -54 q 258 39 258 -10 q 249 125 258 67 l 26 1125 l 175 1125 l 269 646 l 326 289 l 376 643 l 461 1125 l 611 1125 l 410 122 l 399 60 q 363 -83 381 -39 q 297 -151 346 -128 q 147 -174 249 -174 q 74 -171 129 -174 l 74 -50 z "},"Ф":{"ha":919,"x_min":67,"x_max":853,"o":"m 379 139 q 331 135 350 135 q 132 201 197 135 q 67 432 67 267 l 67 713 q 128 943 67 874 q 311 1013 190 1013 q 379 1010 351 1013 l 379 1226 l 536 1226 l 536 1010 q 607 1013 572 1013 q 791 943 729 1013 q 853 713 853 874 l 853 432 q 793 203 853 272 q 626 135 733 135 q 536 139 582 135 l 536 -50 l 379 -50 l 379 139 m 340 229 q 379 232 363 229 l 379 915 q 331 918 346 918 q 258 900 283 918 q 221 838 232 882 q 210 713 210 794 l 210 432 q 219 304 210 346 q 256 246 229 263 q 340 229 283 229 m 588 229 q 663 246 638 229 q 699 306 689 263 q 710 432 710 349 l 710 713 q 700 840 710 797 q 664 900 690 882 q 585 918 638 918 q 536 915 564 918 l 536 232 q 588 229 561 229 z "},"Х":{"ha":669,"x_min":18,"x_max":651,"o":"m 253 589 l 22 1125 l 168 1125 l 339 728 l 494 1125 l 640 1125 l 404 576 l 651 0 l 506 0 l 322 424 l 164 0 l 18 0 l 253 589 z "},"Ч":{"ha":747,"x_min":68,"x_max":660,"o":"m 501 519 q 336 499 410 499 q 68 760 68 499 l 68 1125 l 210 1125 l 210 760 q 246 640 210 678 q 367 601 282 601 q 501 618 426 601 l 501 1125 l 660 1125 l 660 0 l 501 0 l 501 519 z "},"Ц":{"ha":864,"x_min":88,"x_max":828,"o":"m 694 0 l 88 0 l 88 1125 l 244 1125 l 244 113 l 564 113 l 564 1125 l 721 1125 l 721 113 l 828 113 l 828 -204 l 707 -204 l 694 0 z "},"Ш":{"ha":1042,"x_min":88,"x_max":954,"o":"m 88 1125 l 244 1125 l 244 114 l 447 114 l 447 1125 l 604 1125 l 604 114 l 797 114 l 797 1125 l 954 1125 l 954 0 l 88 0 l 88 1125 z "},"Щ":{"ha":1097,"x_min":88,"x_max":1063,"o":"m 928 0 l 88 0 l 88 1125 l 244 1125 l 244 113 l 447 113 l 447 1125 l 604 1125 l 604 113 l 797 113 l 797 1125 l 956 1125 l 956 113 l 1063 113 l 1063 -204 l 940 -204 l 928 0 z "},"Џ":{"ha":760,"x_min":88,"x_max":671,"o":"m 314 0 l 88 0 l 88 1125 l 244 1125 l 244 113 l 515 113 l 515 1125 l 671 1125 l 671 0 l 451 0 l 442 -204 l 324 -204 l 314 0 z "},"Ь":{"ha":686,"x_min":88,"x_max":649,"o":"m 88 1125 l 244 1125 l 244 657 l 289 657 q 494 628 417 657 q 610 528 571 599 q 649 329 649 457 q 564 78 649 156 q 296 0 479 0 l 88 0 l 88 1125 m 296 113 q 415 129 371 113 q 480 193 458 146 q 501 331 501 240 q 482 454 501 408 q 417 522 463 500 q 293 543 372 543 l 244 543 l 244 113 l 296 113 z "},"Ъ":{"ha":788,"x_min":7,"x_max":751,"o":"m 189 1006 l 7 1006 l 7 1125 l 346 1125 l 346 657 l 389 657 q 595 628 517 657 q 713 528 674 599 q 751 329 751 457 q 666 78 751 157 q 397 0 581 0 l 189 0 l 189 1006 m 399 113 q 517 129 474 113 q 581 193 560 146 q 603 331 603 240 q 583 454 603 408 q 519 522 564 500 q 394 543 474 543 l 346 543 l 346 113 l 399 113 z "},"Ы":{"ha":1011,"x_min":88,"x_max":922,"o":"m 88 1125 l 244 1125 l 244 657 l 289 657 q 494 628 417 657 q 610 528 571 599 q 649 329 649 457 q 564 78 649 156 q 296 0 479 0 l 88 0 l 88 1125 m 765 1125 l 922 1125 l 922 0 l 765 0 l 765 1125 m 296 113 q 415 129 371 113 q 480 193 458 146 q 501 331 501 240 q 482 454 501 408 q 417 522 463 500 q 293 543 372 543 l 244 543 l 244 113 l 296 113 z "}}}
